%TF.GenerationSoftware,KiCad,Pcbnew,(6.0.0)*%
%TF.CreationDate,2022-08-29T20:46:27+02:00*%
%TF.ProjectId,AV_MOD_FAMICOM,41565f4d-4f44-45f4-9641-4d49434f4d2e,rev?*%
%TF.SameCoordinates,Original*%
%TF.FileFunction,Copper,L1,Top*%
%TF.FilePolarity,Positive*%
%FSLAX46Y46*%
G04 Gerber Fmt 4.6, Leading zero omitted, Abs format (unit mm)*
G04 Created by KiCad (PCBNEW (6.0.0)) date 2022-08-29 20:46:27*
%MOMM*%
%LPD*%
G01*
G04 APERTURE LIST*
%TA.AperFunction,ComponentPad*%
%ADD10C,1.600000*%
%TD*%
%TA.AperFunction,ComponentPad*%
%ADD11O,1.600000X1.600000*%
%TD*%
%TA.AperFunction,ComponentPad*%
%ADD12R,1.700000X1.700000*%
%TD*%
%TA.AperFunction,ComponentPad*%
%ADD13O,1.700000X1.700000*%
%TD*%
%TA.AperFunction,ComponentPad*%
%ADD14R,1.600000X1.600000*%
%TD*%
%TA.AperFunction,ComponentPad*%
%ADD15R,1.428000X1.428000*%
%TD*%
%TA.AperFunction,ComponentPad*%
%ADD16C,1.428000*%
%TD*%
%TA.AperFunction,ComponentPad*%
%ADD17C,3.316000*%
%TD*%
%TA.AperFunction,ComponentPad*%
%ADD18R,2.800000X2.800000*%
%TD*%
%TA.AperFunction,ComponentPad*%
%ADD19O,2.800000X2.800000*%
%TD*%
%TA.AperFunction,ComponentPad*%
%ADD20R,1.300000X1.300000*%
%TD*%
%TA.AperFunction,ComponentPad*%
%ADD21C,1.300000*%
%TD*%
G04 APERTURE END LIST*
D10*
%TO.P,R4,1*%
%TO.N,Net-(C1-Pad2)*%
X121920000Y-91440000D03*
D11*
%TO.P,R4,2*%
%TO.N,VIDEO OUT*%
X121920000Y-101600000D03*
%TD*%
D12*
%TO.P,J5,1,Pin_1*%
%TO.N,GNDREF*%
X106950000Y-80782500D03*
D13*
%TO.P,J5,2,Pin_2*%
%TO.N,Net-(J5-Pad2)*%
X109490000Y-80782500D03*
%TO.P,J5,3,Pin_3*%
X112030000Y-80782500D03*
%TO.P,J5,4,Pin_4*%
X114570000Y-80782500D03*
%TO.P,J5,5,Pin_5*%
%TO.N,AUDIO*%
X117110000Y-80782500D03*
%TO.P,J5,6,Pin_6*%
%TO.N,GNDREF*%
X119650000Y-80782500D03*
%TO.P,J5,7,Pin_7*%
%TO.N,VIDEO IN*%
X122190000Y-80782500D03*
%TD*%
D14*
%TO.P,C1,1*%
%TO.N,Net-(C1-Pad1)*%
X130810000Y-91440000D03*
D10*
%TO.P,C1,2*%
%TO.N,Net-(C1-Pad2)*%
X125810000Y-91440000D03*
%TD*%
%TO.P,R3,1*%
%TO.N,Net-(C1-Pad1)*%
X138720000Y-88900000D03*
D11*
%TO.P,R3,2*%
%TO.N,GNDREF*%
X148880000Y-88900000D03*
%TD*%
D15*
%TO.P,J2,01,VCC*%
%TO.N,+5V*%
X174300000Y-104140000D03*
D16*
%TO.P,J2,02,D-*%
%TO.N,GNDREF*%
X176800000Y-104140000D03*
%TO.P,J2,03,D+*%
X178800000Y-104140000D03*
%TO.P,J2,04,GND*%
X181300000Y-104140000D03*
D17*
%TO.P,J2,S1,SHIELD*%
%TO.N,Net-(J2-PadS1)*%
X171230000Y-106850000D03*
%TO.P,J2,S2,SHIELD*%
X184370000Y-106850000D03*
%TD*%
D14*
%TO.P,C2,1*%
%TO.N,AUDIO*%
X114162651Y-96520000D03*
D10*
%TO.P,C2,2*%
%TO.N,AUDIO L*%
X109162651Y-96520000D03*
%TD*%
D18*
%TO.P,D1,1,K*%
%TO.N,Net-(C1-Pad1)*%
X139700000Y-92710000D03*
D19*
%TO.P,D1,2,A*%
%TO.N,Net-(D1-Pad2)*%
X139700000Y-105410000D03*
%TD*%
D10*
%TO.P,R1,1*%
%TO.N,+5V*%
X153690000Y-105410000D03*
D11*
%TO.P,R1,2*%
%TO.N,Net-(D1-Pad2)*%
X143530000Y-105410000D03*
%TD*%
D12*
%TO.P,J3,1,Pin_1*%
%TO.N,+5V*%
X129540000Y-77470000D03*
D13*
%TO.P,J3,2,Pin_2*%
%TO.N,Net-(J5-Pad2)*%
X127000000Y-77470000D03*
%TD*%
D15*
%TO.P,J1,01,VCC*%
%TO.N,AUDIO L*%
X109750000Y-103970000D03*
D16*
%TO.P,J1,02,D-*%
X112250000Y-103970000D03*
%TO.P,J1,03,D+*%
%TO.N,VIDEO OUT*%
X114250000Y-103970000D03*
%TO.P,J1,04,GND*%
%TO.N,GNDREF*%
X116750000Y-103970000D03*
D17*
%TO.P,J1,S1,SHIELD*%
%TO.N,Net-(J1-PadS1)*%
X106680000Y-106680000D03*
%TO.P,J1,S2,SHIELD*%
X119820000Y-106680000D03*
%TD*%
D20*
%TO.P,Q1,1,C*%
%TO.N,GNDREF*%
X127000000Y-82550000D03*
D21*
%TO.P,Q1,2,B*%
%TO.N,VIDEO IN*%
X128270000Y-81280000D03*
%TO.P,Q1,3,E*%
%TO.N,Net-(Q1-Pad3)*%
X129540000Y-82550000D03*
%TD*%
D20*
%TO.P,Q2,1,C*%
%TO.N,+5V*%
X152400000Y-93980000D03*
D21*
%TO.P,Q2,2,B*%
%TO.N,Net-(D1-Pad2)*%
X153670000Y-95250000D03*
%TO.P,Q2,3,E*%
%TO.N,Net-(C1-Pad1)*%
X152400000Y-96520000D03*
%TD*%
D10*
%TO.P,R2,1*%
%TO.N,Net-(D1-Pad2)*%
X147320000Y-83820000D03*
D11*
%TO.P,R2,2*%
%TO.N,Net-(Q1-Pad3)*%
X137160000Y-83820000D03*
%TD*%
%TA.AperFunction,Conductor*%
%TO.N,GNDREF*%
G36*
X187394121Y-74188002D02*
G01*
X187440614Y-74241658D01*
X187452000Y-74294000D01*
X187452000Y-118746000D01*
X187431998Y-118814121D01*
X187378342Y-118860614D01*
X187326000Y-118872000D01*
X103504000Y-118872000D01*
X103435879Y-118851998D01*
X103389386Y-118798342D01*
X103378000Y-118746000D01*
X103378000Y-106657260D01*
X104508557Y-106657260D01*
X104525561Y-106952169D01*
X104526386Y-106956374D01*
X104526387Y-106956382D01*
X104549453Y-107073948D01*
X104582432Y-107242042D01*
X104583819Y-107246092D01*
X104583820Y-107246097D01*
X104676728Y-107517458D01*
X104678117Y-107521514D01*
X104680044Y-107525345D01*
X104796934Y-107757755D01*
X104810845Y-107785415D01*
X104813271Y-107788944D01*
X104813274Y-107788950D01*
X104848231Y-107839812D01*
X104978161Y-108028861D01*
X105176968Y-108247347D01*
X105180256Y-108250096D01*
X105400296Y-108434079D01*
X105400301Y-108434083D01*
X105403588Y-108436831D01*
X105528707Y-108515318D01*
X105650187Y-108591522D01*
X105650191Y-108591524D01*
X105653827Y-108593805D01*
X105726761Y-108626736D01*
X105919142Y-108713600D01*
X105919146Y-108713602D01*
X105923054Y-108715366D01*
X105927173Y-108716586D01*
X106202175Y-108798046D01*
X106202180Y-108798047D01*
X106206288Y-108799264D01*
X106210522Y-108799912D01*
X106210527Y-108799913D01*
X106494046Y-108843297D01*
X106494048Y-108843297D01*
X106498288Y-108843946D01*
X106648669Y-108846308D01*
X106789360Y-108848519D01*
X106789366Y-108848519D01*
X106793651Y-108848586D01*
X107086910Y-108813098D01*
X107268072Y-108765571D01*
X107368497Y-108739225D01*
X107368498Y-108739225D01*
X107372640Y-108738138D01*
X107645553Y-108625094D01*
X107900599Y-108476057D01*
X108133059Y-108293785D01*
X108173890Y-108251651D01*
X108335647Y-108084729D01*
X108338630Y-108081651D01*
X108341163Y-108078203D01*
X108341167Y-108078198D01*
X108510972Y-107847036D01*
X108513510Y-107843581D01*
X108654463Y-107583980D01*
X108706671Y-107445815D01*
X108757361Y-107311668D01*
X108757362Y-107311664D01*
X108758879Y-107307650D01*
X108786871Y-107185430D01*
X108823868Y-107023891D01*
X108823869Y-107023887D01*
X108824826Y-107019707D01*
X108831237Y-106947882D01*
X108850866Y-106727942D01*
X108851086Y-106725478D01*
X108851331Y-106702119D01*
X108851536Y-106682485D01*
X108851562Y-106680000D01*
X108850012Y-106657260D01*
X117648557Y-106657260D01*
X117665561Y-106952169D01*
X117666386Y-106956374D01*
X117666387Y-106956382D01*
X117689453Y-107073948D01*
X117722432Y-107242042D01*
X117723819Y-107246092D01*
X117723820Y-107246097D01*
X117816728Y-107517458D01*
X117818117Y-107521514D01*
X117820044Y-107525345D01*
X117936934Y-107757755D01*
X117950845Y-107785415D01*
X117953271Y-107788944D01*
X117953274Y-107788950D01*
X117988231Y-107839812D01*
X118118161Y-108028861D01*
X118316968Y-108247347D01*
X118320256Y-108250096D01*
X118540296Y-108434079D01*
X118540301Y-108434083D01*
X118543588Y-108436831D01*
X118668707Y-108515318D01*
X118790187Y-108591522D01*
X118790191Y-108591524D01*
X118793827Y-108593805D01*
X118866761Y-108626736D01*
X119059142Y-108713600D01*
X119059146Y-108713602D01*
X119063054Y-108715366D01*
X119067173Y-108716586D01*
X119342175Y-108798046D01*
X119342180Y-108798047D01*
X119346288Y-108799264D01*
X119350522Y-108799912D01*
X119350527Y-108799913D01*
X119634046Y-108843297D01*
X119634048Y-108843297D01*
X119638288Y-108843946D01*
X119788669Y-108846308D01*
X119929360Y-108848519D01*
X119929366Y-108848519D01*
X119933651Y-108848586D01*
X120226910Y-108813098D01*
X120408072Y-108765571D01*
X120508497Y-108739225D01*
X120508498Y-108739225D01*
X120512640Y-108738138D01*
X120785553Y-108625094D01*
X121040599Y-108476057D01*
X121273059Y-108293785D01*
X121313890Y-108251651D01*
X121475647Y-108084729D01*
X121478630Y-108081651D01*
X121481163Y-108078203D01*
X121481167Y-108078198D01*
X121650972Y-107847036D01*
X121653510Y-107843581D01*
X121794463Y-107583980D01*
X121846671Y-107445815D01*
X121897361Y-107311668D01*
X121897362Y-107311664D01*
X121898879Y-107307650D01*
X121926871Y-107185430D01*
X121963868Y-107023891D01*
X121963869Y-107023887D01*
X121964826Y-107019707D01*
X121971237Y-106947882D01*
X121990866Y-106727942D01*
X121991086Y-106725478D01*
X121991331Y-106702119D01*
X121991536Y-106682485D01*
X121991562Y-106680000D01*
X121982689Y-106549849D01*
X121971762Y-106389562D01*
X121971761Y-106389556D01*
X121971470Y-106385285D01*
X121911567Y-106096024D01*
X121812961Y-105817569D01*
X121804295Y-105800777D01*
X121679442Y-105558879D01*
X121679442Y-105558878D01*
X121677477Y-105555072D01*
X121662193Y-105533324D01*
X121573255Y-105406779D01*
X121533279Y-105349899D01*
X137787569Y-105349899D01*
X137787744Y-105354351D01*
X137794869Y-105535683D01*
X137798180Y-105619963D01*
X137846737Y-105885837D01*
X137932272Y-106142217D01*
X138053078Y-106383987D01*
X138055607Y-106387646D01*
X138159563Y-106538058D01*
X138206744Y-106606324D01*
X138390205Y-106804790D01*
X138599799Y-106975427D01*
X138603617Y-106977726D01*
X138603619Y-106977727D01*
X138680297Y-107023891D01*
X138831346Y-107114830D01*
X138835441Y-107116564D01*
X138835443Y-107116565D01*
X139076124Y-107218480D01*
X139076131Y-107218482D01*
X139080225Y-107220216D01*
X139146675Y-107237835D01*
X139337172Y-107288345D01*
X139337177Y-107288346D01*
X139341469Y-107289484D01*
X139345878Y-107290006D01*
X139345884Y-107290007D01*
X139494953Y-107307650D01*
X139609868Y-107321251D01*
X139880064Y-107314883D01*
X139884459Y-107314151D01*
X139884464Y-107314151D01*
X140142267Y-107271241D01*
X140142271Y-107271240D01*
X140146669Y-107270508D01*
X140388930Y-107193891D01*
X140400114Y-107190354D01*
X140400116Y-107190353D01*
X140404360Y-107189011D01*
X140408371Y-107187085D01*
X140408376Y-107187083D01*
X140643979Y-107073948D01*
X140643980Y-107073947D01*
X140647998Y-107072018D01*
X140833781Y-106947882D01*
X140869013Y-106924341D01*
X140869017Y-106924338D01*
X140872721Y-106921863D01*
X140876038Y-106918892D01*
X140876042Y-106918889D01*
X140978343Y-106827260D01*
X169058557Y-106827260D01*
X169075561Y-107122169D01*
X169076386Y-107126374D01*
X169076387Y-107126382D01*
X169094797Y-107220216D01*
X169132432Y-107412042D01*
X169133819Y-107416092D01*
X169133820Y-107416097D01*
X169192592Y-107587755D01*
X169228117Y-107691514D01*
X169230044Y-107695345D01*
X169304599Y-107843581D01*
X169360845Y-107955415D01*
X169363271Y-107958944D01*
X169363274Y-107958950D01*
X169447605Y-108081651D01*
X169528161Y-108198861D01*
X169531042Y-108202027D01*
X169611734Y-108290706D01*
X169726968Y-108417347D01*
X169730256Y-108420096D01*
X169950296Y-108604079D01*
X169950301Y-108604083D01*
X169953588Y-108606831D01*
X170078708Y-108685318D01*
X170200187Y-108761522D01*
X170200191Y-108761524D01*
X170203827Y-108763805D01*
X170282360Y-108799264D01*
X170469142Y-108883600D01*
X170469146Y-108883602D01*
X170473054Y-108885366D01*
X170477173Y-108886586D01*
X170752175Y-108968046D01*
X170752180Y-108968047D01*
X170756288Y-108969264D01*
X170760522Y-108969912D01*
X170760527Y-108969913D01*
X171044046Y-109013297D01*
X171044048Y-109013297D01*
X171048288Y-109013946D01*
X171198669Y-109016308D01*
X171339360Y-109018519D01*
X171339366Y-109018519D01*
X171343651Y-109018586D01*
X171636910Y-108983098D01*
X171922640Y-108908138D01*
X172195553Y-108795094D01*
X172450599Y-108646057D01*
X172683059Y-108463785D01*
X172725397Y-108420096D01*
X172845237Y-108296429D01*
X172888630Y-108251651D01*
X172891163Y-108248203D01*
X172891167Y-108248198D01*
X173060972Y-108017036D01*
X173063510Y-108013581D01*
X173204463Y-107753980D01*
X173308879Y-107477650D01*
X173348773Y-107303462D01*
X173373868Y-107193891D01*
X173373869Y-107193887D01*
X173374826Y-107189707D01*
X173381237Y-107117882D01*
X173400866Y-106897942D01*
X173401086Y-106895478D01*
X173401562Y-106850000D01*
X173400012Y-106827260D01*
X182198557Y-106827260D01*
X182215561Y-107122169D01*
X182216386Y-107126374D01*
X182216387Y-107126382D01*
X182234797Y-107220216D01*
X182272432Y-107412042D01*
X182273819Y-107416092D01*
X182273820Y-107416097D01*
X182332592Y-107587755D01*
X182368117Y-107691514D01*
X182370044Y-107695345D01*
X182444599Y-107843581D01*
X182500845Y-107955415D01*
X182503271Y-107958944D01*
X182503274Y-107958950D01*
X182587605Y-108081651D01*
X182668161Y-108198861D01*
X182671042Y-108202027D01*
X182751734Y-108290706D01*
X182866968Y-108417347D01*
X182870256Y-108420096D01*
X183090296Y-108604079D01*
X183090301Y-108604083D01*
X183093588Y-108606831D01*
X183218708Y-108685318D01*
X183340187Y-108761522D01*
X183340191Y-108761524D01*
X183343827Y-108763805D01*
X183422360Y-108799264D01*
X183609142Y-108883600D01*
X183609146Y-108883602D01*
X183613054Y-108885366D01*
X183617173Y-108886586D01*
X183892175Y-108968046D01*
X183892180Y-108968047D01*
X183896288Y-108969264D01*
X183900522Y-108969912D01*
X183900527Y-108969913D01*
X184184046Y-109013297D01*
X184184048Y-109013297D01*
X184188288Y-109013946D01*
X184338669Y-109016308D01*
X184479360Y-109018519D01*
X184479366Y-109018519D01*
X184483651Y-109018586D01*
X184776910Y-108983098D01*
X185062640Y-108908138D01*
X185335553Y-108795094D01*
X185590599Y-108646057D01*
X185823059Y-108463785D01*
X185865397Y-108420096D01*
X185985237Y-108296429D01*
X186028630Y-108251651D01*
X186031163Y-108248203D01*
X186031167Y-108248198D01*
X186200972Y-108017036D01*
X186203510Y-108013581D01*
X186344463Y-107753980D01*
X186448879Y-107477650D01*
X186488773Y-107303462D01*
X186513868Y-107193891D01*
X186513869Y-107193887D01*
X186514826Y-107189707D01*
X186521237Y-107117882D01*
X186540866Y-106897942D01*
X186541086Y-106895478D01*
X186541562Y-106850000D01*
X186538257Y-106801517D01*
X186521762Y-106559562D01*
X186521761Y-106559556D01*
X186521470Y-106555285D01*
X186517903Y-106538058D01*
X186482487Y-106367042D01*
X186461567Y-106266024D01*
X186362961Y-105987569D01*
X186354295Y-105970777D01*
X186229442Y-105728879D01*
X186229442Y-105728878D01*
X186227477Y-105725072D01*
X186057621Y-105483392D01*
X185899647Y-105313392D01*
X185859457Y-105270142D01*
X185859454Y-105270139D01*
X185856536Y-105266999D01*
X185853221Y-105264285D01*
X185853217Y-105264282D01*
X185698646Y-105137767D01*
X185627945Y-105079899D01*
X185376076Y-104925554D01*
X185368657Y-104922297D01*
X185109522Y-104808545D01*
X185105590Y-104806819D01*
X185087673Y-104801715D01*
X185002780Y-104777533D01*
X184821493Y-104725892D01*
X184817251Y-104725288D01*
X184817245Y-104725287D01*
X184533292Y-104684875D01*
X184529041Y-104684270D01*
X184373386Y-104683455D01*
X184237932Y-104682745D01*
X184237925Y-104682745D01*
X184233646Y-104682723D01*
X184229402Y-104683282D01*
X184229398Y-104683282D01*
X184100557Y-104700244D01*
X183940775Y-104721280D01*
X183936635Y-104722413D01*
X183936633Y-104722413D01*
X183673801Y-104794316D01*
X183655846Y-104799228D01*
X183384131Y-104915124D01*
X183232722Y-105005741D01*
X183134342Y-105064620D01*
X183134338Y-105064623D01*
X183130660Y-105066824D01*
X183127317Y-105069502D01*
X183127313Y-105069505D01*
X183033265Y-105144852D01*
X182900122Y-105251520D01*
X182897178Y-105254622D01*
X182897174Y-105254626D01*
X182838081Y-105316897D01*
X182696783Y-105465794D01*
X182524405Y-105705683D01*
X182386179Y-105966746D01*
X182284663Y-106244154D01*
X182221734Y-106532772D01*
X182219962Y-106555285D01*
X182206568Y-106725478D01*
X182198557Y-106827260D01*
X173400012Y-106827260D01*
X173398257Y-106801517D01*
X173381762Y-106559562D01*
X173381761Y-106559556D01*
X173381470Y-106555285D01*
X173377903Y-106538058D01*
X173342487Y-106367042D01*
X173321567Y-106266024D01*
X173222961Y-105987569D01*
X173214295Y-105970777D01*
X173089442Y-105728879D01*
X173089442Y-105728878D01*
X173087477Y-105725072D01*
X172917621Y-105483392D01*
X172759647Y-105313392D01*
X172719457Y-105270142D01*
X172719454Y-105270139D01*
X172716536Y-105266999D01*
X172713221Y-105264285D01*
X172713217Y-105264282D01*
X172558646Y-105137767D01*
X172487945Y-105079899D01*
X172236076Y-104925554D01*
X172228657Y-104922297D01*
X172182724Y-104902134D01*
X173077500Y-104902134D01*
X173084255Y-104964316D01*
X173135385Y-105100705D01*
X173222739Y-105217261D01*
X173339295Y-105304615D01*
X173475684Y-105355745D01*
X173537866Y-105362500D01*
X175062134Y-105362500D01*
X175124316Y-105355745D01*
X175260705Y-105304615D01*
X175377261Y-105217261D01*
X175416943Y-105164313D01*
X176140242Y-105164313D01*
X176149536Y-105176327D01*
X176182154Y-105199167D01*
X176191656Y-105204653D01*
X176375473Y-105290368D01*
X176385765Y-105294114D01*
X176581676Y-105346608D01*
X176592471Y-105348511D01*
X176794525Y-105366189D01*
X176805475Y-105366189D01*
X177007529Y-105348511D01*
X177018324Y-105346608D01*
X177214235Y-105294114D01*
X177224527Y-105290368D01*
X177408344Y-105204653D01*
X177417846Y-105199167D01*
X177451300Y-105175741D01*
X177459675Y-105165264D01*
X177459175Y-105164313D01*
X178140242Y-105164313D01*
X178149536Y-105176327D01*
X178182154Y-105199167D01*
X178191656Y-105204653D01*
X178375473Y-105290368D01*
X178385765Y-105294114D01*
X178581676Y-105346608D01*
X178592471Y-105348511D01*
X178794525Y-105366189D01*
X178805475Y-105366189D01*
X179007529Y-105348511D01*
X179018324Y-105346608D01*
X179214235Y-105294114D01*
X179224527Y-105290368D01*
X179408344Y-105204653D01*
X179417846Y-105199167D01*
X179451300Y-105175741D01*
X179459675Y-105165264D01*
X179459175Y-105164313D01*
X180640242Y-105164313D01*
X180649536Y-105176327D01*
X180682154Y-105199167D01*
X180691656Y-105204653D01*
X180875473Y-105290368D01*
X180885765Y-105294114D01*
X181081676Y-105346608D01*
X181092471Y-105348511D01*
X181294525Y-105366189D01*
X181305475Y-105366189D01*
X181507529Y-105348511D01*
X181518324Y-105346608D01*
X181714235Y-105294114D01*
X181724527Y-105290368D01*
X181908344Y-105204653D01*
X181917846Y-105199167D01*
X181951300Y-105175741D01*
X181959675Y-105165264D01*
X181952606Y-105151816D01*
X181312812Y-104512022D01*
X181298868Y-104504408D01*
X181297035Y-104504539D01*
X181290420Y-104508790D01*
X180646672Y-105152538D01*
X180640242Y-105164313D01*
X179459175Y-105164313D01*
X179452606Y-105151816D01*
X178812812Y-104512022D01*
X178798868Y-104504408D01*
X178797035Y-104504539D01*
X178790420Y-104508790D01*
X178146672Y-105152538D01*
X178140242Y-105164313D01*
X177459175Y-105164313D01*
X177452606Y-105151816D01*
X176812812Y-104512022D01*
X176798868Y-104504408D01*
X176797035Y-104504539D01*
X176790420Y-104508790D01*
X176146672Y-105152538D01*
X176140242Y-105164313D01*
X175416943Y-105164313D01*
X175464615Y-105100705D01*
X175515745Y-104964316D01*
X175522500Y-104902134D01*
X175522500Y-104845654D01*
X175542502Y-104777533D01*
X175596158Y-104731040D01*
X175666432Y-104720936D01*
X175731012Y-104750430D01*
X175751712Y-104773382D01*
X175764259Y-104791300D01*
X175774736Y-104799675D01*
X175788184Y-104792606D01*
X176427978Y-104152812D01*
X176434356Y-104141132D01*
X177164408Y-104141132D01*
X177164539Y-104142965D01*
X177168790Y-104149580D01*
X177787188Y-104767978D01*
X177801132Y-104775592D01*
X177802965Y-104775461D01*
X177809580Y-104771210D01*
X178427978Y-104152812D01*
X178434356Y-104141132D01*
X179164408Y-104141132D01*
X179164539Y-104142965D01*
X179168790Y-104149580D01*
X179812538Y-104793328D01*
X179824313Y-104799758D01*
X179836327Y-104790464D01*
X179859167Y-104757846D01*
X179864653Y-104748345D01*
X179935805Y-104595757D01*
X179982722Y-104542472D01*
X180050999Y-104523011D01*
X180118959Y-104543553D01*
X180164195Y-104595757D01*
X180235347Y-104748345D01*
X180240833Y-104757846D01*
X180264259Y-104791300D01*
X180274736Y-104799675D01*
X180288184Y-104792606D01*
X180927978Y-104152812D01*
X180934356Y-104141132D01*
X181664408Y-104141132D01*
X181664539Y-104142965D01*
X181668790Y-104149580D01*
X182312538Y-104793328D01*
X182324313Y-104799758D01*
X182336327Y-104790464D01*
X182359167Y-104757846D01*
X182364653Y-104748344D01*
X182450368Y-104564527D01*
X182454114Y-104554235D01*
X182506608Y-104358324D01*
X182508511Y-104347529D01*
X182526189Y-104145475D01*
X182526189Y-104134525D01*
X182508511Y-103932471D01*
X182506608Y-103921676D01*
X182454114Y-103725765D01*
X182450368Y-103715473D01*
X182364653Y-103531656D01*
X182359167Y-103522154D01*
X182335741Y-103488700D01*
X182325264Y-103480325D01*
X182311816Y-103487394D01*
X181672022Y-104127188D01*
X181664408Y-104141132D01*
X180934356Y-104141132D01*
X180935592Y-104138868D01*
X180935461Y-104137035D01*
X180931210Y-104130420D01*
X180287462Y-103486672D01*
X180275687Y-103480242D01*
X180263673Y-103489536D01*
X180240833Y-103522154D01*
X180235347Y-103531655D01*
X180164195Y-103684243D01*
X180117278Y-103737528D01*
X180049001Y-103756989D01*
X179981041Y-103736447D01*
X179935805Y-103684243D01*
X179864653Y-103531655D01*
X179859167Y-103522154D01*
X179835741Y-103488700D01*
X179825264Y-103480325D01*
X179811816Y-103487394D01*
X179172022Y-104127188D01*
X179164408Y-104141132D01*
X178434356Y-104141132D01*
X178435592Y-104138868D01*
X178435461Y-104137035D01*
X178431210Y-104130420D01*
X177812812Y-103512022D01*
X177798868Y-103504408D01*
X177797035Y-103504539D01*
X177790420Y-103508790D01*
X177172022Y-104127188D01*
X177164408Y-104141132D01*
X176434356Y-104141132D01*
X176435592Y-104138868D01*
X176435461Y-104137035D01*
X176431210Y-104130420D01*
X175787462Y-103486672D01*
X175775687Y-103480242D01*
X175763673Y-103489536D01*
X175751712Y-103506618D01*
X175696255Y-103550946D01*
X175625635Y-103558254D01*
X175562275Y-103526222D01*
X175526291Y-103465021D01*
X175522500Y-103434346D01*
X175522500Y-103377866D01*
X175515745Y-103315684D01*
X175464615Y-103179295D01*
X175416231Y-103114736D01*
X176140325Y-103114736D01*
X176147394Y-103128184D01*
X176787188Y-103767978D01*
X176801132Y-103775592D01*
X176802965Y-103775461D01*
X176809580Y-103771210D01*
X177453328Y-103127462D01*
X177459758Y-103115687D01*
X177459022Y-103114736D01*
X178140325Y-103114736D01*
X178147394Y-103128184D01*
X178787188Y-103767978D01*
X178801132Y-103775592D01*
X178802965Y-103775461D01*
X178809580Y-103771210D01*
X179453328Y-103127462D01*
X179459758Y-103115687D01*
X179459022Y-103114736D01*
X180640325Y-103114736D01*
X180647394Y-103128184D01*
X181287188Y-103767978D01*
X181301132Y-103775592D01*
X181302965Y-103775461D01*
X181309580Y-103771210D01*
X181953328Y-103127462D01*
X181959758Y-103115687D01*
X181950464Y-103103673D01*
X181917846Y-103080833D01*
X181908344Y-103075347D01*
X181724527Y-102989632D01*
X181714235Y-102985886D01*
X181518324Y-102933392D01*
X181507529Y-102931489D01*
X181305475Y-102913811D01*
X181294525Y-102913811D01*
X181092471Y-102931489D01*
X181081676Y-102933392D01*
X180885765Y-102985886D01*
X180875473Y-102989632D01*
X180691656Y-103075347D01*
X180682154Y-103080833D01*
X180648700Y-103104259D01*
X180640325Y-103114736D01*
X179459022Y-103114736D01*
X179450464Y-103103673D01*
X179417846Y-103080833D01*
X179408344Y-103075347D01*
X179224527Y-102989632D01*
X179214235Y-102985886D01*
X179018324Y-102933392D01*
X179007529Y-102931489D01*
X178805475Y-102913811D01*
X178794525Y-102913811D01*
X178592471Y-102931489D01*
X178581676Y-102933392D01*
X178385765Y-102985886D01*
X178375473Y-102989632D01*
X178191656Y-103075347D01*
X178182154Y-103080833D01*
X178148700Y-103104259D01*
X178140325Y-103114736D01*
X177459022Y-103114736D01*
X177450464Y-103103673D01*
X177417846Y-103080833D01*
X177408344Y-103075347D01*
X177224527Y-102989632D01*
X177214235Y-102985886D01*
X177018324Y-102933392D01*
X177007529Y-102931489D01*
X176805475Y-102913811D01*
X176794525Y-102913811D01*
X176592471Y-102931489D01*
X176581676Y-102933392D01*
X176385765Y-102985886D01*
X176375473Y-102989632D01*
X176191656Y-103075347D01*
X176182154Y-103080833D01*
X176148700Y-103104259D01*
X176140325Y-103114736D01*
X175416231Y-103114736D01*
X175377261Y-103062739D01*
X175260705Y-102975385D01*
X175124316Y-102924255D01*
X175062134Y-102917500D01*
X173537866Y-102917500D01*
X173475684Y-102924255D01*
X173339295Y-102975385D01*
X173222739Y-103062739D01*
X173135385Y-103179295D01*
X173084255Y-103315684D01*
X173077500Y-103377866D01*
X173077500Y-104902134D01*
X172182724Y-104902134D01*
X171969522Y-104808545D01*
X171965590Y-104806819D01*
X171947673Y-104801715D01*
X171862780Y-104777533D01*
X171681493Y-104725892D01*
X171677251Y-104725288D01*
X171677245Y-104725287D01*
X171393292Y-104684875D01*
X171389041Y-104684270D01*
X171233386Y-104683455D01*
X171097932Y-104682745D01*
X171097925Y-104682745D01*
X171093646Y-104682723D01*
X171089402Y-104683282D01*
X171089398Y-104683282D01*
X170960557Y-104700244D01*
X170800775Y-104721280D01*
X170796635Y-104722413D01*
X170796633Y-104722413D01*
X170533801Y-104794316D01*
X170515846Y-104799228D01*
X170244131Y-104915124D01*
X170092722Y-105005741D01*
X169994342Y-105064620D01*
X169994338Y-105064623D01*
X169990660Y-105066824D01*
X169987317Y-105069502D01*
X169987313Y-105069505D01*
X169893265Y-105144852D01*
X169760122Y-105251520D01*
X169757178Y-105254622D01*
X169757174Y-105254626D01*
X169698081Y-105316897D01*
X169556783Y-105465794D01*
X169384405Y-105705683D01*
X169246179Y-105966746D01*
X169144663Y-106244154D01*
X169081734Y-106532772D01*
X169079962Y-106555285D01*
X169066568Y-106725478D01*
X169058557Y-106827260D01*
X140978343Y-106827260D01*
X141070729Y-106744512D01*
X141074045Y-106741542D01*
X141247953Y-106534654D01*
X141251738Y-106528586D01*
X141388614Y-106309111D01*
X141388615Y-106309109D01*
X141390975Y-106305325D01*
X141500258Y-106058133D01*
X141573620Y-105798008D01*
X141586021Y-105705683D01*
X141609172Y-105533324D01*
X141609173Y-105533316D01*
X141609599Y-105530142D01*
X141611512Y-105469278D01*
X141613274Y-105413222D01*
X141613274Y-105413217D01*
X141613375Y-105410000D01*
X142216502Y-105410000D01*
X142236457Y-105638087D01*
X142237881Y-105643400D01*
X142237881Y-105643402D01*
X142283529Y-105813759D01*
X142295716Y-105859243D01*
X142298039Y-105864224D01*
X142298039Y-105864225D01*
X142390151Y-106061762D01*
X142390154Y-106061767D01*
X142392477Y-106066749D01*
X142448113Y-106146205D01*
X142516698Y-106244154D01*
X142523802Y-106254300D01*
X142685700Y-106416198D01*
X142690208Y-106419355D01*
X142690211Y-106419357D01*
X142768389Y-106474098D01*
X142873251Y-106547523D01*
X142878233Y-106549846D01*
X142878238Y-106549849D01*
X143006376Y-106609600D01*
X143080757Y-106644284D01*
X143086065Y-106645706D01*
X143086067Y-106645707D01*
X143296598Y-106702119D01*
X143296600Y-106702119D01*
X143301913Y-106703543D01*
X143530000Y-106723498D01*
X143758087Y-106703543D01*
X143763400Y-106702119D01*
X143763402Y-106702119D01*
X143973933Y-106645707D01*
X143973935Y-106645706D01*
X143979243Y-106644284D01*
X144053624Y-106609600D01*
X144181762Y-106549849D01*
X144181767Y-106549846D01*
X144186749Y-106547523D01*
X144291611Y-106474098D01*
X144369789Y-106419357D01*
X144369792Y-106419355D01*
X144374300Y-106416198D01*
X144536198Y-106254300D01*
X144543303Y-106244154D01*
X144611887Y-106146205D01*
X144667523Y-106066749D01*
X144669846Y-106061767D01*
X144669849Y-106061762D01*
X144761961Y-105864225D01*
X144761961Y-105864224D01*
X144764284Y-105859243D01*
X144776472Y-105813759D01*
X144822119Y-105643402D01*
X144822119Y-105643400D01*
X144823543Y-105638087D01*
X144843498Y-105410000D01*
X152376502Y-105410000D01*
X152396457Y-105638087D01*
X152397881Y-105643400D01*
X152397881Y-105643402D01*
X152443529Y-105813759D01*
X152455716Y-105859243D01*
X152458039Y-105864224D01*
X152458039Y-105864225D01*
X152550151Y-106061762D01*
X152550154Y-106061767D01*
X152552477Y-106066749D01*
X152608113Y-106146205D01*
X152676698Y-106244154D01*
X152683802Y-106254300D01*
X152845700Y-106416198D01*
X152850208Y-106419355D01*
X152850211Y-106419357D01*
X152928389Y-106474098D01*
X153033251Y-106547523D01*
X153038233Y-106549846D01*
X153038238Y-106549849D01*
X153166376Y-106609600D01*
X153240757Y-106644284D01*
X153246065Y-106645706D01*
X153246067Y-106645707D01*
X153456598Y-106702119D01*
X153456600Y-106702119D01*
X153461913Y-106703543D01*
X153690000Y-106723498D01*
X153918087Y-106703543D01*
X153923400Y-106702119D01*
X153923402Y-106702119D01*
X154133933Y-106645707D01*
X154133935Y-106645706D01*
X154139243Y-106644284D01*
X154213624Y-106609600D01*
X154341762Y-106549849D01*
X154341767Y-106549846D01*
X154346749Y-106547523D01*
X154451611Y-106474098D01*
X154529789Y-106419357D01*
X154529792Y-106419355D01*
X154534300Y-106416198D01*
X154696198Y-106254300D01*
X154703303Y-106244154D01*
X154771887Y-106146205D01*
X154827523Y-106066749D01*
X154829846Y-106061767D01*
X154829849Y-106061762D01*
X154921961Y-105864225D01*
X154921961Y-105864224D01*
X154924284Y-105859243D01*
X154936472Y-105813759D01*
X154982119Y-105643402D01*
X154982119Y-105643400D01*
X154983543Y-105638087D01*
X155003498Y-105410000D01*
X154983543Y-105181913D01*
X154975672Y-105152538D01*
X154925707Y-104966067D01*
X154925706Y-104966065D01*
X154924284Y-104960757D01*
X154921961Y-104955775D01*
X154829849Y-104758238D01*
X154829846Y-104758233D01*
X154827523Y-104753251D01*
X154711705Y-104587846D01*
X154699357Y-104570211D01*
X154699355Y-104570208D01*
X154696198Y-104565700D01*
X154534300Y-104403802D01*
X154529792Y-104400645D01*
X154529789Y-104400643D01*
X154446069Y-104342022D01*
X154346749Y-104272477D01*
X154341767Y-104270154D01*
X154341762Y-104270151D01*
X154144225Y-104178039D01*
X154144224Y-104178039D01*
X154139243Y-104175716D01*
X154133935Y-104174294D01*
X154133933Y-104174293D01*
X153923402Y-104117881D01*
X153923400Y-104117881D01*
X153918087Y-104116457D01*
X153690000Y-104096502D01*
X153461913Y-104116457D01*
X153456600Y-104117881D01*
X153456598Y-104117881D01*
X153246067Y-104174293D01*
X153246065Y-104174294D01*
X153240757Y-104175716D01*
X153235776Y-104178039D01*
X153235775Y-104178039D01*
X153038238Y-104270151D01*
X153038233Y-104270154D01*
X153033251Y-104272477D01*
X152933931Y-104342022D01*
X152850211Y-104400643D01*
X152850208Y-104400645D01*
X152845700Y-104403802D01*
X152683802Y-104565700D01*
X152680645Y-104570208D01*
X152680643Y-104570211D01*
X152668295Y-104587846D01*
X152552477Y-104753251D01*
X152550154Y-104758233D01*
X152550151Y-104758238D01*
X152458039Y-104955775D01*
X152455716Y-104960757D01*
X152454294Y-104966065D01*
X152454293Y-104966067D01*
X152404328Y-105152538D01*
X152396457Y-105181913D01*
X152376502Y-105410000D01*
X144843498Y-105410000D01*
X144823543Y-105181913D01*
X144815672Y-105152538D01*
X144765707Y-104966067D01*
X144765706Y-104966065D01*
X144764284Y-104960757D01*
X144761961Y-104955775D01*
X144669849Y-104758238D01*
X144669846Y-104758233D01*
X144667523Y-104753251D01*
X144551705Y-104587846D01*
X144539357Y-104570211D01*
X144539355Y-104570208D01*
X144536198Y-104565700D01*
X144374300Y-104403802D01*
X144369792Y-104400645D01*
X144369789Y-104400643D01*
X144286069Y-104342022D01*
X144186749Y-104272477D01*
X144181767Y-104270154D01*
X144181762Y-104270151D01*
X143984225Y-104178039D01*
X143984224Y-104178039D01*
X143979243Y-104175716D01*
X143973935Y-104174294D01*
X143973933Y-104174293D01*
X143763402Y-104117881D01*
X143763400Y-104117881D01*
X143758087Y-104116457D01*
X143530000Y-104096502D01*
X143301913Y-104116457D01*
X143296600Y-104117881D01*
X143296598Y-104117881D01*
X143086067Y-104174293D01*
X143086065Y-104174294D01*
X143080757Y-104175716D01*
X143075776Y-104178039D01*
X143075775Y-104178039D01*
X142878238Y-104270151D01*
X142878233Y-104270154D01*
X142873251Y-104272477D01*
X142773931Y-104342022D01*
X142690211Y-104400643D01*
X142690208Y-104400645D01*
X142685700Y-104403802D01*
X142523802Y-104565700D01*
X142520645Y-104570208D01*
X142520643Y-104570211D01*
X142508295Y-104587846D01*
X142392477Y-104753251D01*
X142390154Y-104758233D01*
X142390151Y-104758238D01*
X142298039Y-104955775D01*
X142295716Y-104960757D01*
X142294294Y-104966065D01*
X142294293Y-104966067D01*
X142244328Y-105152538D01*
X142236457Y-105181913D01*
X142216502Y-105410000D01*
X141613375Y-105410000D01*
X141594287Y-105140403D01*
X141537402Y-104876185D01*
X141526139Y-104845654D01*
X141445397Y-104626796D01*
X141443856Y-104622619D01*
X141412511Y-104564527D01*
X141317629Y-104388678D01*
X141317629Y-104388677D01*
X141315516Y-104384762D01*
X141154942Y-104167362D01*
X141130926Y-104142965D01*
X140973268Y-103982812D01*
X140965338Y-103974756D01*
X140888556Y-103916158D01*
X140754028Y-103813489D01*
X140754024Y-103813487D01*
X140750487Y-103810787D01*
X140514675Y-103678727D01*
X140262609Y-103581210D01*
X140258284Y-103580207D01*
X140258279Y-103580206D01*
X140132042Y-103550946D01*
X139999318Y-103520182D01*
X139730054Y-103496861D01*
X139725619Y-103497105D01*
X139725615Y-103497105D01*
X139464634Y-103511468D01*
X139464627Y-103511469D01*
X139460191Y-103511713D01*
X139387249Y-103526222D01*
X139199484Y-103563570D01*
X139199479Y-103563571D01*
X139195112Y-103564440D01*
X139190909Y-103565916D01*
X138944315Y-103652513D01*
X138944312Y-103652514D01*
X138940107Y-103653991D01*
X138936154Y-103656044D01*
X138936148Y-103656047D01*
X138801937Y-103725765D01*
X138700264Y-103778580D01*
X138696649Y-103781163D01*
X138696643Y-103781167D01*
X138483990Y-103933131D01*
X138483986Y-103933134D01*
X138480369Y-103935719D01*
X138284808Y-104122275D01*
X138117485Y-104334524D01*
X138115253Y-104338366D01*
X138115250Y-104338371D01*
X137983974Y-104564377D01*
X137983971Y-104564384D01*
X137981736Y-104568231D01*
X137980062Y-104572364D01*
X137887491Y-104800913D01*
X137880272Y-104818735D01*
X137879201Y-104823048D01*
X137879199Y-104823053D01*
X137818646Y-105066824D01*
X137815116Y-105081035D01*
X137814662Y-105085463D01*
X137814662Y-105085465D01*
X137793112Y-105295794D01*
X137787569Y-105349899D01*
X121533279Y-105349899D01*
X121507621Y-105313392D01*
X121423291Y-105222642D01*
X121309457Y-105100142D01*
X121309454Y-105100139D01*
X121306536Y-105096999D01*
X121303221Y-105094285D01*
X121303217Y-105094282D01*
X121103365Y-104930705D01*
X121077945Y-104909899D01*
X120826076Y-104755554D01*
X120809654Y-104748345D01*
X120559522Y-104638545D01*
X120555590Y-104636819D01*
X120271493Y-104555892D01*
X120267251Y-104555288D01*
X120267245Y-104555287D01*
X119983292Y-104514875D01*
X119979041Y-104514270D01*
X119823386Y-104513455D01*
X119687932Y-104512745D01*
X119687925Y-104512745D01*
X119683646Y-104512723D01*
X119679402Y-104513282D01*
X119679398Y-104513282D01*
X119605500Y-104523011D01*
X119390775Y-104551280D01*
X119386635Y-104552413D01*
X119386633Y-104552413D01*
X119114736Y-104626796D01*
X119105846Y-104629228D01*
X118834131Y-104745124D01*
X118742845Y-104799758D01*
X118584342Y-104894620D01*
X118584338Y-104894623D01*
X118580660Y-104896824D01*
X118577317Y-104899502D01*
X118577313Y-104899505D01*
X118496416Y-104964316D01*
X118350122Y-105081520D01*
X118347178Y-105084622D01*
X118347174Y-105084626D01*
X118296745Y-105137767D01*
X118146783Y-105295794D01*
X117974405Y-105535683D01*
X117836179Y-105796746D01*
X117803577Y-105885837D01*
X117764870Y-105991610D01*
X117734663Y-106074154D01*
X117671734Y-106362772D01*
X117648557Y-106657260D01*
X108850012Y-106657260D01*
X108842689Y-106549849D01*
X108831762Y-106389562D01*
X108831761Y-106389556D01*
X108831470Y-106385285D01*
X108771567Y-106096024D01*
X108672961Y-105817569D01*
X108664295Y-105800777D01*
X108539442Y-105558879D01*
X108539442Y-105558878D01*
X108537477Y-105555072D01*
X108522193Y-105533324D01*
X108433255Y-105406779D01*
X108367621Y-105313392D01*
X108283291Y-105222642D01*
X108169457Y-105100142D01*
X108169454Y-105100139D01*
X108166536Y-105096999D01*
X108163221Y-105094285D01*
X108163217Y-105094282D01*
X107963365Y-104930705D01*
X107937945Y-104909899D01*
X107686076Y-104755554D01*
X107669654Y-104748345D01*
X107632724Y-104732134D01*
X108527500Y-104732134D01*
X108534255Y-104794316D01*
X108585385Y-104930705D01*
X108672739Y-105047261D01*
X108789295Y-105134615D01*
X108925684Y-105185745D01*
X108987866Y-105192500D01*
X110512134Y-105192500D01*
X110574316Y-105185745D01*
X110710705Y-105134615D01*
X110827261Y-105047261D01*
X110914615Y-104930705D01*
X110965745Y-104794316D01*
X110972500Y-104732134D01*
X110972500Y-104676525D01*
X110992502Y-104608404D01*
X111046158Y-104561911D01*
X111116432Y-104551807D01*
X111181012Y-104581301D01*
X111201713Y-104604255D01*
X111214572Y-104622619D01*
X111309933Y-104758810D01*
X111461190Y-104910067D01*
X111636415Y-105032760D01*
X111641393Y-105035081D01*
X111641396Y-105035083D01*
X111782122Y-105100705D01*
X111830283Y-105123163D01*
X111835591Y-105124585D01*
X111835593Y-105124586D01*
X111873022Y-105134615D01*
X112036904Y-105178527D01*
X112250000Y-105197170D01*
X112463096Y-105178527D01*
X112626978Y-105134615D01*
X112664407Y-105124586D01*
X112664409Y-105124585D01*
X112669717Y-105123163D01*
X112717878Y-105100705D01*
X112858604Y-105035083D01*
X112858607Y-105035081D01*
X112863585Y-105032760D01*
X113038810Y-104910067D01*
X113160905Y-104787972D01*
X113223217Y-104753946D01*
X113294032Y-104759011D01*
X113339095Y-104787972D01*
X113461190Y-104910067D01*
X113636415Y-105032760D01*
X113641393Y-105035081D01*
X113641396Y-105035083D01*
X113782122Y-105100705D01*
X113830283Y-105123163D01*
X113835591Y-105124585D01*
X113835593Y-105124586D01*
X113873022Y-105134615D01*
X114036904Y-105178527D01*
X114250000Y-105197170D01*
X114463096Y-105178527D01*
X114626978Y-105134615D01*
X114664407Y-105124586D01*
X114664409Y-105124585D01*
X114669717Y-105123163D01*
X114717878Y-105100705D01*
X114858604Y-105035083D01*
X114858607Y-105035081D01*
X114863585Y-105032760D01*
X114918493Y-104994313D01*
X116090242Y-104994313D01*
X116099536Y-105006327D01*
X116132154Y-105029167D01*
X116141656Y-105034653D01*
X116325473Y-105120368D01*
X116335765Y-105124114D01*
X116531676Y-105176608D01*
X116542471Y-105178511D01*
X116744525Y-105196189D01*
X116755475Y-105196189D01*
X116957529Y-105178511D01*
X116968324Y-105176608D01*
X117164235Y-105124114D01*
X117174527Y-105120368D01*
X117358344Y-105034653D01*
X117367846Y-105029167D01*
X117401300Y-105005741D01*
X117409675Y-104995264D01*
X117402606Y-104981816D01*
X116762812Y-104342022D01*
X116748868Y-104334408D01*
X116747035Y-104334539D01*
X116740420Y-104338790D01*
X116096672Y-104982538D01*
X116090242Y-104994313D01*
X114918493Y-104994313D01*
X115038810Y-104910067D01*
X115190067Y-104758810D01*
X115312760Y-104583585D01*
X115317993Y-104572364D01*
X115386081Y-104426349D01*
X115432999Y-104373064D01*
X115501276Y-104353603D01*
X115569236Y-104374145D01*
X115614471Y-104426349D01*
X115685347Y-104578344D01*
X115690833Y-104587846D01*
X115714259Y-104621300D01*
X115724736Y-104629675D01*
X115738184Y-104622606D01*
X116377978Y-103982812D01*
X116384356Y-103971132D01*
X117114408Y-103971132D01*
X117114539Y-103972965D01*
X117118790Y-103979580D01*
X117762538Y-104623328D01*
X117774313Y-104629758D01*
X117786327Y-104620464D01*
X117809167Y-104587846D01*
X117814653Y-104578344D01*
X117900368Y-104394527D01*
X117904114Y-104384235D01*
X117956608Y-104188324D01*
X117958511Y-104177529D01*
X117976189Y-103975475D01*
X117976189Y-103964525D01*
X117958511Y-103762471D01*
X117956608Y-103751676D01*
X117904114Y-103555765D01*
X117900368Y-103545473D01*
X117814653Y-103361656D01*
X117809167Y-103352154D01*
X117785741Y-103318700D01*
X117775264Y-103310325D01*
X117761816Y-103317394D01*
X117122022Y-103957188D01*
X117114408Y-103971132D01*
X116384356Y-103971132D01*
X116385592Y-103968868D01*
X116385461Y-103967035D01*
X116381210Y-103960420D01*
X115737462Y-103316672D01*
X115725687Y-103310242D01*
X115713673Y-103319536D01*
X115690833Y-103352154D01*
X115685347Y-103361656D01*
X115614471Y-103513651D01*
X115567554Y-103566936D01*
X115499277Y-103586397D01*
X115431317Y-103565855D01*
X115386081Y-103513651D01*
X115315083Y-103361396D01*
X115315081Y-103361393D01*
X115312760Y-103356415D01*
X115190067Y-103181190D01*
X115038810Y-103029933D01*
X114917135Y-102944736D01*
X116090325Y-102944736D01*
X116097394Y-102958184D01*
X116737188Y-103597978D01*
X116751132Y-103605592D01*
X116752965Y-103605461D01*
X116759580Y-103601210D01*
X117403328Y-102957462D01*
X117409758Y-102945687D01*
X117400464Y-102933673D01*
X117367846Y-102910833D01*
X117358344Y-102905347D01*
X117174527Y-102819632D01*
X117164235Y-102815886D01*
X116968324Y-102763392D01*
X116957529Y-102761489D01*
X116755475Y-102743811D01*
X116744525Y-102743811D01*
X116542471Y-102761489D01*
X116531676Y-102763392D01*
X116335765Y-102815886D01*
X116325473Y-102819632D01*
X116141656Y-102905347D01*
X116132154Y-102910833D01*
X116098700Y-102934259D01*
X116090325Y-102944736D01*
X114917135Y-102944736D01*
X114863585Y-102907240D01*
X114858607Y-102904919D01*
X114858604Y-102904917D01*
X114674699Y-102819160D01*
X114674697Y-102819159D01*
X114669717Y-102816837D01*
X114664409Y-102815415D01*
X114664407Y-102815414D01*
X114600006Y-102798158D01*
X114463096Y-102761473D01*
X114250000Y-102742830D01*
X114036904Y-102761473D01*
X113899994Y-102798158D01*
X113835593Y-102815414D01*
X113835591Y-102815415D01*
X113830283Y-102816837D01*
X113825303Y-102819159D01*
X113825301Y-102819160D01*
X113641396Y-102904917D01*
X113641393Y-102904919D01*
X113636415Y-102907240D01*
X113461190Y-103029933D01*
X113339095Y-103152028D01*
X113276783Y-103186054D01*
X113205968Y-103180989D01*
X113160905Y-103152028D01*
X113038810Y-103029933D01*
X112863585Y-102907240D01*
X112858607Y-102904919D01*
X112858604Y-102904917D01*
X112674699Y-102819160D01*
X112674697Y-102819159D01*
X112669717Y-102816837D01*
X112664409Y-102815415D01*
X112664407Y-102815414D01*
X112600006Y-102798158D01*
X112463096Y-102761473D01*
X112250000Y-102742830D01*
X112036904Y-102761473D01*
X111899994Y-102798158D01*
X111835593Y-102815414D01*
X111835591Y-102815415D01*
X111830283Y-102816837D01*
X111825303Y-102819159D01*
X111825301Y-102819160D01*
X111641396Y-102904917D01*
X111641393Y-102904919D01*
X111636415Y-102907240D01*
X111461190Y-103029933D01*
X111309933Y-103181190D01*
X111288862Y-103211283D01*
X111201713Y-103335745D01*
X111146256Y-103380074D01*
X111075637Y-103387383D01*
X111012276Y-103355353D01*
X110976291Y-103294151D01*
X110972500Y-103263475D01*
X110972500Y-103207866D01*
X110965745Y-103145684D01*
X110914615Y-103009295D01*
X110827261Y-102892739D01*
X110710705Y-102805385D01*
X110574316Y-102754255D01*
X110512134Y-102747500D01*
X108987866Y-102747500D01*
X108925684Y-102754255D01*
X108789295Y-102805385D01*
X108672739Y-102892739D01*
X108585385Y-103009295D01*
X108534255Y-103145684D01*
X108527500Y-103207866D01*
X108527500Y-104732134D01*
X107632724Y-104732134D01*
X107419522Y-104638545D01*
X107415590Y-104636819D01*
X107131493Y-104555892D01*
X107127251Y-104555288D01*
X107127245Y-104555287D01*
X106843292Y-104514875D01*
X106839041Y-104514270D01*
X106683386Y-104513455D01*
X106547932Y-104512745D01*
X106547925Y-104512745D01*
X106543646Y-104512723D01*
X106539402Y-104513282D01*
X106539398Y-104513282D01*
X106465500Y-104523011D01*
X106250775Y-104551280D01*
X106246635Y-104552413D01*
X106246633Y-104552413D01*
X105974736Y-104626796D01*
X105965846Y-104629228D01*
X105694131Y-104745124D01*
X105602845Y-104799758D01*
X105444342Y-104894620D01*
X105444338Y-104894623D01*
X105440660Y-104896824D01*
X105437317Y-104899502D01*
X105437313Y-104899505D01*
X105356416Y-104964316D01*
X105210122Y-105081520D01*
X105207178Y-105084622D01*
X105207174Y-105084626D01*
X105156745Y-105137767D01*
X105006783Y-105295794D01*
X104834405Y-105535683D01*
X104696179Y-105796746D01*
X104663577Y-105885837D01*
X104624870Y-105991610D01*
X104594663Y-106074154D01*
X104531734Y-106362772D01*
X104508557Y-106657260D01*
X103378000Y-106657260D01*
X103378000Y-101600000D01*
X120606502Y-101600000D01*
X120626457Y-101828087D01*
X120685716Y-102049243D01*
X120688039Y-102054224D01*
X120688039Y-102054225D01*
X120780151Y-102251762D01*
X120780154Y-102251767D01*
X120782477Y-102256749D01*
X120913802Y-102444300D01*
X121075700Y-102606198D01*
X121080208Y-102609355D01*
X121080211Y-102609357D01*
X121158389Y-102664098D01*
X121263251Y-102737523D01*
X121268233Y-102739846D01*
X121268238Y-102739849D01*
X121438323Y-102819160D01*
X121470757Y-102834284D01*
X121476065Y-102835706D01*
X121476067Y-102835707D01*
X121686598Y-102892119D01*
X121686600Y-102892119D01*
X121691913Y-102893543D01*
X121920000Y-102913498D01*
X122148087Y-102893543D01*
X122153400Y-102892119D01*
X122153402Y-102892119D01*
X122363933Y-102835707D01*
X122363935Y-102835706D01*
X122369243Y-102834284D01*
X122401677Y-102819160D01*
X122571762Y-102739849D01*
X122571767Y-102739846D01*
X122576749Y-102737523D01*
X122681611Y-102664098D01*
X122759789Y-102609357D01*
X122759792Y-102609355D01*
X122764300Y-102606198D01*
X122926198Y-102444300D01*
X123057523Y-102256749D01*
X123059846Y-102251767D01*
X123059849Y-102251762D01*
X123151961Y-102054225D01*
X123151961Y-102054224D01*
X123154284Y-102049243D01*
X123213543Y-101828087D01*
X123233498Y-101600000D01*
X123213543Y-101371913D01*
X123154284Y-101150757D01*
X123151961Y-101145775D01*
X123059849Y-100948238D01*
X123059846Y-100948233D01*
X123057523Y-100943251D01*
X122926198Y-100755700D01*
X122764300Y-100593802D01*
X122759792Y-100590645D01*
X122759789Y-100590643D01*
X122681611Y-100535902D01*
X122576749Y-100462477D01*
X122571767Y-100460154D01*
X122571762Y-100460151D01*
X122374225Y-100368039D01*
X122374224Y-100368039D01*
X122369243Y-100365716D01*
X122363935Y-100364294D01*
X122363933Y-100364293D01*
X122153402Y-100307881D01*
X122153400Y-100307881D01*
X122148087Y-100306457D01*
X121920000Y-100286502D01*
X121691913Y-100306457D01*
X121686600Y-100307881D01*
X121686598Y-100307881D01*
X121476067Y-100364293D01*
X121476065Y-100364294D01*
X121470757Y-100365716D01*
X121465776Y-100368039D01*
X121465775Y-100368039D01*
X121268238Y-100460151D01*
X121268233Y-100460154D01*
X121263251Y-100462477D01*
X121158389Y-100535902D01*
X121080211Y-100590643D01*
X121080208Y-100590645D01*
X121075700Y-100593802D01*
X120913802Y-100755700D01*
X120782477Y-100943251D01*
X120780154Y-100948233D01*
X120780151Y-100948238D01*
X120688039Y-101145775D01*
X120685716Y-101150757D01*
X120626457Y-101371913D01*
X120606502Y-101600000D01*
X103378000Y-101600000D01*
X103378000Y-96520000D01*
X107849153Y-96520000D01*
X107869108Y-96748087D01*
X107870532Y-96753400D01*
X107870532Y-96753402D01*
X107912057Y-96908372D01*
X107928367Y-96969243D01*
X107930690Y-96974224D01*
X107930690Y-96974225D01*
X108022802Y-97171762D01*
X108022805Y-97171767D01*
X108025128Y-97176749D01*
X108028285Y-97181257D01*
X108141324Y-97342693D01*
X108156453Y-97364300D01*
X108318351Y-97526198D01*
X108322859Y-97529355D01*
X108322862Y-97529357D01*
X108341591Y-97542471D01*
X108505902Y-97657523D01*
X108510884Y-97659846D01*
X108510889Y-97659849D01*
X108708426Y-97751961D01*
X108713408Y-97754284D01*
X108718716Y-97755706D01*
X108718718Y-97755707D01*
X108929249Y-97812119D01*
X108929251Y-97812119D01*
X108934564Y-97813543D01*
X109162651Y-97833498D01*
X109390738Y-97813543D01*
X109396051Y-97812119D01*
X109396053Y-97812119D01*
X109606584Y-97755707D01*
X109606586Y-97755706D01*
X109611894Y-97754284D01*
X109616876Y-97751961D01*
X109814413Y-97659849D01*
X109814418Y-97659846D01*
X109819400Y-97657523D01*
X109983711Y-97542471D01*
X110002440Y-97529357D01*
X110002443Y-97529355D01*
X110006951Y-97526198D01*
X110165015Y-97368134D01*
X112854151Y-97368134D01*
X112860906Y-97430316D01*
X112912036Y-97566705D01*
X112999390Y-97683261D01*
X113115946Y-97770615D01*
X113252335Y-97821745D01*
X113314517Y-97828500D01*
X115010785Y-97828500D01*
X115072967Y-97821745D01*
X115209356Y-97770615D01*
X115325912Y-97683261D01*
X115413266Y-97566705D01*
X115464396Y-97430316D01*
X115471151Y-97368134D01*
X115471151Y-96489544D01*
X151236936Y-96489544D01*
X151250861Y-96702006D01*
X151252282Y-96707602D01*
X151252283Y-96707607D01*
X151301851Y-96902777D01*
X151303272Y-96908372D01*
X151305689Y-96913615D01*
X151342389Y-96993223D01*
X151392411Y-97101731D01*
X151515296Y-97275609D01*
X151667809Y-97424181D01*
X151672605Y-97427386D01*
X151672608Y-97427388D01*
X151688064Y-97437715D01*
X151844843Y-97542471D01*
X151850146Y-97544749D01*
X151850149Y-97544751D01*
X151932324Y-97580056D01*
X152040470Y-97626519D01*
X152116316Y-97643681D01*
X152242501Y-97672234D01*
X152242506Y-97672235D01*
X152248138Y-97673509D01*
X152253909Y-97673736D01*
X152253911Y-97673736D01*
X152313593Y-97676081D01*
X152460891Y-97681869D01*
X152466600Y-97681041D01*
X152466604Y-97681041D01*
X152665890Y-97652145D01*
X152665894Y-97652144D01*
X152671605Y-97651316D01*
X152873223Y-97582876D01*
X153058993Y-97478840D01*
X153222693Y-97342693D01*
X153358840Y-97178993D01*
X153462876Y-96993223D01*
X153531316Y-96791605D01*
X153536856Y-96753402D01*
X153561337Y-96584561D01*
X153561337Y-96584559D01*
X153561869Y-96580891D01*
X153563122Y-96533026D01*
X153584900Y-96465452D01*
X153639754Y-96420379D01*
X153694026Y-96410420D01*
X153730891Y-96411869D01*
X153736599Y-96411041D01*
X153736605Y-96411041D01*
X153935890Y-96382145D01*
X153935894Y-96382144D01*
X153941605Y-96381316D01*
X154143223Y-96312876D01*
X154328993Y-96208840D01*
X154492693Y-96072693D01*
X154628840Y-95908993D01*
X154732876Y-95723223D01*
X154801316Y-95521605D01*
X154802448Y-95513802D01*
X154831337Y-95314561D01*
X154831337Y-95314559D01*
X154831869Y-95310891D01*
X154833463Y-95250000D01*
X154813981Y-95037976D01*
X154756186Y-94833052D01*
X154714103Y-94747715D01*
X154664570Y-94647273D01*
X154662015Y-94642092D01*
X154534622Y-94471491D01*
X154378271Y-94326963D01*
X154198201Y-94213347D01*
X154000441Y-94134449D01*
X153994781Y-94133323D01*
X153994777Y-94133322D01*
X153797282Y-94094038D01*
X153797280Y-94094038D01*
X153791615Y-94092911D01*
X153785840Y-94092835D01*
X153785836Y-94092835D01*
X153682850Y-94091487D01*
X153614997Y-94070595D01*
X153569211Y-94016335D01*
X153558500Y-93965498D01*
X153558500Y-93281866D01*
X153551745Y-93219684D01*
X153500615Y-93083295D01*
X153413261Y-92966739D01*
X153296705Y-92879385D01*
X153160316Y-92828255D01*
X153098134Y-92821500D01*
X151701866Y-92821500D01*
X151639684Y-92828255D01*
X151503295Y-92879385D01*
X151386739Y-92966739D01*
X151299385Y-93083295D01*
X151248255Y-93219684D01*
X151241500Y-93281866D01*
X151241500Y-94678134D01*
X151248255Y-94740316D01*
X151299385Y-94876705D01*
X151386739Y-94993261D01*
X151503295Y-95080615D01*
X151639684Y-95131745D01*
X151701866Y-95138500D01*
X152121190Y-95138500D01*
X152189311Y-95158502D01*
X152235804Y-95212158D01*
X152245908Y-95282432D01*
X152216414Y-95347012D01*
X152156688Y-95385396D01*
X152142528Y-95388680D01*
X152104564Y-95395203D01*
X152104561Y-95395204D01*
X152098874Y-95396181D01*
X151899116Y-95469875D01*
X151716134Y-95578739D01*
X151556054Y-95719125D01*
X151424238Y-95886333D01*
X151325100Y-96074762D01*
X151323386Y-96080283D01*
X151323384Y-96080287D01*
X151282592Y-96211659D01*
X151261961Y-96278102D01*
X151236936Y-96489544D01*
X115471151Y-96489544D01*
X115471151Y-95671866D01*
X115464396Y-95609684D01*
X115413266Y-95473295D01*
X115325912Y-95356739D01*
X115209356Y-95269385D01*
X115072967Y-95218255D01*
X115010785Y-95211500D01*
X113314517Y-95211500D01*
X113252335Y-95218255D01*
X113115946Y-95269385D01*
X112999390Y-95356739D01*
X112912036Y-95473295D01*
X112860906Y-95609684D01*
X112854151Y-95671866D01*
X112854151Y-97368134D01*
X110165015Y-97368134D01*
X110168849Y-97364300D01*
X110183979Y-97342693D01*
X110297017Y-97181257D01*
X110300174Y-97176749D01*
X110302497Y-97171767D01*
X110302500Y-97171762D01*
X110394612Y-96974225D01*
X110394612Y-96974224D01*
X110396935Y-96969243D01*
X110413246Y-96908372D01*
X110454770Y-96753402D01*
X110454770Y-96753400D01*
X110456194Y-96748087D01*
X110476149Y-96520000D01*
X110456194Y-96291913D01*
X110452493Y-96278102D01*
X110398358Y-96076067D01*
X110398357Y-96076065D01*
X110396935Y-96070757D01*
X110394612Y-96065775D01*
X110302500Y-95868238D01*
X110302497Y-95868233D01*
X110300174Y-95863251D01*
X110168849Y-95675700D01*
X110006951Y-95513802D01*
X110002443Y-95510645D01*
X110002440Y-95510643D01*
X109838971Y-95396181D01*
X109819400Y-95382477D01*
X109814418Y-95380154D01*
X109814413Y-95380151D01*
X109616876Y-95288039D01*
X109616875Y-95288039D01*
X109611894Y-95285716D01*
X109606586Y-95284294D01*
X109606584Y-95284293D01*
X109396053Y-95227881D01*
X109396051Y-95227881D01*
X109390738Y-95226457D01*
X109162651Y-95206502D01*
X108934564Y-95226457D01*
X108929251Y-95227881D01*
X108929249Y-95227881D01*
X108718718Y-95284293D01*
X108718716Y-95284294D01*
X108713408Y-95285716D01*
X108708427Y-95288039D01*
X108708426Y-95288039D01*
X108510889Y-95380151D01*
X108510884Y-95380154D01*
X108505902Y-95382477D01*
X108486331Y-95396181D01*
X108322862Y-95510643D01*
X108322859Y-95510645D01*
X108318351Y-95513802D01*
X108156453Y-95675700D01*
X108025128Y-95863251D01*
X108022805Y-95868233D01*
X108022802Y-95868238D01*
X107930690Y-96065775D01*
X107928367Y-96070757D01*
X107926945Y-96076065D01*
X107926944Y-96076067D01*
X107872809Y-96278102D01*
X107869108Y-96291913D01*
X107849153Y-96520000D01*
X103378000Y-96520000D01*
X103378000Y-94158134D01*
X137791500Y-94158134D01*
X137798255Y-94220316D01*
X137849385Y-94356705D01*
X137936739Y-94473261D01*
X138053295Y-94560615D01*
X138189684Y-94611745D01*
X138251866Y-94618500D01*
X141148134Y-94618500D01*
X141210316Y-94611745D01*
X141346705Y-94560615D01*
X141463261Y-94473261D01*
X141550615Y-94356705D01*
X141601745Y-94220316D01*
X141608500Y-94158134D01*
X141608500Y-91261866D01*
X141601745Y-91199684D01*
X141550615Y-91063295D01*
X141463261Y-90946739D01*
X141346705Y-90859385D01*
X141210316Y-90808255D01*
X141148134Y-90801500D01*
X138251866Y-90801500D01*
X138189684Y-90808255D01*
X138053295Y-90859385D01*
X137936739Y-90946739D01*
X137849385Y-91063295D01*
X137798255Y-91199684D01*
X137791500Y-91261866D01*
X137791500Y-94158134D01*
X103378000Y-94158134D01*
X103378000Y-91440000D01*
X120606502Y-91440000D01*
X120626457Y-91668087D01*
X120685716Y-91889243D01*
X120688039Y-91894224D01*
X120688039Y-91894225D01*
X120780151Y-92091762D01*
X120780154Y-92091767D01*
X120782477Y-92096749D01*
X120913802Y-92284300D01*
X121075700Y-92446198D01*
X121080208Y-92449355D01*
X121080211Y-92449357D01*
X121121542Y-92478297D01*
X121263251Y-92577523D01*
X121268233Y-92579846D01*
X121268238Y-92579849D01*
X121465775Y-92671961D01*
X121470757Y-92674284D01*
X121476065Y-92675706D01*
X121476067Y-92675707D01*
X121686598Y-92732119D01*
X121686600Y-92732119D01*
X121691913Y-92733543D01*
X121920000Y-92753498D01*
X122148087Y-92733543D01*
X122153400Y-92732119D01*
X122153402Y-92732119D01*
X122363933Y-92675707D01*
X122363935Y-92675706D01*
X122369243Y-92674284D01*
X122374225Y-92671961D01*
X122571762Y-92579849D01*
X122571767Y-92579846D01*
X122576749Y-92577523D01*
X122718458Y-92478297D01*
X122759789Y-92449357D01*
X122759792Y-92449355D01*
X122764300Y-92446198D01*
X122926198Y-92284300D01*
X123057523Y-92096749D01*
X123059846Y-92091767D01*
X123059849Y-92091762D01*
X123151961Y-91894225D01*
X123151961Y-91894224D01*
X123154284Y-91889243D01*
X123213543Y-91668087D01*
X123233498Y-91440000D01*
X124496502Y-91440000D01*
X124516457Y-91668087D01*
X124575716Y-91889243D01*
X124578039Y-91894224D01*
X124578039Y-91894225D01*
X124670151Y-92091762D01*
X124670154Y-92091767D01*
X124672477Y-92096749D01*
X124803802Y-92284300D01*
X124965700Y-92446198D01*
X124970208Y-92449355D01*
X124970211Y-92449357D01*
X125011542Y-92478297D01*
X125153251Y-92577523D01*
X125158233Y-92579846D01*
X125158238Y-92579849D01*
X125355775Y-92671961D01*
X125360757Y-92674284D01*
X125366065Y-92675706D01*
X125366067Y-92675707D01*
X125576598Y-92732119D01*
X125576600Y-92732119D01*
X125581913Y-92733543D01*
X125810000Y-92753498D01*
X126038087Y-92733543D01*
X126043400Y-92732119D01*
X126043402Y-92732119D01*
X126253933Y-92675707D01*
X126253935Y-92675706D01*
X126259243Y-92674284D01*
X126264225Y-92671961D01*
X126461762Y-92579849D01*
X126461767Y-92579846D01*
X126466749Y-92577523D01*
X126608458Y-92478297D01*
X126649789Y-92449357D01*
X126649792Y-92449355D01*
X126654300Y-92446198D01*
X126812364Y-92288134D01*
X129501500Y-92288134D01*
X129508255Y-92350316D01*
X129559385Y-92486705D01*
X129646739Y-92603261D01*
X129763295Y-92690615D01*
X129899684Y-92741745D01*
X129961866Y-92748500D01*
X131658134Y-92748500D01*
X131720316Y-92741745D01*
X131856705Y-92690615D01*
X131973261Y-92603261D01*
X132060615Y-92486705D01*
X132111745Y-92350316D01*
X132118500Y-92288134D01*
X132118500Y-90591866D01*
X132111745Y-90529684D01*
X132060615Y-90393295D01*
X131973261Y-90276739D01*
X131856705Y-90189385D01*
X131720316Y-90138255D01*
X131658134Y-90131500D01*
X129961866Y-90131500D01*
X129899684Y-90138255D01*
X129763295Y-90189385D01*
X129646739Y-90276739D01*
X129559385Y-90393295D01*
X129508255Y-90529684D01*
X129501500Y-90591866D01*
X129501500Y-92288134D01*
X126812364Y-92288134D01*
X126816198Y-92284300D01*
X126947523Y-92096749D01*
X126949846Y-92091767D01*
X126949849Y-92091762D01*
X127041961Y-91894225D01*
X127041961Y-91894224D01*
X127044284Y-91889243D01*
X127103543Y-91668087D01*
X127123498Y-91440000D01*
X127103543Y-91211913D01*
X127044284Y-90990757D01*
X127021249Y-90941358D01*
X126949849Y-90788238D01*
X126949846Y-90788233D01*
X126947523Y-90783251D01*
X126816198Y-90595700D01*
X126654300Y-90433802D01*
X126649792Y-90430645D01*
X126649789Y-90430643D01*
X126571611Y-90375902D01*
X126466749Y-90302477D01*
X126461767Y-90300154D01*
X126461762Y-90300151D01*
X126264225Y-90208039D01*
X126264224Y-90208039D01*
X126259243Y-90205716D01*
X126253935Y-90204294D01*
X126253933Y-90204293D01*
X126043402Y-90147881D01*
X126043400Y-90147881D01*
X126038087Y-90146457D01*
X125810000Y-90126502D01*
X125581913Y-90146457D01*
X125576600Y-90147881D01*
X125576598Y-90147881D01*
X125366067Y-90204293D01*
X125366065Y-90204294D01*
X125360757Y-90205716D01*
X125355776Y-90208039D01*
X125355775Y-90208039D01*
X125158238Y-90300151D01*
X125158233Y-90300154D01*
X125153251Y-90302477D01*
X125048389Y-90375902D01*
X124970211Y-90430643D01*
X124970208Y-90430645D01*
X124965700Y-90433802D01*
X124803802Y-90595700D01*
X124672477Y-90783251D01*
X124670154Y-90788233D01*
X124670151Y-90788238D01*
X124598751Y-90941358D01*
X124575716Y-90990757D01*
X124516457Y-91211913D01*
X124496502Y-91440000D01*
X123233498Y-91440000D01*
X123213543Y-91211913D01*
X123154284Y-90990757D01*
X123131249Y-90941358D01*
X123059849Y-90788238D01*
X123059846Y-90788233D01*
X123057523Y-90783251D01*
X122926198Y-90595700D01*
X122764300Y-90433802D01*
X122759792Y-90430645D01*
X122759789Y-90430643D01*
X122681611Y-90375902D01*
X122576749Y-90302477D01*
X122571767Y-90300154D01*
X122571762Y-90300151D01*
X122374225Y-90208039D01*
X122374224Y-90208039D01*
X122369243Y-90205716D01*
X122363935Y-90204294D01*
X122363933Y-90204293D01*
X122153402Y-90147881D01*
X122153400Y-90147881D01*
X122148087Y-90146457D01*
X121920000Y-90126502D01*
X121691913Y-90146457D01*
X121686600Y-90147881D01*
X121686598Y-90147881D01*
X121476067Y-90204293D01*
X121476065Y-90204294D01*
X121470757Y-90205716D01*
X121465776Y-90208039D01*
X121465775Y-90208039D01*
X121268238Y-90300151D01*
X121268233Y-90300154D01*
X121263251Y-90302477D01*
X121158389Y-90375902D01*
X121080211Y-90430643D01*
X121080208Y-90430645D01*
X121075700Y-90433802D01*
X120913802Y-90595700D01*
X120782477Y-90783251D01*
X120780154Y-90788233D01*
X120780151Y-90788238D01*
X120708751Y-90941358D01*
X120685716Y-90990757D01*
X120626457Y-91211913D01*
X120606502Y-91440000D01*
X103378000Y-91440000D01*
X103378000Y-88900000D01*
X137406502Y-88900000D01*
X137426457Y-89128087D01*
X137427881Y-89133400D01*
X137427881Y-89133402D01*
X137437031Y-89167548D01*
X137485716Y-89349243D01*
X137488039Y-89354224D01*
X137488039Y-89354225D01*
X137580151Y-89551762D01*
X137580154Y-89551767D01*
X137582477Y-89556749D01*
X137713802Y-89744300D01*
X137875700Y-89906198D01*
X137880208Y-89909355D01*
X137880211Y-89909357D01*
X137958389Y-89964098D01*
X138063251Y-90037523D01*
X138068233Y-90039846D01*
X138068238Y-90039849D01*
X138265578Y-90131869D01*
X138270757Y-90134284D01*
X138276065Y-90135706D01*
X138276067Y-90135707D01*
X138486598Y-90192119D01*
X138486600Y-90192119D01*
X138491913Y-90193543D01*
X138720000Y-90213498D01*
X138948087Y-90193543D01*
X138953400Y-90192119D01*
X138953402Y-90192119D01*
X139163933Y-90135707D01*
X139163935Y-90135706D01*
X139169243Y-90134284D01*
X139174422Y-90131869D01*
X139371762Y-90039849D01*
X139371767Y-90039846D01*
X139376749Y-90037523D01*
X139481611Y-89964098D01*
X139559789Y-89909357D01*
X139559792Y-89909355D01*
X139564300Y-89906198D01*
X139726198Y-89744300D01*
X139857523Y-89556749D01*
X139859846Y-89551767D01*
X139859849Y-89551762D01*
X139951961Y-89354225D01*
X139951961Y-89354224D01*
X139954284Y-89349243D01*
X140002970Y-89167548D01*
X140003245Y-89166522D01*
X147597273Y-89166522D01*
X147644764Y-89343761D01*
X147648510Y-89354053D01*
X147740586Y-89551511D01*
X147746069Y-89561007D01*
X147871028Y-89739467D01*
X147878084Y-89747875D01*
X148032125Y-89901916D01*
X148040533Y-89908972D01*
X148218993Y-90033931D01*
X148228489Y-90039414D01*
X148425947Y-90131490D01*
X148436239Y-90135236D01*
X148608503Y-90181394D01*
X148622599Y-90181058D01*
X148626000Y-90173116D01*
X148626000Y-90167967D01*
X149134000Y-90167967D01*
X149137973Y-90181498D01*
X149146522Y-90182727D01*
X149323761Y-90135236D01*
X149334053Y-90131490D01*
X149531511Y-90039414D01*
X149541007Y-90033931D01*
X149719467Y-89908972D01*
X149727875Y-89901916D01*
X149881916Y-89747875D01*
X149888972Y-89739467D01*
X150013931Y-89561007D01*
X150019414Y-89551511D01*
X150111490Y-89354053D01*
X150115236Y-89343761D01*
X150161394Y-89171497D01*
X150161058Y-89157401D01*
X150153116Y-89154000D01*
X149152115Y-89154000D01*
X149136876Y-89158475D01*
X149135671Y-89159865D01*
X149134000Y-89167548D01*
X149134000Y-90167967D01*
X148626000Y-90167967D01*
X148626000Y-89172115D01*
X148621525Y-89156876D01*
X148620135Y-89155671D01*
X148612452Y-89154000D01*
X147612033Y-89154000D01*
X147598502Y-89157973D01*
X147597273Y-89166522D01*
X140003245Y-89166522D01*
X140012119Y-89133402D01*
X140012119Y-89133400D01*
X140013543Y-89128087D01*
X140033498Y-88900000D01*
X140013543Y-88671913D01*
X140003244Y-88633478D01*
X140001911Y-88628503D01*
X147598606Y-88628503D01*
X147598942Y-88642599D01*
X147606884Y-88646000D01*
X148607885Y-88646000D01*
X148623124Y-88641525D01*
X148624329Y-88640135D01*
X148626000Y-88632452D01*
X148626000Y-88627885D01*
X149134000Y-88627885D01*
X149138475Y-88643124D01*
X149139865Y-88644329D01*
X149147548Y-88646000D01*
X150147967Y-88646000D01*
X150161498Y-88642027D01*
X150162727Y-88633478D01*
X150115236Y-88456239D01*
X150111490Y-88445947D01*
X150019414Y-88248489D01*
X150013931Y-88238993D01*
X149888972Y-88060533D01*
X149881916Y-88052125D01*
X149727875Y-87898084D01*
X149719467Y-87891028D01*
X149541007Y-87766069D01*
X149531511Y-87760586D01*
X149334053Y-87668510D01*
X149323761Y-87664764D01*
X149151497Y-87618606D01*
X149137401Y-87618942D01*
X149134000Y-87626884D01*
X149134000Y-88627885D01*
X148626000Y-88627885D01*
X148626000Y-87632033D01*
X148622027Y-87618502D01*
X148613478Y-87617273D01*
X148436239Y-87664764D01*
X148425947Y-87668510D01*
X148228489Y-87760586D01*
X148218993Y-87766069D01*
X148040533Y-87891028D01*
X148032125Y-87898084D01*
X147878084Y-88052125D01*
X147871028Y-88060533D01*
X147746069Y-88238993D01*
X147740586Y-88248489D01*
X147648510Y-88445947D01*
X147644764Y-88456239D01*
X147598606Y-88628503D01*
X140001911Y-88628503D01*
X139955707Y-88456067D01*
X139955706Y-88456065D01*
X139954284Y-88450757D01*
X139859966Y-88248489D01*
X139859849Y-88248238D01*
X139859846Y-88248233D01*
X139857523Y-88243251D01*
X139726198Y-88055700D01*
X139564300Y-87893802D01*
X139559792Y-87890645D01*
X139559789Y-87890643D01*
X139481611Y-87835902D01*
X139376749Y-87762477D01*
X139371767Y-87760154D01*
X139371762Y-87760151D01*
X139174225Y-87668039D01*
X139174224Y-87668039D01*
X139169243Y-87665716D01*
X139163935Y-87664294D01*
X139163933Y-87664293D01*
X138953402Y-87607881D01*
X138953400Y-87607881D01*
X138948087Y-87606457D01*
X138720000Y-87586502D01*
X138491913Y-87606457D01*
X138486600Y-87607881D01*
X138486598Y-87607881D01*
X138276067Y-87664293D01*
X138276065Y-87664294D01*
X138270757Y-87665716D01*
X138265776Y-87668039D01*
X138265775Y-87668039D01*
X138068238Y-87760151D01*
X138068233Y-87760154D01*
X138063251Y-87762477D01*
X137958389Y-87835902D01*
X137880211Y-87890643D01*
X137880208Y-87890645D01*
X137875700Y-87893802D01*
X137713802Y-88055700D01*
X137582477Y-88243251D01*
X137580154Y-88248233D01*
X137580151Y-88248238D01*
X137580034Y-88248489D01*
X137485716Y-88450757D01*
X137484294Y-88456065D01*
X137484293Y-88456067D01*
X137436756Y-88633478D01*
X137426457Y-88671913D01*
X137406502Y-88900000D01*
X103378000Y-88900000D01*
X103378000Y-83820000D01*
X135846502Y-83820000D01*
X135866457Y-84048087D01*
X135925716Y-84269243D01*
X135928039Y-84274224D01*
X135928039Y-84274225D01*
X136020151Y-84471762D01*
X136020154Y-84471767D01*
X136022477Y-84476749D01*
X136153802Y-84664300D01*
X136315700Y-84826198D01*
X136320208Y-84829355D01*
X136320211Y-84829357D01*
X136398389Y-84884098D01*
X136503251Y-84957523D01*
X136508233Y-84959846D01*
X136508238Y-84959849D01*
X136705775Y-85051961D01*
X136710757Y-85054284D01*
X136716065Y-85055706D01*
X136716067Y-85055707D01*
X136926598Y-85112119D01*
X136926600Y-85112119D01*
X136931913Y-85113543D01*
X137160000Y-85133498D01*
X137388087Y-85113543D01*
X137393400Y-85112119D01*
X137393402Y-85112119D01*
X137603933Y-85055707D01*
X137603935Y-85055706D01*
X137609243Y-85054284D01*
X137614225Y-85051961D01*
X137811762Y-84959849D01*
X137811767Y-84959846D01*
X137816749Y-84957523D01*
X137921611Y-84884098D01*
X137999789Y-84829357D01*
X137999792Y-84829355D01*
X138004300Y-84826198D01*
X138166198Y-84664300D01*
X138297523Y-84476749D01*
X138299846Y-84471767D01*
X138299849Y-84471762D01*
X138391961Y-84274225D01*
X138391961Y-84274224D01*
X138394284Y-84269243D01*
X138453543Y-84048087D01*
X138473498Y-83820000D01*
X146006502Y-83820000D01*
X146026457Y-84048087D01*
X146085716Y-84269243D01*
X146088039Y-84274224D01*
X146088039Y-84274225D01*
X146180151Y-84471762D01*
X146180154Y-84471767D01*
X146182477Y-84476749D01*
X146313802Y-84664300D01*
X146475700Y-84826198D01*
X146480208Y-84829355D01*
X146480211Y-84829357D01*
X146558389Y-84884098D01*
X146663251Y-84957523D01*
X146668233Y-84959846D01*
X146668238Y-84959849D01*
X146865775Y-85051961D01*
X146870757Y-85054284D01*
X146876065Y-85055706D01*
X146876067Y-85055707D01*
X147086598Y-85112119D01*
X147086600Y-85112119D01*
X147091913Y-85113543D01*
X147320000Y-85133498D01*
X147548087Y-85113543D01*
X147553400Y-85112119D01*
X147553402Y-85112119D01*
X147763933Y-85055707D01*
X147763935Y-85055706D01*
X147769243Y-85054284D01*
X147774225Y-85051961D01*
X147971762Y-84959849D01*
X147971767Y-84959846D01*
X147976749Y-84957523D01*
X148081611Y-84884098D01*
X148159789Y-84829357D01*
X148159792Y-84829355D01*
X148164300Y-84826198D01*
X148326198Y-84664300D01*
X148457523Y-84476749D01*
X148459846Y-84471767D01*
X148459849Y-84471762D01*
X148551961Y-84274225D01*
X148551961Y-84274224D01*
X148554284Y-84269243D01*
X148613543Y-84048087D01*
X148633498Y-83820000D01*
X148613543Y-83591913D01*
X148612119Y-83586598D01*
X148555707Y-83376067D01*
X148555706Y-83376065D01*
X148554284Y-83370757D01*
X148551961Y-83365775D01*
X148459849Y-83168238D01*
X148459846Y-83168233D01*
X148457523Y-83163251D01*
X148326198Y-82975700D01*
X148164300Y-82813802D01*
X148159792Y-82810645D01*
X148159789Y-82810643D01*
X148080312Y-82754993D01*
X147976749Y-82682477D01*
X147971767Y-82680154D01*
X147971762Y-82680151D01*
X147774225Y-82588039D01*
X147774224Y-82588039D01*
X147769243Y-82585716D01*
X147763935Y-82584294D01*
X147763933Y-82584293D01*
X147553402Y-82527881D01*
X147553400Y-82527881D01*
X147548087Y-82526457D01*
X147320000Y-82506502D01*
X147091913Y-82526457D01*
X147086600Y-82527881D01*
X147086598Y-82527881D01*
X146876067Y-82584293D01*
X146876065Y-82584294D01*
X146870757Y-82585716D01*
X146865776Y-82588039D01*
X146865775Y-82588039D01*
X146668238Y-82680151D01*
X146668233Y-82680154D01*
X146663251Y-82682477D01*
X146559688Y-82754993D01*
X146480211Y-82810643D01*
X146480208Y-82810645D01*
X146475700Y-82813802D01*
X146313802Y-82975700D01*
X146182477Y-83163251D01*
X146180154Y-83168233D01*
X146180151Y-83168238D01*
X146088039Y-83365775D01*
X146085716Y-83370757D01*
X146084294Y-83376065D01*
X146084293Y-83376067D01*
X146027881Y-83586598D01*
X146026457Y-83591913D01*
X146006502Y-83820000D01*
X138473498Y-83820000D01*
X138453543Y-83591913D01*
X138452119Y-83586598D01*
X138395707Y-83376067D01*
X138395706Y-83376065D01*
X138394284Y-83370757D01*
X138391961Y-83365775D01*
X138299849Y-83168238D01*
X138299846Y-83168233D01*
X138297523Y-83163251D01*
X138166198Y-82975700D01*
X138004300Y-82813802D01*
X137999792Y-82810645D01*
X137999789Y-82810643D01*
X137920312Y-82754993D01*
X137816749Y-82682477D01*
X137811767Y-82680154D01*
X137811762Y-82680151D01*
X137614225Y-82588039D01*
X137614224Y-82588039D01*
X137609243Y-82585716D01*
X137603935Y-82584294D01*
X137603933Y-82584293D01*
X137393402Y-82527881D01*
X137393400Y-82527881D01*
X137388087Y-82526457D01*
X137160000Y-82506502D01*
X136931913Y-82526457D01*
X136926600Y-82527881D01*
X136926598Y-82527881D01*
X136716067Y-82584293D01*
X136716065Y-82584294D01*
X136710757Y-82585716D01*
X136705776Y-82588039D01*
X136705775Y-82588039D01*
X136508238Y-82680151D01*
X136508233Y-82680154D01*
X136503251Y-82682477D01*
X136399688Y-82754993D01*
X136320211Y-82810643D01*
X136320208Y-82810645D01*
X136315700Y-82813802D01*
X136153802Y-82975700D01*
X136022477Y-83163251D01*
X136020154Y-83168233D01*
X136020151Y-83168238D01*
X135928039Y-83365775D01*
X135925716Y-83370757D01*
X135924294Y-83376065D01*
X135924293Y-83376067D01*
X135867881Y-83586598D01*
X135866457Y-83591913D01*
X135846502Y-83820000D01*
X103378000Y-83820000D01*
X103378000Y-83244669D01*
X125842001Y-83244669D01*
X125842371Y-83251490D01*
X125847895Y-83302352D01*
X125851521Y-83317604D01*
X125896676Y-83438054D01*
X125905214Y-83453649D01*
X125981715Y-83555724D01*
X125994276Y-83568285D01*
X126096351Y-83644786D01*
X126111946Y-83653324D01*
X126232394Y-83698478D01*
X126247649Y-83702105D01*
X126298514Y-83707631D01*
X126305328Y-83708000D01*
X126727885Y-83708000D01*
X126743124Y-83703525D01*
X126744329Y-83702135D01*
X126746000Y-83694452D01*
X126746000Y-82822115D01*
X126741525Y-82806876D01*
X126740135Y-82805671D01*
X126732452Y-82804000D01*
X125860116Y-82804000D01*
X125844877Y-82808475D01*
X125843672Y-82809865D01*
X125842001Y-82817548D01*
X125842001Y-83244669D01*
X103378000Y-83244669D01*
X103378000Y-82277885D01*
X125842000Y-82277885D01*
X125846475Y-82293124D01*
X125847865Y-82294329D01*
X125855548Y-82296000D01*
X126727885Y-82296000D01*
X126743124Y-82291525D01*
X126744329Y-82290135D01*
X126746000Y-82282452D01*
X126746000Y-81410116D01*
X126741525Y-81394877D01*
X126740135Y-81393672D01*
X126732452Y-81392001D01*
X126305331Y-81392001D01*
X126298510Y-81392371D01*
X126247648Y-81397895D01*
X126232396Y-81401521D01*
X126111946Y-81446676D01*
X126096351Y-81455214D01*
X125994276Y-81531715D01*
X125981715Y-81544276D01*
X125905214Y-81646351D01*
X125896676Y-81661946D01*
X125851522Y-81782394D01*
X125847895Y-81797649D01*
X125842369Y-81848514D01*
X125842000Y-81855328D01*
X125842000Y-82277885D01*
X103378000Y-82277885D01*
X103378000Y-81677169D01*
X105592001Y-81677169D01*
X105592371Y-81683990D01*
X105597895Y-81734852D01*
X105601521Y-81750104D01*
X105646676Y-81870554D01*
X105655214Y-81886149D01*
X105731715Y-81988224D01*
X105744276Y-82000785D01*
X105846351Y-82077286D01*
X105861946Y-82085824D01*
X105982394Y-82130978D01*
X105997649Y-82134605D01*
X106048514Y-82140131D01*
X106055328Y-82140500D01*
X106677885Y-82140500D01*
X106693124Y-82136025D01*
X106694329Y-82134635D01*
X106696000Y-82126952D01*
X106696000Y-82122384D01*
X107204000Y-82122384D01*
X107208475Y-82137623D01*
X107209865Y-82138828D01*
X107217548Y-82140499D01*
X107844669Y-82140499D01*
X107851490Y-82140129D01*
X107902352Y-82134605D01*
X107917604Y-82130979D01*
X108038054Y-82085824D01*
X108053649Y-82077286D01*
X108155724Y-82000785D01*
X108168285Y-81988224D01*
X108244786Y-81886149D01*
X108253324Y-81870554D01*
X108294225Y-81761452D01*
X108336867Y-81704688D01*
X108403428Y-81679988D01*
X108472777Y-81695196D01*
X108507444Y-81723184D01*
X108532865Y-81752531D01*
X108532869Y-81752535D01*
X108536250Y-81756438D01*
X108708126Y-81899132D01*
X108901000Y-82011838D01*
X109109692Y-82091530D01*
X109114760Y-82092561D01*
X109114763Y-82092562D01*
X109209862Y-82111910D01*
X109328597Y-82136067D01*
X109333772Y-82136257D01*
X109333774Y-82136257D01*
X109546673Y-82144064D01*
X109546677Y-82144064D01*
X109551837Y-82144253D01*
X109556957Y-82143597D01*
X109556959Y-82143597D01*
X109768288Y-82116525D01*
X109768289Y-82116525D01*
X109773416Y-82115868D01*
X109778366Y-82114383D01*
X109982429Y-82053161D01*
X109982434Y-82053159D01*
X109987384Y-82051674D01*
X110187994Y-81953396D01*
X110369860Y-81823673D01*
X110417586Y-81776114D01*
X110470701Y-81723184D01*
X110528096Y-81665989D01*
X110553319Y-81630888D01*
X110658453Y-81484577D01*
X110659776Y-81485528D01*
X110706645Y-81442357D01*
X110776580Y-81430125D01*
X110842026Y-81457644D01*
X110869875Y-81489494D01*
X110929987Y-81587588D01*
X111076250Y-81756438D01*
X111248126Y-81899132D01*
X111441000Y-82011838D01*
X111649692Y-82091530D01*
X111654760Y-82092561D01*
X111654763Y-82092562D01*
X111749862Y-82111910D01*
X111868597Y-82136067D01*
X111873772Y-82136257D01*
X111873774Y-82136257D01*
X112086673Y-82144064D01*
X112086677Y-82144064D01*
X112091837Y-82144253D01*
X112096957Y-82143597D01*
X112096959Y-82143597D01*
X112308288Y-82116525D01*
X112308289Y-82116525D01*
X112313416Y-82115868D01*
X112318366Y-82114383D01*
X112522429Y-82053161D01*
X112522434Y-82053159D01*
X112527384Y-82051674D01*
X112727994Y-81953396D01*
X112909860Y-81823673D01*
X112957586Y-81776114D01*
X113010701Y-81723184D01*
X113068096Y-81665989D01*
X113093319Y-81630888D01*
X113198453Y-81484577D01*
X113199776Y-81485528D01*
X113246645Y-81442357D01*
X113316580Y-81430125D01*
X113382026Y-81457644D01*
X113409875Y-81489494D01*
X113469987Y-81587588D01*
X113616250Y-81756438D01*
X113788126Y-81899132D01*
X113981000Y-82011838D01*
X114189692Y-82091530D01*
X114194760Y-82092561D01*
X114194763Y-82092562D01*
X114289862Y-82111910D01*
X114408597Y-82136067D01*
X114413772Y-82136257D01*
X114413774Y-82136257D01*
X114626673Y-82144064D01*
X114626677Y-82144064D01*
X114631837Y-82144253D01*
X114636957Y-82143597D01*
X114636959Y-82143597D01*
X114848288Y-82116525D01*
X114848289Y-82116525D01*
X114853416Y-82115868D01*
X114858366Y-82114383D01*
X115062429Y-82053161D01*
X115062434Y-82053159D01*
X115067384Y-82051674D01*
X115267994Y-81953396D01*
X115449860Y-81823673D01*
X115497586Y-81776114D01*
X115550701Y-81723184D01*
X115608096Y-81665989D01*
X115633319Y-81630888D01*
X115738453Y-81484577D01*
X115739776Y-81485528D01*
X115786645Y-81442357D01*
X115856580Y-81430125D01*
X115922026Y-81457644D01*
X115949875Y-81489494D01*
X116009987Y-81587588D01*
X116156250Y-81756438D01*
X116328126Y-81899132D01*
X116521000Y-82011838D01*
X116729692Y-82091530D01*
X116734760Y-82092561D01*
X116734763Y-82092562D01*
X116829862Y-82111910D01*
X116948597Y-82136067D01*
X116953772Y-82136257D01*
X116953774Y-82136257D01*
X117166673Y-82144064D01*
X117166677Y-82144064D01*
X117171837Y-82144253D01*
X117176957Y-82143597D01*
X117176959Y-82143597D01*
X117388288Y-82116525D01*
X117388289Y-82116525D01*
X117393416Y-82115868D01*
X117398366Y-82114383D01*
X117602429Y-82053161D01*
X117602434Y-82053159D01*
X117607384Y-82051674D01*
X117807994Y-81953396D01*
X117989860Y-81823673D01*
X118037586Y-81776114D01*
X118090701Y-81723184D01*
X118148096Y-81665989D01*
X118173319Y-81630888D01*
X118278453Y-81484577D01*
X118279640Y-81485430D01*
X118326960Y-81441862D01*
X118396897Y-81429645D01*
X118462338Y-81457178D01*
X118490166Y-81489011D01*
X118547694Y-81582888D01*
X118553777Y-81591199D01*
X118693213Y-81752167D01*
X118700580Y-81759383D01*
X118864434Y-81895416D01*
X118872881Y-81901331D01*
X119056756Y-82008779D01*
X119066042Y-82013229D01*
X119265001Y-82089203D01*
X119274899Y-82092079D01*
X119378250Y-82113106D01*
X119392299Y-82111910D01*
X119396000Y-82101565D01*
X119396000Y-82101017D01*
X119904000Y-82101017D01*
X119908064Y-82114859D01*
X119921478Y-82116893D01*
X119928184Y-82116034D01*
X119938262Y-82113892D01*
X120142255Y-82052691D01*
X120151842Y-82048933D01*
X120343095Y-81955239D01*
X120351945Y-81949964D01*
X120525328Y-81826292D01*
X120533200Y-81819639D01*
X120684052Y-81669312D01*
X120690730Y-81661465D01*
X120818022Y-81484319D01*
X120819279Y-81485222D01*
X120866373Y-81441862D01*
X120936311Y-81429645D01*
X121001751Y-81457178D01*
X121029579Y-81489011D01*
X121089987Y-81587588D01*
X121236250Y-81756438D01*
X121408126Y-81899132D01*
X121601000Y-82011838D01*
X121809692Y-82091530D01*
X121814760Y-82092561D01*
X121814763Y-82092562D01*
X121909862Y-82111910D01*
X122028597Y-82136067D01*
X122033772Y-82136257D01*
X122033774Y-82136257D01*
X122246673Y-82144064D01*
X122246677Y-82144064D01*
X122251837Y-82144253D01*
X122256957Y-82143597D01*
X122256959Y-82143597D01*
X122468288Y-82116525D01*
X122468289Y-82116525D01*
X122473416Y-82115868D01*
X122478366Y-82114383D01*
X122682429Y-82053161D01*
X122682434Y-82053159D01*
X122687384Y-82051674D01*
X122887994Y-81953396D01*
X123069860Y-81823673D01*
X123117586Y-81776114D01*
X123170701Y-81723184D01*
X123228096Y-81665989D01*
X123253319Y-81630888D01*
X123355435Y-81488777D01*
X123358453Y-81484577D01*
X123371995Y-81457178D01*
X123455136Y-81288953D01*
X123455137Y-81288951D01*
X123457430Y-81284311D01*
X123467993Y-81249544D01*
X127106936Y-81249544D01*
X127120861Y-81462006D01*
X127122282Y-81467602D01*
X127122283Y-81467607D01*
X127151638Y-81583188D01*
X127173272Y-81668372D01*
X127175689Y-81673615D01*
X127242426Y-81818380D01*
X127254000Y-81871131D01*
X127254000Y-83689884D01*
X127258475Y-83705123D01*
X127259865Y-83706328D01*
X127267548Y-83707999D01*
X127694669Y-83707999D01*
X127701490Y-83707629D01*
X127752352Y-83702105D01*
X127767604Y-83698479D01*
X127888054Y-83653324D01*
X127903649Y-83644786D01*
X128005724Y-83568285D01*
X128018285Y-83555724D01*
X128094786Y-83453649D01*
X128103324Y-83438054D01*
X128148478Y-83317606D01*
X128152105Y-83302351D01*
X128157631Y-83251486D01*
X128158000Y-83244673D01*
X128157999Y-82823113D01*
X128178001Y-82754993D01*
X128231656Y-82708499D01*
X128301930Y-82698395D01*
X128366511Y-82727888D01*
X128406122Y-82792097D01*
X128441851Y-82932777D01*
X128443272Y-82938372D01*
X128445689Y-82943615D01*
X128482389Y-83023223D01*
X128532411Y-83131731D01*
X128655296Y-83305609D01*
X128807809Y-83454181D01*
X128812605Y-83457386D01*
X128812608Y-83457388D01*
X128884088Y-83505149D01*
X128984843Y-83572471D01*
X128990146Y-83574749D01*
X128990149Y-83574751D01*
X129173033Y-83653324D01*
X129180470Y-83656519D01*
X129256316Y-83673681D01*
X129382501Y-83702234D01*
X129382506Y-83702235D01*
X129388138Y-83703509D01*
X129393909Y-83703736D01*
X129393911Y-83703736D01*
X129455252Y-83706146D01*
X129600891Y-83711869D01*
X129606600Y-83711041D01*
X129606604Y-83711041D01*
X129805890Y-83682145D01*
X129805894Y-83682144D01*
X129811605Y-83681316D01*
X130013223Y-83612876D01*
X130198993Y-83508840D01*
X130362693Y-83372693D01*
X130498840Y-83208993D01*
X130602876Y-83023223D01*
X130671316Y-82821605D01*
X130672448Y-82813802D01*
X130701337Y-82614561D01*
X130701337Y-82614559D01*
X130701869Y-82610891D01*
X130703463Y-82550000D01*
X130691487Y-82419669D01*
X130684510Y-82343730D01*
X130684509Y-82343727D01*
X130683981Y-82337976D01*
X130682413Y-82332416D01*
X130627754Y-82138611D01*
X130627753Y-82138609D01*
X130626186Y-82133052D01*
X130620926Y-82122384D01*
X130534570Y-81947273D01*
X130532015Y-81942092D01*
X130499936Y-81899132D01*
X130424155Y-81797649D01*
X130404622Y-81771491D01*
X130248271Y-81626963D01*
X130068201Y-81513347D01*
X129870441Y-81434449D01*
X129864781Y-81433323D01*
X129864777Y-81433322D01*
X129667282Y-81394038D01*
X129667280Y-81394038D01*
X129661615Y-81392911D01*
X129655840Y-81392835D01*
X129655836Y-81392835D01*
X129599458Y-81392097D01*
X129557016Y-81391542D01*
X129489164Y-81370650D01*
X129443377Y-81316391D01*
X129433195Y-81277082D01*
X129414510Y-81073730D01*
X129414509Y-81073727D01*
X129413981Y-81067976D01*
X129403998Y-81032579D01*
X129357754Y-80868611D01*
X129357753Y-80868609D01*
X129356186Y-80863052D01*
X129262015Y-80672092D01*
X129134622Y-80501491D01*
X128978271Y-80356963D01*
X128798201Y-80243347D01*
X128600441Y-80164449D01*
X128594781Y-80163323D01*
X128594777Y-80163322D01*
X128397282Y-80124038D01*
X128397280Y-80124038D01*
X128391615Y-80122911D01*
X128385840Y-80122835D01*
X128385836Y-80122835D01*
X128279161Y-80121439D01*
X128178716Y-80120124D01*
X128173019Y-80121103D01*
X128173018Y-80121103D01*
X127974564Y-80155203D01*
X127974561Y-80155204D01*
X127968874Y-80156181D01*
X127769116Y-80229875D01*
X127746472Y-80243347D01*
X127631406Y-80311805D01*
X127586134Y-80338739D01*
X127426054Y-80479125D01*
X127294238Y-80646333D01*
X127291549Y-80651444D01*
X127291547Y-80651447D01*
X127240119Y-80749195D01*
X127195100Y-80834762D01*
X127193386Y-80840283D01*
X127193384Y-80840287D01*
X127140494Y-81010623D01*
X127131961Y-81038102D01*
X127106936Y-81249544D01*
X123467993Y-81249544D01*
X123522370Y-81070569D01*
X123551529Y-80849090D01*
X123553156Y-80782500D01*
X123534852Y-80559861D01*
X123480431Y-80343202D01*
X123391354Y-80138340D01*
X123270014Y-79950777D01*
X123119670Y-79785551D01*
X123115619Y-79782352D01*
X123115615Y-79782348D01*
X122948414Y-79650300D01*
X122948410Y-79650298D01*
X122944359Y-79647098D01*
X122908028Y-79627042D01*
X122816970Y-79576776D01*
X122748789Y-79539138D01*
X122743920Y-79537414D01*
X122743916Y-79537412D01*
X122543087Y-79466295D01*
X122543083Y-79466294D01*
X122538212Y-79464569D01*
X122533119Y-79463662D01*
X122533116Y-79463661D01*
X122323373Y-79426300D01*
X122323367Y-79426299D01*
X122318284Y-79425394D01*
X122244452Y-79424492D01*
X122100081Y-79422728D01*
X122100079Y-79422728D01*
X122094911Y-79422665D01*
X121874091Y-79456455D01*
X121661756Y-79525857D01*
X121463607Y-79629007D01*
X121459474Y-79632110D01*
X121459471Y-79632112D01*
X121376450Y-79694446D01*
X121284965Y-79763135D01*
X121130629Y-79924638D01*
X121023204Y-80082118D01*
X121022898Y-80082566D01*
X120967987Y-80127569D01*
X120897462Y-80135740D01*
X120833715Y-80104486D01*
X120813018Y-80080002D01*
X120732426Y-79955426D01*
X120726136Y-79947257D01*
X120582806Y-79789740D01*
X120575273Y-79782715D01*
X120408139Y-79650722D01*
X120399552Y-79645017D01*
X120213117Y-79542099D01*
X120203705Y-79537869D01*
X120002959Y-79466780D01*
X119992988Y-79464146D01*
X119921837Y-79451472D01*
X119908540Y-79452932D01*
X119904000Y-79467489D01*
X119904000Y-82101017D01*
X119396000Y-82101017D01*
X119396000Y-79465602D01*
X119392082Y-79452258D01*
X119377806Y-79450271D01*
X119339324Y-79456160D01*
X119329288Y-79458551D01*
X119126868Y-79524712D01*
X119117359Y-79528709D01*
X118928463Y-79627042D01*
X118919738Y-79632536D01*
X118749433Y-79760405D01*
X118741726Y-79767248D01*
X118594590Y-79921217D01*
X118588109Y-79929222D01*
X118483498Y-80082574D01*
X118428587Y-80127576D01*
X118358062Y-80135747D01*
X118294315Y-80104493D01*
X118273618Y-80080009D01*
X118192822Y-79955117D01*
X118192820Y-79955114D01*
X118190014Y-79950777D01*
X118039670Y-79785551D01*
X118035619Y-79782352D01*
X118035615Y-79782348D01*
X117868414Y-79650300D01*
X117868410Y-79650298D01*
X117864359Y-79647098D01*
X117828028Y-79627042D01*
X117736970Y-79576776D01*
X117668789Y-79539138D01*
X117663920Y-79537414D01*
X117663916Y-79537412D01*
X117463087Y-79466295D01*
X117463083Y-79466294D01*
X117458212Y-79464569D01*
X117453119Y-79463662D01*
X117453116Y-79463661D01*
X117243373Y-79426300D01*
X117243367Y-79426299D01*
X117238284Y-79425394D01*
X117164452Y-79424492D01*
X117020081Y-79422728D01*
X117020079Y-79422728D01*
X117014911Y-79422665D01*
X116794091Y-79456455D01*
X116581756Y-79525857D01*
X116383607Y-79629007D01*
X116379474Y-79632110D01*
X116379471Y-79632112D01*
X116296450Y-79694446D01*
X116204965Y-79763135D01*
X116050629Y-79924638D01*
X115943201Y-80082121D01*
X115888293Y-80127121D01*
X115817768Y-80135292D01*
X115754021Y-80104038D01*
X115733324Y-80079554D01*
X115652822Y-79955117D01*
X115652820Y-79955114D01*
X115650014Y-79950777D01*
X115499670Y-79785551D01*
X115495619Y-79782352D01*
X115495615Y-79782348D01*
X115328414Y-79650300D01*
X115328410Y-79650298D01*
X115324359Y-79647098D01*
X115288028Y-79627042D01*
X115196970Y-79576776D01*
X115128789Y-79539138D01*
X115123920Y-79537414D01*
X115123916Y-79537412D01*
X114923087Y-79466295D01*
X114923083Y-79466294D01*
X114918212Y-79464569D01*
X114913119Y-79463662D01*
X114913116Y-79463661D01*
X114703373Y-79426300D01*
X114703367Y-79426299D01*
X114698284Y-79425394D01*
X114624452Y-79424492D01*
X114480081Y-79422728D01*
X114480079Y-79422728D01*
X114474911Y-79422665D01*
X114254091Y-79456455D01*
X114041756Y-79525857D01*
X113843607Y-79629007D01*
X113839474Y-79632110D01*
X113839471Y-79632112D01*
X113756450Y-79694446D01*
X113664965Y-79763135D01*
X113510629Y-79924638D01*
X113403201Y-80082121D01*
X113348293Y-80127121D01*
X113277768Y-80135292D01*
X113214021Y-80104038D01*
X113193324Y-80079554D01*
X113112822Y-79955117D01*
X113112820Y-79955114D01*
X113110014Y-79950777D01*
X112959670Y-79785551D01*
X112955619Y-79782352D01*
X112955615Y-79782348D01*
X112788414Y-79650300D01*
X112788410Y-79650298D01*
X112784359Y-79647098D01*
X112748028Y-79627042D01*
X112656970Y-79576776D01*
X112588789Y-79539138D01*
X112583920Y-79537414D01*
X112583916Y-79537412D01*
X112383087Y-79466295D01*
X112383083Y-79466294D01*
X112378212Y-79464569D01*
X112373119Y-79463662D01*
X112373116Y-79463661D01*
X112163373Y-79426300D01*
X112163367Y-79426299D01*
X112158284Y-79425394D01*
X112084452Y-79424492D01*
X111940081Y-79422728D01*
X111940079Y-79422728D01*
X111934911Y-79422665D01*
X111714091Y-79456455D01*
X111501756Y-79525857D01*
X111303607Y-79629007D01*
X111299474Y-79632110D01*
X111299471Y-79632112D01*
X111216450Y-79694446D01*
X111124965Y-79763135D01*
X110970629Y-79924638D01*
X110863201Y-80082121D01*
X110808293Y-80127121D01*
X110737768Y-80135292D01*
X110674021Y-80104038D01*
X110653324Y-80079554D01*
X110572822Y-79955117D01*
X110572820Y-79955114D01*
X110570014Y-79950777D01*
X110419670Y-79785551D01*
X110415619Y-79782352D01*
X110415615Y-79782348D01*
X110248414Y-79650300D01*
X110248410Y-79650298D01*
X110244359Y-79647098D01*
X110208028Y-79627042D01*
X110116970Y-79576776D01*
X110048789Y-79539138D01*
X110043920Y-79537414D01*
X110043916Y-79537412D01*
X109843087Y-79466295D01*
X109843083Y-79466294D01*
X109838212Y-79464569D01*
X109833119Y-79463662D01*
X109833116Y-79463661D01*
X109623373Y-79426300D01*
X109623367Y-79426299D01*
X109618284Y-79425394D01*
X109544452Y-79424492D01*
X109400081Y-79422728D01*
X109400079Y-79422728D01*
X109394911Y-79422665D01*
X109174091Y-79456455D01*
X108961756Y-79525857D01*
X108763607Y-79629007D01*
X108759474Y-79632110D01*
X108759471Y-79632112D01*
X108676450Y-79694446D01*
X108584965Y-79763135D01*
X108581393Y-79766873D01*
X108503898Y-79847966D01*
X108442374Y-79883395D01*
X108371462Y-79879938D01*
X108313676Y-79838692D01*
X108294823Y-79805144D01*
X108253324Y-79694446D01*
X108244786Y-79678851D01*
X108168285Y-79576776D01*
X108155724Y-79564215D01*
X108053649Y-79487714D01*
X108038054Y-79479176D01*
X107917606Y-79434022D01*
X107902351Y-79430395D01*
X107851486Y-79424869D01*
X107844672Y-79424500D01*
X107222115Y-79424500D01*
X107206876Y-79428975D01*
X107205671Y-79430365D01*
X107204000Y-79438048D01*
X107204000Y-82122384D01*
X106696000Y-82122384D01*
X106696000Y-81054615D01*
X106691525Y-81039376D01*
X106690135Y-81038171D01*
X106682452Y-81036500D01*
X105610116Y-81036500D01*
X105594877Y-81040975D01*
X105593672Y-81042365D01*
X105592001Y-81050048D01*
X105592001Y-81677169D01*
X103378000Y-81677169D01*
X103378000Y-80510385D01*
X105592000Y-80510385D01*
X105596475Y-80525624D01*
X105597865Y-80526829D01*
X105605548Y-80528500D01*
X106677885Y-80528500D01*
X106693124Y-80524025D01*
X106694329Y-80522635D01*
X106696000Y-80514952D01*
X106696000Y-79442616D01*
X106691525Y-79427377D01*
X106690135Y-79426172D01*
X106682452Y-79424501D01*
X106055331Y-79424501D01*
X106048510Y-79424871D01*
X105997648Y-79430395D01*
X105982396Y-79434021D01*
X105861946Y-79479176D01*
X105846351Y-79487714D01*
X105744276Y-79564215D01*
X105731715Y-79576776D01*
X105655214Y-79678851D01*
X105646676Y-79694446D01*
X105601522Y-79814894D01*
X105597895Y-79830149D01*
X105592369Y-79881014D01*
X105592000Y-79887828D01*
X105592000Y-80510385D01*
X103378000Y-80510385D01*
X103378000Y-77436695D01*
X125637251Y-77436695D01*
X125650110Y-77659715D01*
X125651247Y-77664761D01*
X125651248Y-77664767D01*
X125675304Y-77771508D01*
X125699222Y-77877639D01*
X125783266Y-78084616D01*
X125899987Y-78275088D01*
X126046250Y-78443938D01*
X126218126Y-78586632D01*
X126411000Y-78699338D01*
X126619692Y-78779030D01*
X126624760Y-78780061D01*
X126624763Y-78780062D01*
X126732017Y-78801883D01*
X126838597Y-78823567D01*
X126843772Y-78823757D01*
X126843774Y-78823757D01*
X127056673Y-78831564D01*
X127056677Y-78831564D01*
X127061837Y-78831753D01*
X127066957Y-78831097D01*
X127066959Y-78831097D01*
X127278288Y-78804025D01*
X127278289Y-78804025D01*
X127283416Y-78803368D01*
X127288366Y-78801883D01*
X127492429Y-78740661D01*
X127492434Y-78740659D01*
X127497384Y-78739174D01*
X127697994Y-78640896D01*
X127879860Y-78511173D01*
X127988091Y-78403319D01*
X128050462Y-78369404D01*
X128121268Y-78374592D01*
X128178030Y-78417238D01*
X128195012Y-78448341D01*
X128239385Y-78566705D01*
X128326739Y-78683261D01*
X128443295Y-78770615D01*
X128579684Y-78821745D01*
X128641866Y-78828500D01*
X130438134Y-78828500D01*
X130500316Y-78821745D01*
X130636705Y-78770615D01*
X130753261Y-78683261D01*
X130840615Y-78566705D01*
X130891745Y-78430316D01*
X130898500Y-78368134D01*
X130898500Y-76571866D01*
X130891745Y-76509684D01*
X130840615Y-76373295D01*
X130753261Y-76256739D01*
X130636705Y-76169385D01*
X130500316Y-76118255D01*
X130438134Y-76111500D01*
X128641866Y-76111500D01*
X128579684Y-76118255D01*
X128443295Y-76169385D01*
X128326739Y-76256739D01*
X128239385Y-76373295D01*
X128236233Y-76381703D01*
X128194919Y-76491907D01*
X128152277Y-76548671D01*
X128085716Y-76573371D01*
X128016367Y-76558163D01*
X127983743Y-76532476D01*
X127933151Y-76476875D01*
X127933142Y-76476866D01*
X127929670Y-76473051D01*
X127925619Y-76469852D01*
X127925615Y-76469848D01*
X127758414Y-76337800D01*
X127758410Y-76337798D01*
X127754359Y-76334598D01*
X127558789Y-76226638D01*
X127553920Y-76224914D01*
X127553916Y-76224912D01*
X127353087Y-76153795D01*
X127353083Y-76153794D01*
X127348212Y-76152069D01*
X127343119Y-76151162D01*
X127343116Y-76151161D01*
X127133373Y-76113800D01*
X127133367Y-76113799D01*
X127128284Y-76112894D01*
X127054452Y-76111992D01*
X126910081Y-76110228D01*
X126910079Y-76110228D01*
X126904911Y-76110165D01*
X126684091Y-76143955D01*
X126471756Y-76213357D01*
X126273607Y-76316507D01*
X126269474Y-76319610D01*
X126269471Y-76319612D01*
X126099100Y-76447530D01*
X126094965Y-76450635D01*
X126055525Y-76491907D01*
X126001280Y-76548671D01*
X125940629Y-76612138D01*
X125814743Y-76796680D01*
X125720688Y-76999305D01*
X125660989Y-77214570D01*
X125637251Y-77436695D01*
X103378000Y-77436695D01*
X103378000Y-74294000D01*
X103398002Y-74225879D01*
X103451658Y-74179386D01*
X103504000Y-74168000D01*
X187326000Y-74168000D01*
X187394121Y-74188002D01*
G37*
%TD.AperFunction*%
%TD*%
M02*
