%TF.GenerationSoftware,KiCad,Pcbnew,(6.0.0)*%
%TF.CreationDate,2022-08-29T20:46:27+02:00*%
%TF.ProjectId,AV_MOD_FAMICOM,41565f4d-4f44-45f4-9641-4d49434f4d2e,rev?*%
%TF.SameCoordinates,Original*%
%TF.FileFunction,Soldermask,Top*%
%TF.FilePolarity,Negative*%
%FSLAX46Y46*%
G04 Gerber Fmt 4.6, Leading zero omitted, Abs format (unit mm)*
G04 Created by KiCad (PCBNEW (6.0.0)) date 2022-08-29 20:46:27*
%MOMM*%
%LPD*%
G01*
G04 APERTURE LIST*
%ADD10C,1.600000*%
%ADD11O,1.600000X1.600000*%
%ADD12R,1.700000X1.700000*%
%ADD13O,1.700000X1.700000*%
%ADD14R,1.600000X1.600000*%
%ADD15R,1.428000X1.428000*%
%ADD16C,1.428000*%
%ADD17C,3.316000*%
%ADD18R,2.800000X2.800000*%
%ADD19O,2.800000X2.800000*%
%ADD20R,1.300000X1.300000*%
%ADD21C,1.300000*%
G04 APERTURE END LIST*
D10*
%TO.C,R4*%
X121920000Y-91440000D03*
D11*
X121920000Y-101600000D03*
%TD*%
D12*
%TO.C,J5*%
X106950000Y-80782500D03*
D13*
X109490000Y-80782500D03*
X112030000Y-80782500D03*
X114570000Y-80782500D03*
X117110000Y-80782500D03*
X119650000Y-80782500D03*
X122190000Y-80782500D03*
%TD*%
D14*
%TO.C,C1*%
X130810000Y-91440000D03*
D10*
X125810000Y-91440000D03*
%TD*%
%TO.C,R3*%
X138720000Y-88900000D03*
D11*
X148880000Y-88900000D03*
%TD*%
D15*
%TO.C,J2*%
X174300000Y-104140000D03*
D16*
X176800000Y-104140000D03*
X178800000Y-104140000D03*
X181300000Y-104140000D03*
D17*
X171230000Y-106850000D03*
X184370000Y-106850000D03*
%TD*%
D14*
%TO.C,C2*%
X114162651Y-96520000D03*
D10*
X109162651Y-96520000D03*
%TD*%
D18*
%TO.C,D1*%
X139700000Y-92710000D03*
D19*
X139700000Y-105410000D03*
%TD*%
D10*
%TO.C,R1*%
X153690000Y-105410000D03*
D11*
X143530000Y-105410000D03*
%TD*%
D12*
%TO.C,J3*%
X129540000Y-77470000D03*
D13*
X127000000Y-77470000D03*
%TD*%
D15*
%TO.C,J1*%
X109750000Y-103970000D03*
D16*
X112250000Y-103970000D03*
X114250000Y-103970000D03*
X116750000Y-103970000D03*
D17*
X106680000Y-106680000D03*
X119820000Y-106680000D03*
%TD*%
D20*
%TO.C,Q1*%
X127000000Y-82550000D03*
D21*
X128270000Y-81280000D03*
X129540000Y-82550000D03*
%TD*%
D20*
%TO.C,Q2*%
X152400000Y-93980000D03*
D21*
X153670000Y-95250000D03*
X152400000Y-96520000D03*
%TD*%
D10*
%TO.C,R2*%
X147320000Y-83820000D03*
D11*
X137160000Y-83820000D03*
%TD*%
M02*
