M48
; DRILL file {KiCad (6.0.0)} date Sun Sep  4 03:26:41 2022
; FORMAT={-:-/ absolute / inch / decimal}
; #@! TF.CreationDate,2022-09-04T03:26:41+02:00
; #@! TF.GenerationSoftware,Kicad,Pcbnew,(6.0.0)
; #@! TF.FileFunction,Plated,1,2,PTH
FMAT,2
INCH
; #@! TA.AperFunction,Plated,PTH,ComponentDrill
T1C0.0295
; #@! TA.AperFunction,Plated,PTH,ComponentDrill
T2C0.0315
; #@! TA.AperFunction,Plated,PTH,ComponentDrill
T3C0.0362
; #@! TA.AperFunction,Plated,PTH,ComponentDrill
T4C0.0394
; #@! TA.AperFunction,Plated,PTH,ComponentDrill
T5C0.0551
; #@! TA.AperFunction,Plated,PTH,ComponentDrill
T6C0.0906
%
G90
G05
T1
X5.0Y-3.25
X5.05Y-3.2
X5.1Y-3.25
X6.0Y-3.7
X6.0Y-3.8
X6.05Y-3.75
T2
X4.2977Y-3.8
X4.4946Y-3.8
X4.8Y-3.6
X4.8Y-4.0
X4.9531Y-3.6
X5.15Y-3.6
X5.4Y-3.3
X5.4614Y-3.5
X5.6508Y-4.15
X5.8Y-3.3
X5.8614Y-3.5
X6.0508Y-4.15
T3
X4.3209Y-4.0933
X4.4193Y-4.0933
X4.498Y-4.0933
X4.5965Y-4.0933
X6.8622Y-4.1
X6.9606Y-4.1
X7.0394Y-4.1
X7.1378Y-4.1
T4
X4.2106Y-3.1804
X4.3106Y-3.1804
X4.4106Y-3.1804
X4.5106Y-3.1804
X4.6106Y-3.1804
X4.7106Y-3.1804
X4.8106Y-3.1804
X5.0Y-3.05
X5.1Y-3.05
T5
X5.5Y-3.65
X5.5Y-4.15
T6
X4.2Y-4.2
X4.7173Y-4.2
X6.7413Y-4.2067
X7.2587Y-4.2067
T0
M30
