%TF.GenerationSoftware,KiCad,Pcbnew,(6.0.8-1)-1*%
%TF.CreationDate,2022-12-02T23:57:04+01:00*%
%TF.ProjectId,AV_MOD_FAMICOM,41565f4d-4f44-45f4-9641-4d49434f4d2e,rev?*%
%TF.SameCoordinates,Original*%
%TF.FileFunction,Copper,L1,Top*%
%TF.FilePolarity,Positive*%
%FSLAX46Y46*%
G04 Gerber Fmt 4.6, Leading zero omitted, Abs format (unit mm)*
G04 Created by KiCad (PCBNEW (6.0.8-1)-1) date 2022-12-02 23:57:04*
%MOMM*%
%LPD*%
G01*
G04 APERTURE LIST*
G04 Aperture macros list*
%AMRoundRect*
0 Rectangle with rounded corners*
0 $1 Rounding radius*
0 $2 $3 $4 $5 $6 $7 $8 $9 X,Y pos of 4 corners*
0 Add a 4 corners polygon primitive as box body*
4,1,4,$2,$3,$4,$5,$6,$7,$8,$9,$2,$3,0*
0 Add four circle primitives for the rounded corners*
1,1,$1+$1,$2,$3*
1,1,$1+$1,$4,$5*
1,1,$1+$1,$6,$7*
1,1,$1+$1,$8,$9*
0 Add four rect primitives between the rounded corners*
20,1,$1+$1,$2,$3,$4,$5,0*
20,1,$1+$1,$4,$5,$6,$7,0*
20,1,$1+$1,$6,$7,$8,$9,0*
20,1,$1+$1,$8,$9,$2,$3,0*%
G04 Aperture macros list end*
%TA.AperFunction,ComponentPad*%
%ADD10R,1.100000X1.800000*%
%TD*%
%TA.AperFunction,ComponentPad*%
%ADD11RoundRect,0.275000X-0.275000X-0.625000X0.275000X-0.625000X0.275000X0.625000X-0.275000X0.625000X0*%
%TD*%
%TA.AperFunction,ComponentPad*%
%ADD12R,1.428000X1.428000*%
%TD*%
%TA.AperFunction,ComponentPad*%
%ADD13C,1.428000*%
%TD*%
%TA.AperFunction,ComponentPad*%
%ADD14C,3.316000*%
%TD*%
%TA.AperFunction,ComponentPad*%
%ADD15R,1.700000X1.700000*%
%TD*%
%TA.AperFunction,ComponentPad*%
%ADD16O,1.700000X1.700000*%
%TD*%
%TA.AperFunction,ComponentPad*%
%ADD17R,1.600000X1.600000*%
%TD*%
%TA.AperFunction,ComponentPad*%
%ADD18C,1.600000*%
%TD*%
%TA.AperFunction,ComponentPad*%
%ADD19O,1.600000X1.600000*%
%TD*%
G04 APERTURE END LIST*
D10*
%TO.P,Q1,1,C*%
%TO.N,GNDREF*%
X194310000Y-46120000D03*
D11*
%TO.P,Q1,2,B*%
%TO.N,VIDEO IN*%
X195580000Y-44050000D03*
%TO.P,Q1,3,E*%
%TO.N,Net-(Q1-Pad3)*%
X196850000Y-46120000D03*
%TD*%
D12*
%TO.P,J2,01,VCC*%
%TO.N,+5V*%
X173030000Y-55710000D03*
D13*
%TO.P,J2,02,D-*%
%TO.N,GNDREF*%
X175530000Y-55710000D03*
%TO.P,J2,03,D+*%
X177530000Y-55710000D03*
%TO.P,J2,04,GND*%
X180030000Y-55710000D03*
D14*
%TO.P,J2,S1,SHIELD*%
X169960000Y-58420000D03*
%TO.P,J2,S2,SHIELD*%
X183100000Y-58420000D03*
%TD*%
D15*
%TO.P,J3,1,Pin_1*%
%TO.N,+5V*%
X171450000Y-45720000D03*
D16*
%TO.P,J3,2,Pin_2*%
%TO.N,Net-(J3-Pad2)*%
X171450000Y-43180000D03*
%TD*%
D17*
%TO.P,C2,1*%
%TO.N,AUDIO*%
X201930000Y-48260000D03*
D18*
%TO.P,C2,2*%
%TO.N,AUDIO L*%
X206930000Y-48260000D03*
%TD*%
D12*
%TO.P,J1,01,VCC*%
%TO.N,AUDIO L*%
X209590000Y-55710000D03*
D13*
%TO.P,J1,02,D-*%
X212090000Y-55710000D03*
%TO.P,J1,03,D+*%
%TO.N,VIDEO OUT*%
X214090000Y-55710000D03*
%TO.P,J1,04,GND*%
%TO.N,GNDREF*%
X216590000Y-55710000D03*
D14*
%TO.P,J1,S1,SHIELD*%
X206520000Y-58420000D03*
%TO.P,J1,S2,SHIELD*%
X219660000Y-58420000D03*
%TD*%
D18*
%TO.P,R2,1*%
%TO.N,Net-(C1-Pad1)*%
X186690000Y-50800000D03*
D19*
%TO.P,R2,2*%
%TO.N,Net-(Q1-Pad3)*%
X196850000Y-50800000D03*
%TD*%
D17*
%TO.P,C1,1*%
%TO.N,Net-(C1-Pad1)*%
X194310000Y-60960000D03*
D18*
%TO.P,C1,2*%
%TO.N,VIDEO OUT*%
X199310000Y-60960000D03*
%TD*%
%TO.P,R1,1*%
%TO.N,+5V*%
X171450000Y-50800000D03*
D19*
%TO.P,R1,2*%
%TO.N,Net-(C1-Pad1)*%
X181610000Y-50800000D03*
%TD*%
D15*
%TO.P,J5,1,Pin_1*%
%TO.N,GNDREF*%
X189210000Y-38125000D03*
D16*
%TO.P,J5,2,Pin_2*%
%TO.N,Net-(J3-Pad2)*%
X186670000Y-38125000D03*
%TO.P,J5,3,Pin_3*%
X184130000Y-38125000D03*
%TO.P,J5,4,Pin_4*%
X181590000Y-38125000D03*
%TO.P,J5,5,Pin_5*%
%TO.N,AUDIO*%
X179050000Y-38125000D03*
%TO.P,J5,6,Pin_6*%
%TO.N,GNDREF*%
X176510000Y-38125000D03*
%TO.P,J5,7,Pin_7*%
%TO.N,VIDEO IN*%
X173970000Y-38125000D03*
%TD*%
%TA.AperFunction,Conductor*%
%TO.N,GNDREF*%
G36*
X221191621Y-34040502D02*
G01*
X221238114Y-34094158D01*
X221249500Y-34146500D01*
X221249500Y-56655966D01*
X221229498Y-56724087D01*
X221175842Y-56770580D01*
X221105568Y-56780684D01*
X221043694Y-56753470D01*
X220920973Y-56653024D01*
X220914001Y-56648069D01*
X220669506Y-56498242D01*
X220661908Y-56494270D01*
X220399349Y-56379014D01*
X220391295Y-56376115D01*
X220115519Y-56297559D01*
X220107141Y-56295777D01*
X219823256Y-56255374D01*
X219814709Y-56254747D01*
X219527965Y-56253245D01*
X219519430Y-56253782D01*
X219235130Y-56291211D01*
X219226732Y-56292904D01*
X218950155Y-56368567D01*
X218942060Y-56371386D01*
X218678301Y-56483888D01*
X218670679Y-56487773D01*
X218424630Y-56635030D01*
X218417598Y-56639917D01*
X218332650Y-56707973D01*
X218324181Y-56720096D01*
X218330577Y-56731366D01*
X219930115Y-58330905D01*
X219964141Y-58393217D01*
X219959076Y-58464033D01*
X219930115Y-58509095D01*
X219660000Y-58779210D01*
X218330742Y-60108469D01*
X218323450Y-60121823D01*
X218330505Y-60131796D01*
X218380586Y-60173669D01*
X218387523Y-60178709D01*
X218630418Y-60331077D01*
X218637984Y-60335134D01*
X218899316Y-60453129D01*
X218907346Y-60456116D01*
X219182285Y-60537557D01*
X219190637Y-60539424D01*
X219474089Y-60582798D01*
X219482622Y-60583514D01*
X219769334Y-60588019D01*
X219777885Y-60587570D01*
X220062558Y-60553121D01*
X220070958Y-60551519D01*
X220348337Y-60478750D01*
X220356439Y-60476023D01*
X220621365Y-60366287D01*
X220629033Y-60362481D01*
X220876614Y-60217806D01*
X220883695Y-60212993D01*
X221045754Y-60085923D01*
X221111702Y-60059631D01*
X221181396Y-60073166D01*
X221232709Y-60122233D01*
X221249500Y-60185077D01*
X221249500Y-67453500D01*
X221229498Y-67521621D01*
X221175842Y-67568114D01*
X221123500Y-67579500D01*
X167496500Y-67579500D01*
X167428379Y-67559498D01*
X167381886Y-67505842D01*
X167370500Y-67453500D01*
X167370500Y-61817816D01*
X192509500Y-61817816D01*
X192509749Y-61820603D01*
X192509749Y-61820609D01*
X192517411Y-61906455D01*
X192520234Y-61938087D01*
X192576259Y-62133470D01*
X192670427Y-62313596D01*
X192674458Y-62318539D01*
X192674459Y-62318540D01*
X192688465Y-62335713D01*
X192798891Y-62471109D01*
X192956404Y-62599573D01*
X192962057Y-62602528D01*
X192962058Y-62602529D01*
X192990389Y-62617340D01*
X193136530Y-62693741D01*
X193331913Y-62749766D01*
X193363545Y-62752589D01*
X193449391Y-62760251D01*
X193449397Y-62760251D01*
X193452184Y-62760500D01*
X195167816Y-62760500D01*
X195170603Y-62760251D01*
X195170609Y-62760251D01*
X195256455Y-62752589D01*
X195288087Y-62749766D01*
X195483470Y-62693741D01*
X195629611Y-62617340D01*
X195657942Y-62602529D01*
X195657943Y-62602528D01*
X195663596Y-62599573D01*
X195821109Y-62471109D01*
X195931535Y-62335713D01*
X195945541Y-62318540D01*
X195945542Y-62318539D01*
X195949573Y-62313596D01*
X196043741Y-62133470D01*
X196099766Y-61938087D01*
X196102589Y-61906455D01*
X196110251Y-61820609D01*
X196110251Y-61820603D01*
X196110500Y-61817816D01*
X196110500Y-60912736D01*
X197505070Y-60912736D01*
X197517909Y-61180041D01*
X197570118Y-61442512D01*
X197660549Y-61694383D01*
X197662765Y-61698507D01*
X197730982Y-61825465D01*
X197787215Y-61930121D01*
X197790010Y-61933864D01*
X197790012Y-61933867D01*
X197944542Y-62140807D01*
X197947335Y-62144547D01*
X197950642Y-62147825D01*
X197950647Y-62147831D01*
X198134074Y-62329663D01*
X198137390Y-62332950D01*
X198353205Y-62491192D01*
X198357340Y-62493368D01*
X198357344Y-62493370D01*
X198486918Y-62561542D01*
X198590039Y-62615797D01*
X198594458Y-62617340D01*
X198838273Y-62702484D01*
X198838279Y-62702486D01*
X198842690Y-62704026D01*
X198847283Y-62704898D01*
X199086413Y-62750299D01*
X199105606Y-62753943D01*
X199232616Y-62758933D01*
X199368345Y-62764266D01*
X199368350Y-62764266D01*
X199373013Y-62764449D01*
X199468943Y-62753943D01*
X199634382Y-62735825D01*
X199634387Y-62735824D01*
X199639035Y-62735315D01*
X199754567Y-62704898D01*
X199893309Y-62668370D01*
X199897829Y-62667180D01*
X200022501Y-62613617D01*
X200139407Y-62563391D01*
X200139410Y-62563389D01*
X200143710Y-62561542D01*
X200147690Y-62559079D01*
X200147694Y-62559077D01*
X200367302Y-62423179D01*
X200367306Y-62423176D01*
X200371275Y-62420720D01*
X200385010Y-62409092D01*
X200571960Y-62250828D01*
X200571961Y-62250827D01*
X200575526Y-62247809D01*
X200681182Y-62127332D01*
X200748894Y-62050122D01*
X200748898Y-62050117D01*
X200751976Y-62046607D01*
X200821778Y-61938087D01*
X200894219Y-61825465D01*
X200894222Y-61825460D01*
X200896747Y-61821534D01*
X201006661Y-61577534D01*
X201079302Y-61319969D01*
X201097103Y-61180041D01*
X201112677Y-61057625D01*
X201112677Y-61057621D01*
X201113075Y-61054495D01*
X201115549Y-60960000D01*
X201095717Y-60693123D01*
X201085161Y-60646470D01*
X201037686Y-60436666D01*
X201036655Y-60432109D01*
X201017471Y-60382776D01*
X200941355Y-60187044D01*
X200941354Y-60187042D01*
X200939662Y-60182691D01*
X200934506Y-60173669D01*
X200904873Y-60121823D01*
X205183450Y-60121823D01*
X205190504Y-60131795D01*
X205240586Y-60173669D01*
X205247523Y-60178709D01*
X205490418Y-60331077D01*
X205497984Y-60335134D01*
X205759316Y-60453129D01*
X205767346Y-60456116D01*
X206042285Y-60537557D01*
X206050637Y-60539424D01*
X206334089Y-60582798D01*
X206342622Y-60583514D01*
X206629334Y-60588019D01*
X206637885Y-60587570D01*
X206922558Y-60553121D01*
X206930958Y-60551519D01*
X207208337Y-60478750D01*
X207216439Y-60476023D01*
X207481365Y-60366287D01*
X207489033Y-60362481D01*
X207736614Y-60217806D01*
X207743695Y-60212993D01*
X207847194Y-60131840D01*
X207855665Y-60119980D01*
X207849149Y-60108359D01*
X206532812Y-58792022D01*
X206518868Y-58784408D01*
X206517035Y-58784539D01*
X206510420Y-58788790D01*
X205190742Y-60108469D01*
X205183450Y-60121823D01*
X200904873Y-60121823D01*
X200869327Y-60059631D01*
X200806868Y-59950350D01*
X200641190Y-59740189D01*
X200446269Y-59556825D01*
X200226385Y-59404286D01*
X200222194Y-59402219D01*
X199990559Y-59287989D01*
X199990556Y-59287988D01*
X199986371Y-59285924D01*
X199921477Y-59265151D01*
X199735942Y-59205761D01*
X199735944Y-59205761D01*
X199731497Y-59204338D01*
X199518814Y-59169701D01*
X199471976Y-59162073D01*
X199471975Y-59162073D01*
X199467364Y-59161322D01*
X199328184Y-59159500D01*
X199204451Y-59157880D01*
X199204448Y-59157880D01*
X199199774Y-59157819D01*
X198934605Y-59193907D01*
X198930118Y-59195215D01*
X198930117Y-59195215D01*
X198898817Y-59204338D01*
X198677683Y-59268792D01*
X198673430Y-59270752D01*
X198673429Y-59270753D01*
X198621512Y-59294687D01*
X198434652Y-59380831D01*
X198430743Y-59383394D01*
X198214764Y-59524996D01*
X198214759Y-59525000D01*
X198210851Y-59527562D01*
X198011197Y-59705760D01*
X197840075Y-59911512D01*
X197837652Y-59915505D01*
X197706404Y-60131795D01*
X197701244Y-60140298D01*
X197699437Y-60144606D01*
X197699437Y-60144607D01*
X197606479Y-60366287D01*
X197597755Y-60387091D01*
X197596604Y-60391623D01*
X197596603Y-60391626D01*
X197533033Y-60641933D01*
X197531881Y-60646470D01*
X197505070Y-60912736D01*
X196110500Y-60912736D01*
X196110500Y-60102184D01*
X196099766Y-59981913D01*
X196043741Y-59786530D01*
X195949573Y-59606404D01*
X195933559Y-59586768D01*
X195825138Y-59453831D01*
X195821109Y-59448891D01*
X195816169Y-59444862D01*
X195668540Y-59324459D01*
X195668539Y-59324458D01*
X195663596Y-59320427D01*
X195483470Y-59226259D01*
X195288087Y-59170234D01*
X195256455Y-59167411D01*
X195170609Y-59159749D01*
X195170603Y-59159749D01*
X195167816Y-59159500D01*
X193452184Y-59159500D01*
X193449397Y-59159749D01*
X193449391Y-59159749D01*
X193363545Y-59167411D01*
X193331913Y-59170234D01*
X193136530Y-59226259D01*
X192956404Y-59320427D01*
X192951461Y-59324458D01*
X192951460Y-59324459D01*
X192803831Y-59444862D01*
X192798891Y-59448891D01*
X192794862Y-59453831D01*
X192686442Y-59586768D01*
X192670427Y-59606404D01*
X192576259Y-59786530D01*
X192520234Y-59981913D01*
X192509500Y-60102184D01*
X192509500Y-61817816D01*
X167370500Y-61817816D01*
X167370500Y-60121823D01*
X168623450Y-60121823D01*
X168630504Y-60131795D01*
X168680586Y-60173669D01*
X168687523Y-60178709D01*
X168930418Y-60331077D01*
X168937984Y-60335134D01*
X169199316Y-60453129D01*
X169207346Y-60456116D01*
X169482285Y-60537557D01*
X169490637Y-60539424D01*
X169774089Y-60582798D01*
X169782622Y-60583514D01*
X170069334Y-60588019D01*
X170077885Y-60587570D01*
X170362558Y-60553121D01*
X170370958Y-60551519D01*
X170648337Y-60478750D01*
X170656439Y-60476023D01*
X170921365Y-60366287D01*
X170929033Y-60362481D01*
X171176614Y-60217806D01*
X171183695Y-60212993D01*
X171287194Y-60131840D01*
X171294349Y-60121823D01*
X181763450Y-60121823D01*
X181770504Y-60131795D01*
X181820586Y-60173669D01*
X181827523Y-60178709D01*
X182070418Y-60331077D01*
X182077984Y-60335134D01*
X182339316Y-60453129D01*
X182347346Y-60456116D01*
X182622285Y-60537557D01*
X182630637Y-60539424D01*
X182914089Y-60582798D01*
X182922622Y-60583514D01*
X183209334Y-60588019D01*
X183217885Y-60587570D01*
X183502558Y-60553121D01*
X183510958Y-60551519D01*
X183788337Y-60478750D01*
X183796439Y-60476023D01*
X184061365Y-60366287D01*
X184069033Y-60362481D01*
X184316614Y-60217806D01*
X184323695Y-60212993D01*
X184427194Y-60131840D01*
X184435665Y-60119980D01*
X184429149Y-60108359D01*
X183112812Y-58792022D01*
X183098868Y-58784408D01*
X183097035Y-58784539D01*
X183090420Y-58788790D01*
X181770742Y-60108469D01*
X181763450Y-60121823D01*
X171294349Y-60121823D01*
X171295665Y-60119980D01*
X171289149Y-60108359D01*
X169972812Y-58792022D01*
X169958868Y-58784408D01*
X169957035Y-58784539D01*
X169950420Y-58788790D01*
X168630742Y-60108469D01*
X168623450Y-60121823D01*
X167370500Y-60121823D01*
X167370500Y-58401545D01*
X167789305Y-58401545D01*
X167805811Y-58687819D01*
X167806884Y-58696318D01*
X167862091Y-58977705D01*
X167864304Y-58985967D01*
X167957190Y-59257264D01*
X167960506Y-59265151D01*
X168089350Y-59521329D01*
X168093706Y-59528695D01*
X168245721Y-59749876D01*
X168255974Y-59758220D01*
X168269715Y-59751074D01*
X169587980Y-58432810D01*
X169595592Y-58418869D01*
X169595461Y-58417034D01*
X169591210Y-58410420D01*
X168270601Y-57089812D01*
X168258590Y-57083253D01*
X168246852Y-57092220D01*
X168117339Y-57272457D01*
X168112817Y-57279751D01*
X167978648Y-57533153D01*
X167975162Y-57540981D01*
X167876619Y-57810262D01*
X167874230Y-57818486D01*
X167813142Y-58098659D01*
X167811893Y-58107115D01*
X167789394Y-58392994D01*
X167789305Y-58401545D01*
X167370500Y-58401545D01*
X167370500Y-56720096D01*
X168624181Y-56720096D01*
X168630577Y-56731366D01*
X169960000Y-58060790D01*
X171648757Y-59749546D01*
X171660964Y-59756212D01*
X171672464Y-59747522D01*
X171790549Y-59586768D01*
X171795133Y-59579545D01*
X171931957Y-59327547D01*
X171935525Y-59319753D01*
X172036883Y-59051518D01*
X172039356Y-59043326D01*
X172103375Y-58763809D01*
X172104713Y-58755355D01*
X172130365Y-58467932D01*
X172130611Y-58462994D01*
X172131035Y-58422485D01*
X172130892Y-58417519D01*
X172129803Y-58401545D01*
X180929305Y-58401545D01*
X180945811Y-58687819D01*
X180946884Y-58696318D01*
X181002091Y-58977705D01*
X181004304Y-58985967D01*
X181097190Y-59257264D01*
X181100506Y-59265151D01*
X181229350Y-59521329D01*
X181233706Y-59528695D01*
X181385721Y-59749876D01*
X181395974Y-59758220D01*
X181409715Y-59751074D01*
X182727980Y-58432810D01*
X182734357Y-58421131D01*
X183464408Y-58421131D01*
X183464539Y-58422966D01*
X183468790Y-58429580D01*
X184788755Y-59749544D01*
X184800965Y-59756212D01*
X184812463Y-59747523D01*
X184930549Y-59586768D01*
X184935133Y-59579545D01*
X185071957Y-59327547D01*
X185075525Y-59319753D01*
X185176883Y-59051518D01*
X185179356Y-59043326D01*
X185243375Y-58763809D01*
X185244713Y-58755355D01*
X185270365Y-58467932D01*
X185270611Y-58462994D01*
X185271035Y-58422485D01*
X185270892Y-58417519D01*
X185269803Y-58401545D01*
X204349305Y-58401545D01*
X204365811Y-58687819D01*
X204366884Y-58696318D01*
X204422091Y-58977705D01*
X204424304Y-58985967D01*
X204517190Y-59257264D01*
X204520506Y-59265151D01*
X204649350Y-59521329D01*
X204653706Y-59528695D01*
X204805721Y-59749876D01*
X204815974Y-59758220D01*
X204829715Y-59751074D01*
X206147980Y-58432810D01*
X206155592Y-58418869D01*
X206155461Y-58417034D01*
X206151210Y-58410420D01*
X204830601Y-57089812D01*
X204818590Y-57083253D01*
X204806852Y-57092220D01*
X204677339Y-57272457D01*
X204672817Y-57279751D01*
X204538648Y-57533153D01*
X204535162Y-57540981D01*
X204436619Y-57810262D01*
X204434230Y-57818486D01*
X204373142Y-58098659D01*
X204371893Y-58107115D01*
X204349394Y-58392994D01*
X204349305Y-58401545D01*
X185269803Y-58401545D01*
X185251266Y-58129630D01*
X185250105Y-58121156D01*
X185191954Y-57840356D01*
X185189655Y-57832121D01*
X185093932Y-57561809D01*
X185090535Y-57553959D01*
X184959013Y-57299139D01*
X184954585Y-57291827D01*
X184813444Y-57091003D01*
X184802923Y-57082624D01*
X184789535Y-57089676D01*
X183472020Y-58407190D01*
X183464408Y-58421131D01*
X182734357Y-58421131D01*
X182735592Y-58418869D01*
X182735461Y-58417034D01*
X182731210Y-58410420D01*
X181410601Y-57089812D01*
X181398590Y-57083253D01*
X181386852Y-57092220D01*
X181257339Y-57272457D01*
X181252817Y-57279751D01*
X181118648Y-57533153D01*
X181115162Y-57540981D01*
X181016619Y-57810262D01*
X181014230Y-57818486D01*
X180953142Y-58098659D01*
X180951893Y-58107115D01*
X180929394Y-58392994D01*
X180929305Y-58401545D01*
X172129803Y-58401545D01*
X172111266Y-58129630D01*
X172110105Y-58121156D01*
X172051954Y-57840356D01*
X172049655Y-57832121D01*
X171956453Y-57568929D01*
X171952569Y-57498039D01*
X171987627Y-57436302D01*
X172050497Y-57403319D01*
X172109954Y-57405749D01*
X172137913Y-57413766D01*
X172169545Y-57416589D01*
X172255391Y-57424251D01*
X172255397Y-57424251D01*
X172258184Y-57424500D01*
X173801816Y-57424500D01*
X173804603Y-57424251D01*
X173804609Y-57424251D01*
X173890455Y-57416589D01*
X173922087Y-57413766D01*
X174117470Y-57357741D01*
X174257662Y-57284450D01*
X174291942Y-57266529D01*
X174291943Y-57266528D01*
X174297596Y-57263573D01*
X174455109Y-57135109D01*
X174583573Y-56977596D01*
X174677741Y-56797470D01*
X174678830Y-56793673D01*
X174722161Y-56738536D01*
X174789246Y-56715294D01*
X174858246Y-56732010D01*
X174867552Y-56737936D01*
X174912157Y-56769169D01*
X174921653Y-56774652D01*
X175105473Y-56860368D01*
X175115765Y-56864114D01*
X175311676Y-56916608D01*
X175322471Y-56918511D01*
X175524525Y-56936189D01*
X175535475Y-56936189D01*
X175737529Y-56918511D01*
X175748324Y-56916608D01*
X175944235Y-56864114D01*
X175954527Y-56860368D01*
X176138344Y-56774653D01*
X176147846Y-56769167D01*
X176181300Y-56745741D01*
X176189675Y-56735264D01*
X176189175Y-56734313D01*
X176870242Y-56734313D01*
X176879536Y-56746327D01*
X176912154Y-56769167D01*
X176921656Y-56774653D01*
X177105473Y-56860368D01*
X177115765Y-56864114D01*
X177311676Y-56916608D01*
X177322471Y-56918511D01*
X177524525Y-56936189D01*
X177535475Y-56936189D01*
X177737529Y-56918511D01*
X177748324Y-56916608D01*
X177944235Y-56864114D01*
X177954527Y-56860368D01*
X178138344Y-56774653D01*
X178147846Y-56769167D01*
X178181300Y-56745741D01*
X178189675Y-56735264D01*
X178189175Y-56734313D01*
X179370242Y-56734313D01*
X179379536Y-56746327D01*
X179412154Y-56769167D01*
X179421656Y-56774653D01*
X179605473Y-56860368D01*
X179615765Y-56864114D01*
X179811676Y-56916608D01*
X179822471Y-56918511D01*
X180024525Y-56936189D01*
X180035475Y-56936189D01*
X180237529Y-56918511D01*
X180248324Y-56916608D01*
X180444235Y-56864114D01*
X180454527Y-56860368D01*
X180638344Y-56774653D01*
X180647846Y-56769167D01*
X180681300Y-56745741D01*
X180689675Y-56735264D01*
X180682606Y-56721816D01*
X180680886Y-56720096D01*
X181764181Y-56720096D01*
X181770577Y-56731366D01*
X183087190Y-58047980D01*
X183101131Y-58055592D01*
X183102966Y-58055461D01*
X183109580Y-58051210D01*
X184428883Y-56731906D01*
X184435332Y-56720096D01*
X205184181Y-56720096D01*
X205190577Y-56731366D01*
X206520000Y-58060790D01*
X208208757Y-59749546D01*
X208220964Y-59756212D01*
X208232464Y-59747522D01*
X208350549Y-59586768D01*
X208355133Y-59579545D01*
X208491957Y-59327547D01*
X208495525Y-59319753D01*
X208596883Y-59051518D01*
X208599356Y-59043326D01*
X208663375Y-58763809D01*
X208664713Y-58755355D01*
X208690365Y-58467932D01*
X208690611Y-58462994D01*
X208691035Y-58422485D01*
X208690892Y-58417519D01*
X208689803Y-58401545D01*
X217489305Y-58401545D01*
X217505811Y-58687819D01*
X217506884Y-58696318D01*
X217562091Y-58977705D01*
X217564304Y-58985967D01*
X217657190Y-59257264D01*
X217660506Y-59265151D01*
X217789350Y-59521329D01*
X217793706Y-59528695D01*
X217945721Y-59749876D01*
X217955974Y-59758220D01*
X217969715Y-59751074D01*
X219287980Y-58432810D01*
X219295592Y-58418869D01*
X219295461Y-58417034D01*
X219291210Y-58410420D01*
X217970601Y-57089812D01*
X217958590Y-57083253D01*
X217946852Y-57092220D01*
X217817339Y-57272457D01*
X217812817Y-57279751D01*
X217678648Y-57533153D01*
X217675162Y-57540981D01*
X217576619Y-57810262D01*
X217574230Y-57818486D01*
X217513142Y-58098659D01*
X217511893Y-58107115D01*
X217489394Y-58392994D01*
X217489305Y-58401545D01*
X208689803Y-58401545D01*
X208671266Y-58129630D01*
X208670105Y-58121156D01*
X208611954Y-57840356D01*
X208609655Y-57832121D01*
X208516453Y-57568929D01*
X208512569Y-57498039D01*
X208547627Y-57436302D01*
X208610497Y-57403319D01*
X208669954Y-57405749D01*
X208697913Y-57413766D01*
X208729545Y-57416589D01*
X208815391Y-57424251D01*
X208815397Y-57424251D01*
X208818184Y-57424500D01*
X210361816Y-57424500D01*
X210364603Y-57424251D01*
X210364609Y-57424251D01*
X210450455Y-57416589D01*
X210482087Y-57413766D01*
X210677470Y-57357741D01*
X210817662Y-57284450D01*
X210851942Y-57266529D01*
X210851943Y-57266528D01*
X210857596Y-57263573D01*
X210995846Y-57150820D01*
X211061277Y-57123266D01*
X211131218Y-57135461D01*
X211149986Y-57146851D01*
X211178906Y-57168056D01*
X211183049Y-57170236D01*
X211183051Y-57170237D01*
X211400278Y-57284526D01*
X211400283Y-57284528D01*
X211404428Y-57286709D01*
X211408851Y-57288254D01*
X211408852Y-57288254D01*
X211547950Y-57336829D01*
X211645010Y-57370724D01*
X211649603Y-57371596D01*
X211890780Y-57417385D01*
X211890783Y-57417385D01*
X211895369Y-57418256D01*
X212022686Y-57423258D01*
X212145335Y-57428078D01*
X212145341Y-57428078D01*
X212150003Y-57428261D01*
X212249310Y-57417385D01*
X212398666Y-57401028D01*
X212398671Y-57401027D01*
X212403319Y-57400518D01*
X212407843Y-57399327D01*
X212645229Y-57336829D01*
X212645231Y-57336828D01*
X212649752Y-57335638D01*
X212768718Y-57284526D01*
X212879594Y-57236890D01*
X212879596Y-57236889D01*
X212883888Y-57235045D01*
X213021156Y-57150101D01*
X213089607Y-57131263D01*
X213161963Y-57155633D01*
X213178906Y-57168056D01*
X213183049Y-57170236D01*
X213183051Y-57170237D01*
X213400278Y-57284526D01*
X213400283Y-57284528D01*
X213404428Y-57286709D01*
X213408851Y-57288254D01*
X213408852Y-57288254D01*
X213547950Y-57336829D01*
X213645010Y-57370724D01*
X213649603Y-57371596D01*
X213890780Y-57417385D01*
X213890783Y-57417385D01*
X213895369Y-57418256D01*
X214022686Y-57423258D01*
X214145335Y-57428078D01*
X214145341Y-57428078D01*
X214150003Y-57428261D01*
X214249310Y-57417385D01*
X214398666Y-57401028D01*
X214398671Y-57401027D01*
X214403319Y-57400518D01*
X214407843Y-57399327D01*
X214645229Y-57336829D01*
X214645231Y-57336828D01*
X214649752Y-57335638D01*
X214768718Y-57284526D01*
X214879594Y-57236890D01*
X214879596Y-57236889D01*
X214883888Y-57235045D01*
X215021156Y-57150101D01*
X215096611Y-57103408D01*
X215096615Y-57103405D01*
X215100584Y-57100949D01*
X215246295Y-56977596D01*
X215291512Y-56939317D01*
X215291514Y-56939315D01*
X215295079Y-56936297D01*
X215463100Y-56744705D01*
X215469785Y-56734313D01*
X215930242Y-56734313D01*
X215939536Y-56746327D01*
X215972154Y-56769167D01*
X215981656Y-56774653D01*
X216165473Y-56860368D01*
X216175765Y-56864114D01*
X216371676Y-56916608D01*
X216382471Y-56918511D01*
X216584525Y-56936189D01*
X216595475Y-56936189D01*
X216797529Y-56918511D01*
X216808324Y-56916608D01*
X217004235Y-56864114D01*
X217014527Y-56860368D01*
X217198344Y-56774653D01*
X217207846Y-56769167D01*
X217241300Y-56745741D01*
X217249675Y-56735264D01*
X217242606Y-56721816D01*
X216602812Y-56082022D01*
X216588868Y-56074408D01*
X216587035Y-56074539D01*
X216580420Y-56078790D01*
X215936672Y-56722538D01*
X215930242Y-56734313D01*
X215469785Y-56734313D01*
X215598429Y-56534313D01*
X215600957Y-56530383D01*
X215705621Y-56298038D01*
X215707546Y-56291211D01*
X215721393Y-56242116D01*
X215753567Y-56187223D01*
X216217978Y-55722812D01*
X216224356Y-55711132D01*
X216954408Y-55711132D01*
X216954539Y-55712965D01*
X216958790Y-55719580D01*
X217602538Y-56363328D01*
X217614313Y-56369758D01*
X217626327Y-56360464D01*
X217649167Y-56327846D01*
X217654653Y-56318344D01*
X217740368Y-56134527D01*
X217744114Y-56124235D01*
X217796608Y-55928324D01*
X217798511Y-55917529D01*
X217816189Y-55715475D01*
X217816189Y-55704525D01*
X217798511Y-55502471D01*
X217796608Y-55491676D01*
X217744114Y-55295765D01*
X217740368Y-55285473D01*
X217654653Y-55101656D01*
X217649167Y-55092154D01*
X217625741Y-55058700D01*
X217615264Y-55050325D01*
X217601816Y-55057394D01*
X216962022Y-55697188D01*
X216954408Y-55711132D01*
X216224356Y-55711132D01*
X216225592Y-55708868D01*
X216225461Y-55707035D01*
X216221210Y-55700420D01*
X215756780Y-55235990D01*
X215728442Y-55192562D01*
X215643515Y-54974172D01*
X215643514Y-54974170D01*
X215641822Y-54969819D01*
X215555001Y-54817913D01*
X215517690Y-54752632D01*
X215517688Y-54752630D01*
X215515371Y-54748575D01*
X215465044Y-54684736D01*
X215930325Y-54684736D01*
X215937394Y-54698184D01*
X216577188Y-55337978D01*
X216591132Y-55345592D01*
X216592965Y-55345461D01*
X216599580Y-55341210D01*
X217243328Y-54697462D01*
X217249758Y-54685687D01*
X217240464Y-54673673D01*
X217207846Y-54650833D01*
X217198344Y-54645347D01*
X217014527Y-54559632D01*
X217004235Y-54555886D01*
X216808324Y-54503392D01*
X216797529Y-54501489D01*
X216595475Y-54483811D01*
X216584525Y-54483811D01*
X216382471Y-54501489D01*
X216371676Y-54503392D01*
X216175765Y-54555886D01*
X216165473Y-54559632D01*
X215981656Y-54645347D01*
X215972154Y-54650833D01*
X215938700Y-54674259D01*
X215930325Y-54684736D01*
X215465044Y-54684736D01*
X215357607Y-54548452D01*
X215171996Y-54373847D01*
X215037959Y-54280862D01*
X214966457Y-54231259D01*
X214966454Y-54231257D01*
X214962615Y-54228594D01*
X214958422Y-54226526D01*
X214738252Y-54117950D01*
X214738249Y-54117949D01*
X214734064Y-54115885D01*
X214729621Y-54114463D01*
X214729619Y-54114462D01*
X214495822Y-54039624D01*
X214491364Y-54038197D01*
X214239848Y-53997234D01*
X214129580Y-53995791D01*
X213989716Y-53993960D01*
X213989713Y-53993960D01*
X213985039Y-53993899D01*
X213732536Y-54028263D01*
X213487886Y-54099572D01*
X213256463Y-54206259D01*
X213252554Y-54208822D01*
X213159913Y-54269560D01*
X213091978Y-54290183D01*
X213019009Y-54267716D01*
X213016339Y-54265864D01*
X212962615Y-54228594D01*
X212958422Y-54226526D01*
X212738252Y-54117950D01*
X212738249Y-54117949D01*
X212734064Y-54115885D01*
X212729621Y-54114463D01*
X212729619Y-54114462D01*
X212495822Y-54039624D01*
X212491364Y-54038197D01*
X212239848Y-53997234D01*
X212129580Y-53995791D01*
X211989716Y-53993960D01*
X211989713Y-53993960D01*
X211985039Y-53993899D01*
X211732536Y-54028263D01*
X211487886Y-54099572D01*
X211256463Y-54206259D01*
X211252554Y-54208822D01*
X211146410Y-54278413D01*
X211078475Y-54299036D01*
X211010174Y-54279656D01*
X210997689Y-54270684D01*
X210862540Y-54160459D01*
X210862539Y-54160458D01*
X210857596Y-54156427D01*
X210677470Y-54062259D01*
X210482087Y-54006234D01*
X210450455Y-54003411D01*
X210364609Y-53995749D01*
X210364603Y-53995749D01*
X210361816Y-53995500D01*
X208818184Y-53995500D01*
X208815397Y-53995749D01*
X208815391Y-53995749D01*
X208729545Y-54003411D01*
X208697913Y-54006234D01*
X208502530Y-54062259D01*
X208322404Y-54156427D01*
X208317461Y-54160458D01*
X208317460Y-54160459D01*
X208172834Y-54278413D01*
X208164891Y-54284891D01*
X208160862Y-54289831D01*
X208092341Y-54373847D01*
X208036427Y-54442404D01*
X207942259Y-54622530D01*
X207886234Y-54817913D01*
X207875500Y-54938184D01*
X207875500Y-56481816D01*
X207875026Y-56481816D01*
X207858592Y-56548697D01*
X207807064Y-56597538D01*
X207737311Y-56610769D01*
X207683824Y-56592808D01*
X207529506Y-56498242D01*
X207521908Y-56494270D01*
X207259349Y-56379014D01*
X207251295Y-56376115D01*
X206975519Y-56297559D01*
X206967141Y-56295777D01*
X206683256Y-56255374D01*
X206674709Y-56254747D01*
X206387965Y-56253245D01*
X206379430Y-56253782D01*
X206095130Y-56291211D01*
X206086732Y-56292904D01*
X205810155Y-56368567D01*
X205802060Y-56371386D01*
X205538301Y-56483888D01*
X205530679Y-56487773D01*
X205284630Y-56635030D01*
X205277598Y-56639917D01*
X205192650Y-56707973D01*
X205184181Y-56720096D01*
X184435332Y-56720096D01*
X184436075Y-56718736D01*
X184428753Y-56708501D01*
X184360973Y-56653024D01*
X184354001Y-56648069D01*
X184109506Y-56498242D01*
X184101908Y-56494270D01*
X183839349Y-56379014D01*
X183831295Y-56376115D01*
X183555519Y-56297559D01*
X183547141Y-56295777D01*
X183263256Y-56255374D01*
X183254709Y-56254747D01*
X182967965Y-56253245D01*
X182959430Y-56253782D01*
X182675130Y-56291211D01*
X182666732Y-56292904D01*
X182390155Y-56368567D01*
X182382060Y-56371386D01*
X182118301Y-56483888D01*
X182110679Y-56487773D01*
X181864630Y-56635030D01*
X181857598Y-56639917D01*
X181772650Y-56707973D01*
X181764181Y-56720096D01*
X180680886Y-56720096D01*
X180042812Y-56082022D01*
X180028868Y-56074408D01*
X180027035Y-56074539D01*
X180020420Y-56078790D01*
X179376672Y-56722538D01*
X179370242Y-56734313D01*
X178189175Y-56734313D01*
X178182606Y-56721816D01*
X177542812Y-56082022D01*
X177528868Y-56074408D01*
X177527035Y-56074539D01*
X177520420Y-56078790D01*
X176876672Y-56722538D01*
X176870242Y-56734313D01*
X176189175Y-56734313D01*
X176182606Y-56721816D01*
X175259885Y-55799095D01*
X175225859Y-55736783D01*
X175227694Y-55711132D01*
X175894408Y-55711132D01*
X175894539Y-55712965D01*
X175898790Y-55719580D01*
X176517188Y-56337978D01*
X176531132Y-56345592D01*
X176532965Y-56345461D01*
X176539580Y-56341210D01*
X177157978Y-55722812D01*
X177164356Y-55711132D01*
X177894408Y-55711132D01*
X177894539Y-55712965D01*
X177898790Y-55719580D01*
X178542538Y-56363328D01*
X178554313Y-56369758D01*
X178566327Y-56360464D01*
X178589167Y-56327846D01*
X178594653Y-56318345D01*
X178665805Y-56165757D01*
X178712722Y-56112472D01*
X178780999Y-56093011D01*
X178848959Y-56113553D01*
X178894195Y-56165757D01*
X178965347Y-56318345D01*
X178970833Y-56327846D01*
X178994259Y-56361300D01*
X179004736Y-56369675D01*
X179018184Y-56362606D01*
X179657978Y-55722812D01*
X179664356Y-55711132D01*
X180394408Y-55711132D01*
X180394539Y-55712965D01*
X180398790Y-55719580D01*
X181042538Y-56363328D01*
X181054313Y-56369758D01*
X181066327Y-56360464D01*
X181089167Y-56327846D01*
X181094653Y-56318344D01*
X181180368Y-56134527D01*
X181184114Y-56124235D01*
X181236608Y-55928324D01*
X181238511Y-55917529D01*
X181256189Y-55715475D01*
X181256189Y-55704525D01*
X181238511Y-55502471D01*
X181236608Y-55491676D01*
X181184114Y-55295765D01*
X181180368Y-55285473D01*
X181094653Y-55101656D01*
X181089167Y-55092154D01*
X181065741Y-55058700D01*
X181055264Y-55050325D01*
X181041816Y-55057394D01*
X180402022Y-55697188D01*
X180394408Y-55711132D01*
X179664356Y-55711132D01*
X179665592Y-55708868D01*
X179665461Y-55707035D01*
X179661210Y-55700420D01*
X179017462Y-55056672D01*
X179005687Y-55050242D01*
X178993673Y-55059536D01*
X178970833Y-55092154D01*
X178965347Y-55101655D01*
X178894195Y-55254243D01*
X178847278Y-55307528D01*
X178779001Y-55326989D01*
X178711041Y-55306447D01*
X178665805Y-55254243D01*
X178594653Y-55101655D01*
X178589167Y-55092154D01*
X178565741Y-55058700D01*
X178555264Y-55050325D01*
X178541816Y-55057394D01*
X177902022Y-55697188D01*
X177894408Y-55711132D01*
X177164356Y-55711132D01*
X177165592Y-55708868D01*
X177165461Y-55707035D01*
X177161210Y-55700420D01*
X176542812Y-55082022D01*
X176528868Y-55074408D01*
X176527035Y-55074539D01*
X176520420Y-55078790D01*
X175902022Y-55697188D01*
X175894408Y-55711132D01*
X175227694Y-55711132D01*
X175230924Y-55665968D01*
X175259885Y-55620905D01*
X176183328Y-54697462D01*
X176189758Y-54685687D01*
X176189022Y-54684736D01*
X176870325Y-54684736D01*
X176877394Y-54698184D01*
X177517188Y-55337978D01*
X177531132Y-55345592D01*
X177532965Y-55345461D01*
X177539580Y-55341210D01*
X178183328Y-54697462D01*
X178189758Y-54685687D01*
X178189022Y-54684736D01*
X179370325Y-54684736D01*
X179377394Y-54698184D01*
X180017188Y-55337978D01*
X180031132Y-55345592D01*
X180032965Y-55345461D01*
X180039580Y-55341210D01*
X180683328Y-54697462D01*
X180689758Y-54685687D01*
X180680464Y-54673673D01*
X180647846Y-54650833D01*
X180638344Y-54645347D01*
X180454527Y-54559632D01*
X180444235Y-54555886D01*
X180248324Y-54503392D01*
X180237529Y-54501489D01*
X180035475Y-54483811D01*
X180024525Y-54483811D01*
X179822471Y-54501489D01*
X179811676Y-54503392D01*
X179615765Y-54555886D01*
X179605473Y-54559632D01*
X179421656Y-54645347D01*
X179412154Y-54650833D01*
X179378700Y-54674259D01*
X179370325Y-54684736D01*
X178189022Y-54684736D01*
X178180464Y-54673673D01*
X178147846Y-54650833D01*
X178138344Y-54645347D01*
X177954527Y-54559632D01*
X177944235Y-54555886D01*
X177748324Y-54503392D01*
X177737529Y-54501489D01*
X177535475Y-54483811D01*
X177524525Y-54483811D01*
X177322471Y-54501489D01*
X177311676Y-54503392D01*
X177115765Y-54555886D01*
X177105473Y-54559632D01*
X176921656Y-54645347D01*
X176912154Y-54650833D01*
X176878700Y-54674259D01*
X176870325Y-54684736D01*
X176189022Y-54684736D01*
X176180464Y-54673673D01*
X176147846Y-54650833D01*
X176138344Y-54645347D01*
X175954527Y-54559632D01*
X175944235Y-54555886D01*
X175748324Y-54503392D01*
X175737529Y-54501489D01*
X175535475Y-54483811D01*
X175524525Y-54483811D01*
X175322471Y-54501489D01*
X175311676Y-54503392D01*
X175115765Y-54555886D01*
X175105473Y-54559632D01*
X174921653Y-54645348D01*
X174912157Y-54650831D01*
X174867552Y-54682064D01*
X174800278Y-54704752D01*
X174731417Y-54687467D01*
X174682833Y-54635697D01*
X174679228Y-54627715D01*
X174677741Y-54622530D01*
X174583573Y-54442404D01*
X174527660Y-54373847D01*
X174459138Y-54289831D01*
X174455109Y-54284891D01*
X174447166Y-54278413D01*
X174302540Y-54160459D01*
X174302539Y-54160458D01*
X174297596Y-54156427D01*
X174117470Y-54062259D01*
X173922087Y-54006234D01*
X173890455Y-54003411D01*
X173804609Y-53995749D01*
X173804603Y-53995749D01*
X173801816Y-53995500D01*
X172258184Y-53995500D01*
X172255397Y-53995749D01*
X172255391Y-53995749D01*
X172169545Y-54003411D01*
X172137913Y-54006234D01*
X171942530Y-54062259D01*
X171762404Y-54156427D01*
X171757461Y-54160458D01*
X171757460Y-54160459D01*
X171612834Y-54278413D01*
X171604891Y-54284891D01*
X171600862Y-54289831D01*
X171532341Y-54373847D01*
X171476427Y-54442404D01*
X171382259Y-54622530D01*
X171326234Y-54817913D01*
X171315500Y-54938184D01*
X171315500Y-56481816D01*
X171315026Y-56481816D01*
X171298592Y-56548697D01*
X171247064Y-56597538D01*
X171177311Y-56610769D01*
X171123824Y-56592808D01*
X170969506Y-56498242D01*
X170961908Y-56494270D01*
X170699349Y-56379014D01*
X170691295Y-56376115D01*
X170415519Y-56297559D01*
X170407141Y-56295777D01*
X170123256Y-56255374D01*
X170114709Y-56254747D01*
X169827965Y-56253245D01*
X169819430Y-56253782D01*
X169535130Y-56291211D01*
X169526732Y-56292904D01*
X169250155Y-56368567D01*
X169242060Y-56371386D01*
X168978301Y-56483888D01*
X168970679Y-56487773D01*
X168724630Y-56635030D01*
X168717598Y-56639917D01*
X168632650Y-56707973D01*
X168624181Y-56720096D01*
X167370500Y-56720096D01*
X167370500Y-50752736D01*
X169645070Y-50752736D01*
X169657909Y-51020041D01*
X169710118Y-51282512D01*
X169800549Y-51534383D01*
X169802765Y-51538507D01*
X169870982Y-51665465D01*
X169927215Y-51770121D01*
X169930010Y-51773864D01*
X169930012Y-51773867D01*
X170014199Y-51886607D01*
X170087335Y-51984547D01*
X170090642Y-51987825D01*
X170090647Y-51987831D01*
X170274074Y-52169663D01*
X170277390Y-52172950D01*
X170493205Y-52331192D01*
X170497340Y-52333368D01*
X170497344Y-52333370D01*
X170626918Y-52401542D01*
X170730039Y-52455797D01*
X170734458Y-52457340D01*
X170978273Y-52542484D01*
X170978279Y-52542486D01*
X170982690Y-52544026D01*
X171245606Y-52593943D01*
X171372616Y-52598933D01*
X171508345Y-52604266D01*
X171508350Y-52604266D01*
X171513013Y-52604449D01*
X171608943Y-52593943D01*
X171774382Y-52575825D01*
X171774387Y-52575824D01*
X171779035Y-52575315D01*
X171894567Y-52544898D01*
X172033309Y-52508370D01*
X172037829Y-52507180D01*
X172162501Y-52453617D01*
X172279407Y-52403391D01*
X172279410Y-52403389D01*
X172283710Y-52401542D01*
X172287690Y-52399079D01*
X172287694Y-52399077D01*
X172507302Y-52263179D01*
X172507306Y-52263176D01*
X172511275Y-52260720D01*
X172525010Y-52249092D01*
X172711960Y-52090828D01*
X172711961Y-52090827D01*
X172715526Y-52087809D01*
X172809365Y-51980807D01*
X172888894Y-51890122D01*
X172888898Y-51890117D01*
X172891976Y-51886607D01*
X172894506Y-51882674D01*
X173034219Y-51665465D01*
X173034222Y-51665460D01*
X173036747Y-51661534D01*
X173146661Y-51417534D01*
X173219302Y-51159969D01*
X173237103Y-51020041D01*
X173252677Y-50897625D01*
X173252677Y-50897621D01*
X173253075Y-50894495D01*
X173255549Y-50800000D01*
X173252037Y-50752736D01*
X179805070Y-50752736D01*
X179817909Y-51020041D01*
X179870118Y-51282512D01*
X179960549Y-51534383D01*
X179962765Y-51538507D01*
X180030982Y-51665465D01*
X180087215Y-51770121D01*
X180090010Y-51773864D01*
X180090012Y-51773867D01*
X180174199Y-51886607D01*
X180247335Y-51984547D01*
X180250642Y-51987825D01*
X180250647Y-51987831D01*
X180434074Y-52169663D01*
X180437390Y-52172950D01*
X180653205Y-52331192D01*
X180657340Y-52333368D01*
X180657344Y-52333370D01*
X180786918Y-52401542D01*
X180890039Y-52455797D01*
X180894458Y-52457340D01*
X181138273Y-52542484D01*
X181138279Y-52542486D01*
X181142690Y-52544026D01*
X181405606Y-52593943D01*
X181532616Y-52598933D01*
X181668345Y-52604266D01*
X181668350Y-52604266D01*
X181673013Y-52604449D01*
X181768943Y-52593943D01*
X181934382Y-52575825D01*
X181934387Y-52575824D01*
X181939035Y-52575315D01*
X182054567Y-52544898D01*
X182193309Y-52508370D01*
X182197829Y-52507180D01*
X182322501Y-52453617D01*
X182439407Y-52403391D01*
X182439410Y-52403389D01*
X182443710Y-52401542D01*
X182447690Y-52399079D01*
X182447694Y-52399077D01*
X182667302Y-52263179D01*
X182667306Y-52263176D01*
X182671275Y-52260720D01*
X182685010Y-52249092D01*
X182871960Y-52090828D01*
X182871961Y-52090827D01*
X182875526Y-52087809D01*
X182969365Y-51980807D01*
X183048894Y-51890122D01*
X183048898Y-51890117D01*
X183051976Y-51886607D01*
X183054506Y-51882674D01*
X183194219Y-51665465D01*
X183194222Y-51665460D01*
X183196747Y-51661534D01*
X183306661Y-51417534D01*
X183379302Y-51159969D01*
X183397103Y-51020041D01*
X183412677Y-50897625D01*
X183412677Y-50897621D01*
X183413075Y-50894495D01*
X183415549Y-50800000D01*
X183412037Y-50752736D01*
X184885070Y-50752736D01*
X184897909Y-51020041D01*
X184950118Y-51282512D01*
X185040549Y-51534383D01*
X185042765Y-51538507D01*
X185110982Y-51665465D01*
X185167215Y-51770121D01*
X185170010Y-51773864D01*
X185170012Y-51773867D01*
X185254199Y-51886607D01*
X185327335Y-51984547D01*
X185330642Y-51987825D01*
X185330647Y-51987831D01*
X185514074Y-52169663D01*
X185517390Y-52172950D01*
X185733205Y-52331192D01*
X185737340Y-52333368D01*
X185737344Y-52333370D01*
X185866918Y-52401542D01*
X185970039Y-52455797D01*
X185974458Y-52457340D01*
X186218273Y-52542484D01*
X186218279Y-52542486D01*
X186222690Y-52544026D01*
X186485606Y-52593943D01*
X186612616Y-52598933D01*
X186748345Y-52604266D01*
X186748350Y-52604266D01*
X186753013Y-52604449D01*
X186848943Y-52593943D01*
X187014382Y-52575825D01*
X187014387Y-52575824D01*
X187019035Y-52575315D01*
X187134567Y-52544898D01*
X187273309Y-52508370D01*
X187277829Y-52507180D01*
X187402501Y-52453617D01*
X187519407Y-52403391D01*
X187519410Y-52403389D01*
X187523710Y-52401542D01*
X187527690Y-52399079D01*
X187527694Y-52399077D01*
X187747302Y-52263179D01*
X187747306Y-52263176D01*
X187751275Y-52260720D01*
X187765010Y-52249092D01*
X187951960Y-52090828D01*
X187951961Y-52090827D01*
X187955526Y-52087809D01*
X188049365Y-51980807D01*
X188128894Y-51890122D01*
X188128898Y-51890117D01*
X188131976Y-51886607D01*
X188134506Y-51882674D01*
X188274219Y-51665465D01*
X188274222Y-51665460D01*
X188276747Y-51661534D01*
X188386661Y-51417534D01*
X188459302Y-51159969D01*
X188477103Y-51020041D01*
X188492677Y-50897625D01*
X188492677Y-50897621D01*
X188493075Y-50894495D01*
X188495549Y-50800000D01*
X188492037Y-50752736D01*
X195045070Y-50752736D01*
X195057909Y-51020041D01*
X195110118Y-51282512D01*
X195200549Y-51534383D01*
X195202765Y-51538507D01*
X195270982Y-51665465D01*
X195327215Y-51770121D01*
X195330010Y-51773864D01*
X195330012Y-51773867D01*
X195414199Y-51886607D01*
X195487335Y-51984547D01*
X195490642Y-51987825D01*
X195490647Y-51987831D01*
X195674074Y-52169663D01*
X195677390Y-52172950D01*
X195893205Y-52331192D01*
X195897340Y-52333368D01*
X195897344Y-52333370D01*
X196026918Y-52401542D01*
X196130039Y-52455797D01*
X196134458Y-52457340D01*
X196378273Y-52542484D01*
X196378279Y-52542486D01*
X196382690Y-52544026D01*
X196645606Y-52593943D01*
X196772616Y-52598933D01*
X196908345Y-52604266D01*
X196908350Y-52604266D01*
X196913013Y-52604449D01*
X197008943Y-52593943D01*
X197174382Y-52575825D01*
X197174387Y-52575824D01*
X197179035Y-52575315D01*
X197294567Y-52544898D01*
X197433309Y-52508370D01*
X197437829Y-52507180D01*
X197562501Y-52453617D01*
X197679407Y-52403391D01*
X197679410Y-52403389D01*
X197683710Y-52401542D01*
X197687690Y-52399079D01*
X197687694Y-52399077D01*
X197907302Y-52263179D01*
X197907306Y-52263176D01*
X197911275Y-52260720D01*
X197925010Y-52249092D01*
X198111960Y-52090828D01*
X198111961Y-52090827D01*
X198115526Y-52087809D01*
X198209365Y-51980807D01*
X198288894Y-51890122D01*
X198288898Y-51890117D01*
X198291976Y-51886607D01*
X198294506Y-51882674D01*
X198434219Y-51665465D01*
X198434222Y-51665460D01*
X198436747Y-51661534D01*
X198546661Y-51417534D01*
X198619302Y-51159969D01*
X198637103Y-51020041D01*
X198652677Y-50897625D01*
X198652677Y-50897621D01*
X198653075Y-50894495D01*
X198655549Y-50800000D01*
X198635717Y-50533123D01*
X198625161Y-50486470D01*
X198577686Y-50276666D01*
X198576655Y-50272109D01*
X198494268Y-50060251D01*
X198481355Y-50027044D01*
X198481354Y-50027042D01*
X198479662Y-50022691D01*
X198469493Y-50004898D01*
X198388614Y-49863391D01*
X198346868Y-49790350D01*
X198181190Y-49580189D01*
X197986269Y-49396825D01*
X197766385Y-49244286D01*
X197753815Y-49238087D01*
X197530559Y-49127989D01*
X197530556Y-49127988D01*
X197526371Y-49125924D01*
X197501042Y-49117816D01*
X200129500Y-49117816D01*
X200129749Y-49120603D01*
X200129749Y-49120609D01*
X200130408Y-49127989D01*
X200140234Y-49238087D01*
X200196259Y-49433470D01*
X200290427Y-49613596D01*
X200294458Y-49618539D01*
X200294459Y-49618540D01*
X200308465Y-49635713D01*
X200418891Y-49771109D01*
X200423831Y-49775138D01*
X200447459Y-49794408D01*
X200576404Y-49899573D01*
X200582057Y-49902528D01*
X200582058Y-49902529D01*
X200610389Y-49917340D01*
X200756530Y-49993741D01*
X200951913Y-50049766D01*
X200983545Y-50052589D01*
X201069391Y-50060251D01*
X201069397Y-50060251D01*
X201072184Y-50060500D01*
X202787816Y-50060500D01*
X202790603Y-50060251D01*
X202790609Y-50060251D01*
X202876455Y-50052589D01*
X202908087Y-50049766D01*
X203103470Y-49993741D01*
X203249611Y-49917340D01*
X203277942Y-49902529D01*
X203277943Y-49902528D01*
X203283596Y-49899573D01*
X203412542Y-49794408D01*
X203436169Y-49775138D01*
X203441109Y-49771109D01*
X203551535Y-49635713D01*
X203565541Y-49618540D01*
X203565542Y-49618539D01*
X203569573Y-49613596D01*
X203663741Y-49433470D01*
X203719766Y-49238087D01*
X203729592Y-49127989D01*
X203730251Y-49120609D01*
X203730251Y-49120603D01*
X203730500Y-49117816D01*
X203730500Y-48212736D01*
X205125070Y-48212736D01*
X205137909Y-48480041D01*
X205190118Y-48742512D01*
X205280549Y-48994383D01*
X205284681Y-49002073D01*
X205350982Y-49125465D01*
X205407215Y-49230121D01*
X205410010Y-49233864D01*
X205410012Y-49233867D01*
X205564542Y-49440807D01*
X205567335Y-49444547D01*
X205570642Y-49447825D01*
X205570647Y-49447831D01*
X205754074Y-49629663D01*
X205757390Y-49632950D01*
X205973205Y-49791192D01*
X205977340Y-49793368D01*
X205977344Y-49793370D01*
X206106918Y-49861542D01*
X206210039Y-49915797D01*
X206214458Y-49917340D01*
X206458273Y-50002484D01*
X206458279Y-50002486D01*
X206462690Y-50004026D01*
X206467283Y-50004898D01*
X206706413Y-50050299D01*
X206725606Y-50053943D01*
X206852616Y-50058933D01*
X206988345Y-50064266D01*
X206988350Y-50064266D01*
X206993013Y-50064449D01*
X207088943Y-50053943D01*
X207254382Y-50035825D01*
X207254387Y-50035824D01*
X207259035Y-50035315D01*
X207290451Y-50027044D01*
X207458709Y-49982745D01*
X207517829Y-49967180D01*
X207642501Y-49913617D01*
X207759407Y-49863391D01*
X207759410Y-49863389D01*
X207763710Y-49861542D01*
X207767690Y-49859079D01*
X207767694Y-49859077D01*
X207987302Y-49723179D01*
X207987306Y-49723176D01*
X207991275Y-49720720D01*
X208005010Y-49709092D01*
X208191960Y-49550828D01*
X208191961Y-49550827D01*
X208195526Y-49547809D01*
X208301182Y-49427332D01*
X208368894Y-49350122D01*
X208368898Y-49350117D01*
X208371976Y-49346607D01*
X208438071Y-49243851D01*
X208514219Y-49125465D01*
X208514222Y-49125460D01*
X208516747Y-49121534D01*
X208626661Y-48877534D01*
X208699302Y-48619969D01*
X208717103Y-48480041D01*
X208732677Y-48357625D01*
X208732677Y-48357621D01*
X208733075Y-48354495D01*
X208735549Y-48260000D01*
X208731691Y-48208081D01*
X208716064Y-47997788D01*
X208716063Y-47997784D01*
X208715717Y-47993123D01*
X208705161Y-47946470D01*
X208657686Y-47736666D01*
X208656655Y-47732109D01*
X208593809Y-47570500D01*
X208561355Y-47487044D01*
X208561354Y-47487042D01*
X208559662Y-47482691D01*
X208549429Y-47464786D01*
X208495210Y-47369923D01*
X208426868Y-47250350D01*
X208261190Y-47040189D01*
X208066269Y-46856825D01*
X207846385Y-46704286D01*
X207842194Y-46702219D01*
X207610559Y-46587989D01*
X207610556Y-46587988D01*
X207606371Y-46585924D01*
X207351497Y-46504338D01*
X207138814Y-46469701D01*
X207091976Y-46462073D01*
X207091975Y-46462073D01*
X207087364Y-46461322D01*
X206948184Y-46459500D01*
X206824451Y-46457880D01*
X206824448Y-46457880D01*
X206819774Y-46457819D01*
X206554605Y-46493907D01*
X206550118Y-46495215D01*
X206550117Y-46495215D01*
X206518817Y-46504338D01*
X206297683Y-46568792D01*
X206293430Y-46570752D01*
X206293429Y-46570753D01*
X206241512Y-46594687D01*
X206054652Y-46680831D01*
X206050743Y-46683394D01*
X205834764Y-46824996D01*
X205834759Y-46825000D01*
X205830851Y-46827562D01*
X205748055Y-46901460D01*
X205685648Y-46957161D01*
X205631197Y-47005760D01*
X205460075Y-47211512D01*
X205457652Y-47215505D01*
X205338095Y-47412529D01*
X205321244Y-47440298D01*
X205319437Y-47444606D01*
X205319437Y-47444607D01*
X205266646Y-47570500D01*
X205217755Y-47687091D01*
X205216604Y-47691623D01*
X205216603Y-47691626D01*
X205175310Y-47854217D01*
X205151881Y-47946470D01*
X205125070Y-48212736D01*
X203730500Y-48212736D01*
X203730500Y-47402184D01*
X203728139Y-47375724D01*
X203720299Y-47287886D01*
X203719766Y-47281913D01*
X203663741Y-47086530D01*
X203569573Y-46906404D01*
X203507814Y-46830679D01*
X203445138Y-46753831D01*
X203441109Y-46748891D01*
X203432800Y-46742114D01*
X203288540Y-46624459D01*
X203288539Y-46624458D01*
X203283596Y-46620427D01*
X203103470Y-46526259D01*
X202908087Y-46470234D01*
X202876455Y-46467411D01*
X202790609Y-46459749D01*
X202790603Y-46459749D01*
X202787816Y-46459500D01*
X201072184Y-46459500D01*
X201069397Y-46459749D01*
X201069391Y-46459749D01*
X200983545Y-46467411D01*
X200951913Y-46470234D01*
X200756530Y-46526259D01*
X200576404Y-46620427D01*
X200571461Y-46624458D01*
X200571460Y-46624459D01*
X200427200Y-46742114D01*
X200418891Y-46748891D01*
X200414862Y-46753831D01*
X200352187Y-46830679D01*
X200290427Y-46906404D01*
X200196259Y-47086530D01*
X200140234Y-47281913D01*
X200139701Y-47287886D01*
X200131862Y-47375724D01*
X200129500Y-47402184D01*
X200129500Y-49117816D01*
X197501042Y-49117816D01*
X197499346Y-49117273D01*
X197275942Y-49045761D01*
X197275944Y-49045761D01*
X197271497Y-49044338D01*
X197126134Y-49020665D01*
X197011976Y-49002073D01*
X197011975Y-49002073D01*
X197007364Y-49001322D01*
X196873569Y-48999571D01*
X196744451Y-48997880D01*
X196744448Y-48997880D01*
X196739774Y-48997819D01*
X196474605Y-49033907D01*
X196470118Y-49035215D01*
X196470117Y-49035215D01*
X196438817Y-49044338D01*
X196217683Y-49108792D01*
X196213430Y-49110752D01*
X196213429Y-49110753D01*
X196161512Y-49134687D01*
X195974652Y-49220831D01*
X195957443Y-49232114D01*
X195754764Y-49364996D01*
X195754759Y-49365000D01*
X195750851Y-49367562D01*
X195551197Y-49545760D01*
X195380075Y-49751512D01*
X195377652Y-49755505D01*
X195355997Y-49791192D01*
X195241244Y-49980298D01*
X195239437Y-49984606D01*
X195239437Y-49984607D01*
X195205957Y-50064449D01*
X195137755Y-50227091D01*
X195136604Y-50231623D01*
X195136603Y-50231626D01*
X195073033Y-50481933D01*
X195071881Y-50486470D01*
X195045070Y-50752736D01*
X188492037Y-50752736D01*
X188475717Y-50533123D01*
X188465161Y-50486470D01*
X188417686Y-50276666D01*
X188416655Y-50272109D01*
X188334268Y-50060251D01*
X188321355Y-50027044D01*
X188321354Y-50027042D01*
X188319662Y-50022691D01*
X188309493Y-50004898D01*
X188228614Y-49863391D01*
X188186868Y-49790350D01*
X188021190Y-49580189D01*
X187826269Y-49396825D01*
X187606385Y-49244286D01*
X187593815Y-49238087D01*
X187370559Y-49127989D01*
X187370556Y-49127988D01*
X187366371Y-49125924D01*
X187339346Y-49117273D01*
X187115942Y-49045761D01*
X187115944Y-49045761D01*
X187111497Y-49044338D01*
X186966134Y-49020665D01*
X186851976Y-49002073D01*
X186851975Y-49002073D01*
X186847364Y-49001322D01*
X186713569Y-48999571D01*
X186584451Y-48997880D01*
X186584448Y-48997880D01*
X186579774Y-48997819D01*
X186314605Y-49033907D01*
X186310118Y-49035215D01*
X186310117Y-49035215D01*
X186278817Y-49044338D01*
X186057683Y-49108792D01*
X186053430Y-49110752D01*
X186053429Y-49110753D01*
X186001512Y-49134687D01*
X185814652Y-49220831D01*
X185797443Y-49232114D01*
X185594764Y-49364996D01*
X185594759Y-49365000D01*
X185590851Y-49367562D01*
X185391197Y-49545760D01*
X185220075Y-49751512D01*
X185217652Y-49755505D01*
X185195997Y-49791192D01*
X185081244Y-49980298D01*
X185079437Y-49984606D01*
X185079437Y-49984607D01*
X185045957Y-50064449D01*
X184977755Y-50227091D01*
X184976604Y-50231623D01*
X184976603Y-50231626D01*
X184913033Y-50481933D01*
X184911881Y-50486470D01*
X184885070Y-50752736D01*
X183412037Y-50752736D01*
X183395717Y-50533123D01*
X183385161Y-50486470D01*
X183337686Y-50276666D01*
X183336655Y-50272109D01*
X183254268Y-50060251D01*
X183241355Y-50027044D01*
X183241354Y-50027042D01*
X183239662Y-50022691D01*
X183229493Y-50004898D01*
X183148614Y-49863391D01*
X183106868Y-49790350D01*
X182941190Y-49580189D01*
X182746269Y-49396825D01*
X182526385Y-49244286D01*
X182513815Y-49238087D01*
X182290559Y-49127989D01*
X182290556Y-49127988D01*
X182286371Y-49125924D01*
X182259346Y-49117273D01*
X182035942Y-49045761D01*
X182035944Y-49045761D01*
X182031497Y-49044338D01*
X181886134Y-49020665D01*
X181771976Y-49002073D01*
X181771975Y-49002073D01*
X181767364Y-49001322D01*
X181633569Y-48999571D01*
X181504451Y-48997880D01*
X181504448Y-48997880D01*
X181499774Y-48997819D01*
X181234605Y-49033907D01*
X181230118Y-49035215D01*
X181230117Y-49035215D01*
X181198817Y-49044338D01*
X180977683Y-49108792D01*
X180973430Y-49110752D01*
X180973429Y-49110753D01*
X180921512Y-49134687D01*
X180734652Y-49220831D01*
X180717443Y-49232114D01*
X180514764Y-49364996D01*
X180514759Y-49365000D01*
X180510851Y-49367562D01*
X180311197Y-49545760D01*
X180140075Y-49751512D01*
X180137652Y-49755505D01*
X180115997Y-49791192D01*
X180001244Y-49980298D01*
X179999437Y-49984606D01*
X179999437Y-49984607D01*
X179965957Y-50064449D01*
X179897755Y-50227091D01*
X179896604Y-50231623D01*
X179896603Y-50231626D01*
X179833033Y-50481933D01*
X179831881Y-50486470D01*
X179805070Y-50752736D01*
X173252037Y-50752736D01*
X173235717Y-50533123D01*
X173225161Y-50486470D01*
X173177686Y-50276666D01*
X173176655Y-50272109D01*
X173094268Y-50060251D01*
X173081355Y-50027044D01*
X173081354Y-50027042D01*
X173079662Y-50022691D01*
X173069493Y-50004898D01*
X172988614Y-49863391D01*
X172946868Y-49790350D01*
X172781190Y-49580189D01*
X172586269Y-49396825D01*
X172366385Y-49244286D01*
X172353815Y-49238087D01*
X172130559Y-49127989D01*
X172130556Y-49127988D01*
X172126371Y-49125924D01*
X172099346Y-49117273D01*
X171875942Y-49045761D01*
X171875944Y-49045761D01*
X171871497Y-49044338D01*
X171726134Y-49020665D01*
X171611976Y-49002073D01*
X171611975Y-49002073D01*
X171607364Y-49001322D01*
X171473569Y-48999571D01*
X171344451Y-48997880D01*
X171344448Y-48997880D01*
X171339774Y-48997819D01*
X171074605Y-49033907D01*
X171070118Y-49035215D01*
X171070117Y-49035215D01*
X171038817Y-49044338D01*
X170817683Y-49108792D01*
X170813430Y-49110752D01*
X170813429Y-49110753D01*
X170761512Y-49134687D01*
X170574652Y-49220831D01*
X170557443Y-49232114D01*
X170354764Y-49364996D01*
X170354759Y-49365000D01*
X170350851Y-49367562D01*
X170151197Y-49545760D01*
X169980075Y-49751512D01*
X169977652Y-49755505D01*
X169955997Y-49791192D01*
X169841244Y-49980298D01*
X169839437Y-49984606D01*
X169839437Y-49984607D01*
X169805957Y-50064449D01*
X169737755Y-50227091D01*
X169736604Y-50231623D01*
X169736603Y-50231626D01*
X169673033Y-50481933D01*
X169671881Y-50486470D01*
X169645070Y-50752736D01*
X167370500Y-50752736D01*
X167370500Y-43121726D01*
X169595688Y-43121726D01*
X169595863Y-43126177D01*
X169605114Y-43361608D01*
X169605977Y-43383582D01*
X169653058Y-43641376D01*
X169735994Y-43889965D01*
X169737987Y-43893953D01*
X169841006Y-44100127D01*
X169853561Y-44170004D01*
X169825936Y-44236082D01*
X169760427Y-44316404D01*
X169757472Y-44322057D01*
X169757471Y-44322058D01*
X169739550Y-44356338D01*
X169666259Y-44496530D01*
X169610234Y-44691913D01*
X169609701Y-44697886D01*
X169602800Y-44775214D01*
X169599500Y-44812184D01*
X169599500Y-46627816D01*
X169599749Y-46630603D01*
X169599749Y-46630609D01*
X169604460Y-46683394D01*
X169610234Y-46748087D01*
X169666259Y-46943470D01*
X169760427Y-47123596D01*
X169764458Y-47128539D01*
X169764459Y-47128540D01*
X169795868Y-47167051D01*
X169888891Y-47281109D01*
X169893831Y-47285138D01*
X170033920Y-47399391D01*
X170046404Y-47409573D01*
X170226530Y-47503741D01*
X170421913Y-47559766D01*
X170453545Y-47562589D01*
X170539391Y-47570251D01*
X170539397Y-47570251D01*
X170542184Y-47570500D01*
X172357816Y-47570500D01*
X172360603Y-47570251D01*
X172360609Y-47570251D01*
X172446455Y-47562589D01*
X172478087Y-47559766D01*
X172673470Y-47503741D01*
X172853596Y-47409573D01*
X172866081Y-47399391D01*
X173006169Y-47285138D01*
X173011109Y-47281109D01*
X173104132Y-47167051D01*
X173135541Y-47128540D01*
X173135542Y-47128539D01*
X173139573Y-47123596D01*
X173170379Y-47064669D01*
X193252001Y-47064669D01*
X193252371Y-47071490D01*
X193257895Y-47122352D01*
X193261521Y-47137604D01*
X193306676Y-47258054D01*
X193315214Y-47273649D01*
X193391715Y-47375724D01*
X193404276Y-47388285D01*
X193506351Y-47464786D01*
X193521946Y-47473324D01*
X193642394Y-47518478D01*
X193657649Y-47522105D01*
X193708514Y-47527631D01*
X193715328Y-47528000D01*
X194037885Y-47528000D01*
X194053124Y-47523525D01*
X194054329Y-47522135D01*
X194056000Y-47514452D01*
X194056000Y-46392115D01*
X194051525Y-46376876D01*
X194050135Y-46375671D01*
X194042452Y-46374000D01*
X193270116Y-46374000D01*
X193254877Y-46378475D01*
X193253672Y-46379865D01*
X193252001Y-46387548D01*
X193252001Y-47064669D01*
X173170379Y-47064669D01*
X173233741Y-46943470D01*
X173289766Y-46748087D01*
X173295540Y-46683394D01*
X173300251Y-46630609D01*
X173300251Y-46630603D01*
X173300500Y-46627816D01*
X173300500Y-45847885D01*
X193252000Y-45847885D01*
X193256475Y-45863124D01*
X193257865Y-45864329D01*
X193265548Y-45866000D01*
X194438000Y-45866000D01*
X194506121Y-45886002D01*
X194552614Y-45939658D01*
X194564000Y-45992000D01*
X194564000Y-47509884D01*
X194568475Y-47525123D01*
X194569865Y-47526328D01*
X194577548Y-47527999D01*
X194904669Y-47527999D01*
X194911490Y-47527629D01*
X194962352Y-47522105D01*
X194977604Y-47518479D01*
X195098054Y-47473324D01*
X195113649Y-47464786D01*
X195215724Y-47388285D01*
X195228285Y-47375724D01*
X195245515Y-47352734D01*
X195302374Y-47310219D01*
X195373192Y-47305193D01*
X195435486Y-47339253D01*
X195456787Y-47369923D01*
X195457466Y-47369536D01*
X195460247Y-47374411D01*
X195462582Y-47379512D01*
X195465782Y-47384116D01*
X195465783Y-47384118D01*
X195483475Y-47409573D01*
X195592525Y-47566476D01*
X195753524Y-47727475D01*
X195940488Y-47857418D01*
X196068995Y-47916253D01*
X196142403Y-47949862D01*
X196142405Y-47949863D01*
X196147508Y-47952199D01*
X196368041Y-48008823D01*
X196433453Y-48014143D01*
X196509057Y-48020293D01*
X196509069Y-48020293D01*
X196511608Y-48020500D01*
X197188392Y-48020500D01*
X197190931Y-48020293D01*
X197190943Y-48020293D01*
X197266547Y-48014143D01*
X197331959Y-48008823D01*
X197552492Y-47952199D01*
X197557595Y-47949863D01*
X197557597Y-47949862D01*
X197631005Y-47916253D01*
X197759512Y-47857418D01*
X197946476Y-47727475D01*
X198107475Y-47566476D01*
X198216525Y-47409573D01*
X198234217Y-47384118D01*
X198234218Y-47384116D01*
X198237418Y-47379512D01*
X198332199Y-47172492D01*
X198388823Y-46951959D01*
X198396777Y-46854166D01*
X198400293Y-46810943D01*
X198400293Y-46810931D01*
X198400500Y-46808392D01*
X198400500Y-45431608D01*
X198388823Y-45288041D01*
X198332199Y-45067508D01*
X198237418Y-44860488D01*
X198107475Y-44673524D01*
X197946476Y-44512525D01*
X197759512Y-44382582D01*
X197627316Y-44322058D01*
X197557597Y-44290138D01*
X197557595Y-44290137D01*
X197552492Y-44287801D01*
X197331959Y-44231177D01*
X197246285Y-44224209D01*
X197180011Y-44198751D01*
X197138020Y-44141503D01*
X197130500Y-44098624D01*
X197130500Y-43361608D01*
X197118823Y-43218041D01*
X197062199Y-42997508D01*
X196967418Y-42790488D01*
X196837475Y-42603524D01*
X196676476Y-42442525D01*
X196489512Y-42312582D01*
X196361005Y-42253747D01*
X196287597Y-42220138D01*
X196287595Y-42220137D01*
X196282492Y-42217801D01*
X196061959Y-42161177D01*
X195996547Y-42155857D01*
X195920943Y-42149707D01*
X195920931Y-42149707D01*
X195918392Y-42149500D01*
X195241608Y-42149500D01*
X195239069Y-42149707D01*
X195239057Y-42149707D01*
X195163453Y-42155857D01*
X195098041Y-42161177D01*
X194877508Y-42217801D01*
X194872405Y-42220137D01*
X194872403Y-42220138D01*
X194798995Y-42253747D01*
X194670488Y-42312582D01*
X194483524Y-42442525D01*
X194322525Y-42603524D01*
X194192582Y-42790488D01*
X194097801Y-42997508D01*
X194041177Y-43218041D01*
X194029500Y-43361608D01*
X194029500Y-44586001D01*
X194009498Y-44654122D01*
X193955842Y-44700615D01*
X193903500Y-44712001D01*
X193715331Y-44712001D01*
X193708510Y-44712371D01*
X193657648Y-44717895D01*
X193642396Y-44721521D01*
X193521946Y-44766676D01*
X193506351Y-44775214D01*
X193404276Y-44851715D01*
X193391715Y-44864276D01*
X193315214Y-44966351D01*
X193306676Y-44981946D01*
X193261522Y-45102394D01*
X193257895Y-45117649D01*
X193252369Y-45168514D01*
X193252000Y-45175328D01*
X193252000Y-45847885D01*
X173300500Y-45847885D01*
X173300500Y-44812184D01*
X173297201Y-44775214D01*
X173290299Y-44697886D01*
X173289766Y-44691913D01*
X173233741Y-44496530D01*
X173139573Y-44316404D01*
X173073390Y-44235256D01*
X173045838Y-44169825D01*
X173058034Y-44099884D01*
X173064122Y-44088946D01*
X173087234Y-44051887D01*
X173089586Y-44048116D01*
X173157741Y-43893953D01*
X173193749Y-43812503D01*
X173195547Y-43808436D01*
X173266681Y-43556216D01*
X173289280Y-43387962D01*
X173301139Y-43299673D01*
X173301140Y-43299665D01*
X173301566Y-43296491D01*
X173303863Y-43223394D01*
X173305126Y-43183222D01*
X173305126Y-43183217D01*
X173305227Y-43180000D01*
X173286719Y-42918596D01*
X173231563Y-42662408D01*
X173212610Y-42611032D01*
X173142401Y-42420724D01*
X173140860Y-42416547D01*
X173016420Y-42185920D01*
X172999132Y-42162513D01*
X172863370Y-41978706D01*
X172860726Y-41975126D01*
X172676884Y-41788374D01*
X172608336Y-41736060D01*
X172472107Y-41632093D01*
X172472103Y-41632090D01*
X172468562Y-41629388D01*
X172239917Y-41501340D01*
X172235768Y-41499735D01*
X172235764Y-41499733D01*
X172088196Y-41442644D01*
X171995512Y-41406787D01*
X171991191Y-41405785D01*
X171991183Y-41405783D01*
X171823069Y-41366817D01*
X171740221Y-41347614D01*
X171479141Y-41325002D01*
X171474706Y-41325246D01*
X171474702Y-41325246D01*
X171221921Y-41339157D01*
X171221914Y-41339158D01*
X171217478Y-41339402D01*
X170960456Y-41390527D01*
X170956246Y-41392005D01*
X170956244Y-41392006D01*
X170811497Y-41442838D01*
X170713201Y-41477357D01*
X170709250Y-41479410D01*
X170709244Y-41479412D01*
X170581894Y-41545566D01*
X170480647Y-41598159D01*
X170477032Y-41600742D01*
X170477026Y-41600746D01*
X170271055Y-41747935D01*
X170271051Y-41747938D01*
X170267434Y-41750523D01*
X170077816Y-41931409D01*
X169915578Y-42137208D01*
X169913346Y-42141050D01*
X169913343Y-42141055D01*
X169867408Y-42220138D01*
X169783955Y-42363813D01*
X169782290Y-42367925D01*
X169782287Y-42367930D01*
X169688470Y-42599553D01*
X169685574Y-42606703D01*
X169622399Y-42861032D01*
X169595688Y-43121726D01*
X167370500Y-43121726D01*
X167370500Y-38066726D01*
X172115688Y-38066726D01*
X172125977Y-38328582D01*
X172173058Y-38586376D01*
X172255994Y-38834965D01*
X172257987Y-38838953D01*
X172351692Y-39026486D01*
X172373128Y-39069387D01*
X172375657Y-39073046D01*
X172452179Y-39183764D01*
X172522124Y-39284967D01*
X172587536Y-39355729D01*
X172696384Y-39473479D01*
X172700010Y-39477402D01*
X172703464Y-39480214D01*
X172899778Y-39640039D01*
X172899782Y-39640042D01*
X172903235Y-39642853D01*
X173127745Y-39778019D01*
X173240545Y-39825784D01*
X173364962Y-39878468D01*
X173364966Y-39878469D01*
X173369060Y-39880203D01*
X173373352Y-39881341D01*
X173373355Y-39881342D01*
X173474125Y-39908061D01*
X173622365Y-39947366D01*
X173626789Y-39947890D01*
X173626791Y-39947890D01*
X173777572Y-39965736D01*
X173882607Y-39978167D01*
X174144592Y-39971993D01*
X174148986Y-39971262D01*
X174148993Y-39971261D01*
X174398692Y-39929700D01*
X174398696Y-39929699D01*
X174403094Y-39928967D01*
X174567061Y-39877111D01*
X174648709Y-39851289D01*
X174648711Y-39851288D01*
X174652955Y-39849946D01*
X174656966Y-39848020D01*
X174656971Y-39848018D01*
X174885169Y-39738439D01*
X174885170Y-39738438D01*
X174889188Y-39736509D01*
X175033566Y-39640039D01*
X175103380Y-39593391D01*
X175103384Y-39593388D01*
X175107082Y-39590917D01*
X175302287Y-39416076D01*
X175412496Y-39284967D01*
X175468043Y-39218886D01*
X175468045Y-39218884D01*
X175470910Y-39215475D01*
X175473269Y-39211693D01*
X175475884Y-39208093D01*
X175477319Y-39209135D01*
X175524798Y-39166830D01*
X175594925Y-39155754D01*
X175659207Y-39183764D01*
X175724434Y-39237916D01*
X175732881Y-39243831D01*
X175916756Y-39351279D01*
X175926042Y-39355729D01*
X176125001Y-39431703D01*
X176134899Y-39434579D01*
X176238250Y-39455606D01*
X176252299Y-39454410D01*
X176256000Y-39444065D01*
X176256000Y-39443517D01*
X176764000Y-39443517D01*
X176768064Y-39457359D01*
X176781478Y-39459393D01*
X176788184Y-39458534D01*
X176798262Y-39456392D01*
X177002255Y-39395191D01*
X177011842Y-39391433D01*
X177203095Y-39297739D01*
X177211945Y-39292464D01*
X177372646Y-39177838D01*
X177439720Y-39154564D01*
X177508728Y-39171248D01*
X177549467Y-39208779D01*
X177599585Y-39281295D01*
X177599590Y-39281301D01*
X177602124Y-39284967D01*
X177667536Y-39355729D01*
X177776384Y-39473479D01*
X177780010Y-39477402D01*
X177783464Y-39480214D01*
X177979778Y-39640039D01*
X177979782Y-39640042D01*
X177983235Y-39642853D01*
X178207745Y-39778019D01*
X178320545Y-39825784D01*
X178444962Y-39878468D01*
X178444966Y-39878469D01*
X178449060Y-39880203D01*
X178453352Y-39881341D01*
X178453355Y-39881342D01*
X178554125Y-39908061D01*
X178702365Y-39947366D01*
X178706789Y-39947890D01*
X178706791Y-39947890D01*
X178857572Y-39965736D01*
X178962607Y-39978167D01*
X179224592Y-39971993D01*
X179228986Y-39971262D01*
X179228993Y-39971261D01*
X179478692Y-39929700D01*
X179478696Y-39929699D01*
X179483094Y-39928967D01*
X179647061Y-39877111D01*
X179728709Y-39851289D01*
X179728711Y-39851288D01*
X179732955Y-39849946D01*
X179736966Y-39848020D01*
X179736971Y-39848018D01*
X179965169Y-39738439D01*
X179965170Y-39738438D01*
X179969188Y-39736509D01*
X180113566Y-39640039D01*
X180183374Y-39593395D01*
X180183379Y-39593391D01*
X180187082Y-39590917D01*
X180190398Y-39587946D01*
X180190403Y-39587943D01*
X180236606Y-39546560D01*
X180300694Y-39516011D01*
X180371125Y-39524960D01*
X180400221Y-39542704D01*
X180519778Y-39640039D01*
X180519782Y-39640042D01*
X180523235Y-39642853D01*
X180747745Y-39778019D01*
X180860545Y-39825784D01*
X180984962Y-39878468D01*
X180984966Y-39878469D01*
X180989060Y-39880203D01*
X180993352Y-39881341D01*
X180993355Y-39881342D01*
X181094125Y-39908061D01*
X181242365Y-39947366D01*
X181246789Y-39947890D01*
X181246791Y-39947890D01*
X181397572Y-39965736D01*
X181502607Y-39978167D01*
X181764592Y-39971993D01*
X181768986Y-39971262D01*
X181768993Y-39971261D01*
X182018692Y-39929700D01*
X182018696Y-39929699D01*
X182023094Y-39928967D01*
X182187061Y-39877111D01*
X182268709Y-39851289D01*
X182268711Y-39851288D01*
X182272955Y-39849946D01*
X182276966Y-39848020D01*
X182276971Y-39848018D01*
X182505169Y-39738439D01*
X182505170Y-39738438D01*
X182509188Y-39736509D01*
X182653566Y-39640039D01*
X182723374Y-39593395D01*
X182723379Y-39593391D01*
X182727082Y-39590917D01*
X182730398Y-39587946D01*
X182730403Y-39587943D01*
X182776606Y-39546560D01*
X182840694Y-39516011D01*
X182911125Y-39524960D01*
X182940221Y-39542704D01*
X183059778Y-39640039D01*
X183059782Y-39640042D01*
X183063235Y-39642853D01*
X183287745Y-39778019D01*
X183400545Y-39825784D01*
X183524962Y-39878468D01*
X183524966Y-39878469D01*
X183529060Y-39880203D01*
X183533352Y-39881341D01*
X183533355Y-39881342D01*
X183634125Y-39908061D01*
X183782365Y-39947366D01*
X183786789Y-39947890D01*
X183786791Y-39947890D01*
X183937572Y-39965736D01*
X184042607Y-39978167D01*
X184304592Y-39971993D01*
X184308986Y-39971262D01*
X184308993Y-39971261D01*
X184558692Y-39929700D01*
X184558696Y-39929699D01*
X184563094Y-39928967D01*
X184727061Y-39877111D01*
X184808709Y-39851289D01*
X184808711Y-39851288D01*
X184812955Y-39849946D01*
X184816966Y-39848020D01*
X184816971Y-39848018D01*
X185045169Y-39738439D01*
X185045170Y-39738438D01*
X185049188Y-39736509D01*
X185193566Y-39640039D01*
X185263374Y-39593395D01*
X185263379Y-39593391D01*
X185267082Y-39590917D01*
X185270398Y-39587946D01*
X185270403Y-39587943D01*
X185316606Y-39546560D01*
X185380694Y-39516011D01*
X185451125Y-39524960D01*
X185480221Y-39542704D01*
X185599778Y-39640039D01*
X185599782Y-39640042D01*
X185603235Y-39642853D01*
X185827745Y-39778019D01*
X185940545Y-39825784D01*
X186064962Y-39878468D01*
X186064966Y-39878469D01*
X186069060Y-39880203D01*
X186073352Y-39881341D01*
X186073355Y-39881342D01*
X186174125Y-39908061D01*
X186322365Y-39947366D01*
X186326789Y-39947890D01*
X186326791Y-39947890D01*
X186477572Y-39965736D01*
X186582607Y-39978167D01*
X186844592Y-39971993D01*
X186848986Y-39971262D01*
X186848993Y-39971261D01*
X187098692Y-39929700D01*
X187098696Y-39929699D01*
X187103094Y-39928967D01*
X187267061Y-39877111D01*
X187348709Y-39851289D01*
X187348711Y-39851288D01*
X187352955Y-39849946D01*
X187356966Y-39848020D01*
X187356971Y-39848018D01*
X187585169Y-39738439D01*
X187585170Y-39738438D01*
X187589188Y-39736509D01*
X187733566Y-39640039D01*
X187803380Y-39593391D01*
X187803384Y-39593388D01*
X187807082Y-39590917D01*
X187972801Y-39442486D01*
X188036888Y-39411936D01*
X188107319Y-39420884D01*
X188117376Y-39425822D01*
X188121946Y-39428324D01*
X188242394Y-39473478D01*
X188257649Y-39477105D01*
X188308514Y-39482631D01*
X188315328Y-39483000D01*
X188937885Y-39483000D01*
X188953124Y-39478525D01*
X188954329Y-39477135D01*
X188956000Y-39469452D01*
X188956000Y-39464884D01*
X189464000Y-39464884D01*
X189468475Y-39480123D01*
X189469865Y-39481328D01*
X189477548Y-39482999D01*
X190104669Y-39482999D01*
X190111490Y-39482629D01*
X190162352Y-39477105D01*
X190177604Y-39473479D01*
X190298054Y-39428324D01*
X190313649Y-39419786D01*
X190415724Y-39343285D01*
X190428285Y-39330724D01*
X190504786Y-39228649D01*
X190513324Y-39213054D01*
X190558478Y-39092606D01*
X190562105Y-39077351D01*
X190567631Y-39026486D01*
X190568000Y-39019672D01*
X190568000Y-38397115D01*
X190563525Y-38381876D01*
X190562135Y-38380671D01*
X190554452Y-38379000D01*
X189482115Y-38379000D01*
X189466876Y-38383475D01*
X189465671Y-38384865D01*
X189464000Y-38392548D01*
X189464000Y-39464884D01*
X188956000Y-39464884D01*
X188956000Y-37852885D01*
X189464000Y-37852885D01*
X189468475Y-37868124D01*
X189469865Y-37869329D01*
X189477548Y-37871000D01*
X190549884Y-37871000D01*
X190565123Y-37866525D01*
X190566328Y-37865135D01*
X190567999Y-37857452D01*
X190567999Y-37230331D01*
X190567629Y-37223510D01*
X190562105Y-37172648D01*
X190558479Y-37157396D01*
X190513324Y-37036946D01*
X190504786Y-37021351D01*
X190428285Y-36919276D01*
X190415724Y-36906715D01*
X190313649Y-36830214D01*
X190298054Y-36821676D01*
X190177606Y-36776522D01*
X190162351Y-36772895D01*
X190111486Y-36767369D01*
X190104672Y-36767000D01*
X189482115Y-36767000D01*
X189466876Y-36771475D01*
X189465671Y-36772865D01*
X189464000Y-36780548D01*
X189464000Y-37852885D01*
X188956000Y-37852885D01*
X188956000Y-36785116D01*
X188951525Y-36769877D01*
X188950135Y-36768672D01*
X188942452Y-36767001D01*
X188315331Y-36767001D01*
X188308510Y-36767371D01*
X188257648Y-36772895D01*
X188242396Y-36776521D01*
X188121944Y-36821677D01*
X188115699Y-36825096D01*
X188046342Y-36840266D01*
X187979794Y-36815531D01*
X187965396Y-36802970D01*
X187900015Y-36736555D01*
X187896884Y-36733374D01*
X187828336Y-36681060D01*
X187692107Y-36577093D01*
X187692103Y-36577090D01*
X187688562Y-36574388D01*
X187459917Y-36446340D01*
X187455768Y-36444735D01*
X187455764Y-36444733D01*
X187308196Y-36387644D01*
X187215512Y-36351787D01*
X187211191Y-36350785D01*
X187211183Y-36350783D01*
X187043069Y-36311817D01*
X186960221Y-36292614D01*
X186699141Y-36270002D01*
X186694706Y-36270246D01*
X186694702Y-36270246D01*
X186441921Y-36284157D01*
X186441914Y-36284158D01*
X186437478Y-36284402D01*
X186180456Y-36335527D01*
X186176246Y-36337005D01*
X186176244Y-36337006D01*
X186031497Y-36387838D01*
X185933201Y-36422357D01*
X185929250Y-36424410D01*
X185929244Y-36424412D01*
X185801894Y-36490566D01*
X185700647Y-36543159D01*
X185697032Y-36545742D01*
X185697026Y-36545746D01*
X185491055Y-36692935D01*
X185491051Y-36692938D01*
X185487434Y-36695523D01*
X185484215Y-36698594D01*
X185480777Y-36701438D01*
X185479900Y-36700378D01*
X185422117Y-36730172D01*
X185351441Y-36723429D01*
X185321820Y-36706614D01*
X185152107Y-36577093D01*
X185152103Y-36577090D01*
X185148562Y-36574388D01*
X184919917Y-36446340D01*
X184915768Y-36444735D01*
X184915764Y-36444733D01*
X184768196Y-36387644D01*
X184675512Y-36351787D01*
X184671191Y-36350785D01*
X184671183Y-36350783D01*
X184503069Y-36311817D01*
X184420221Y-36292614D01*
X184159141Y-36270002D01*
X184154706Y-36270246D01*
X184154702Y-36270246D01*
X183901921Y-36284157D01*
X183901914Y-36284158D01*
X183897478Y-36284402D01*
X183640456Y-36335527D01*
X183636246Y-36337005D01*
X183636244Y-36337006D01*
X183491497Y-36387838D01*
X183393201Y-36422357D01*
X183389250Y-36424410D01*
X183389244Y-36424412D01*
X183261894Y-36490566D01*
X183160647Y-36543159D01*
X183157032Y-36545742D01*
X183157026Y-36545746D01*
X182951055Y-36692935D01*
X182951051Y-36692938D01*
X182947434Y-36695523D01*
X182944215Y-36698594D01*
X182940777Y-36701438D01*
X182939900Y-36700378D01*
X182882117Y-36730172D01*
X182811441Y-36723429D01*
X182781820Y-36706614D01*
X182612107Y-36577093D01*
X182612103Y-36577090D01*
X182608562Y-36574388D01*
X182379917Y-36446340D01*
X182375768Y-36444735D01*
X182375764Y-36444733D01*
X182228196Y-36387644D01*
X182135512Y-36351787D01*
X182131191Y-36350785D01*
X182131183Y-36350783D01*
X181963069Y-36311817D01*
X181880221Y-36292614D01*
X181619141Y-36270002D01*
X181614706Y-36270246D01*
X181614702Y-36270246D01*
X181361921Y-36284157D01*
X181361914Y-36284158D01*
X181357478Y-36284402D01*
X181100456Y-36335527D01*
X181096246Y-36337005D01*
X181096244Y-36337006D01*
X180951497Y-36387838D01*
X180853201Y-36422357D01*
X180849250Y-36424410D01*
X180849244Y-36424412D01*
X180721894Y-36490566D01*
X180620647Y-36543159D01*
X180617032Y-36545742D01*
X180617026Y-36545746D01*
X180411055Y-36692935D01*
X180411051Y-36692938D01*
X180407434Y-36695523D01*
X180404215Y-36698594D01*
X180400777Y-36701438D01*
X180399900Y-36700378D01*
X180342117Y-36730172D01*
X180271441Y-36723429D01*
X180241820Y-36706614D01*
X180072107Y-36577093D01*
X180072103Y-36577090D01*
X180068562Y-36574388D01*
X179839917Y-36446340D01*
X179835768Y-36444735D01*
X179835764Y-36444733D01*
X179688196Y-36387644D01*
X179595512Y-36351787D01*
X179591191Y-36350785D01*
X179591183Y-36350783D01*
X179423069Y-36311817D01*
X179340221Y-36292614D01*
X179079141Y-36270002D01*
X179074706Y-36270246D01*
X179074702Y-36270246D01*
X178821921Y-36284157D01*
X178821914Y-36284158D01*
X178817478Y-36284402D01*
X178560456Y-36335527D01*
X178556246Y-36337005D01*
X178556244Y-36337006D01*
X178411497Y-36387838D01*
X178313201Y-36422357D01*
X178309250Y-36424410D01*
X178309244Y-36424412D01*
X178181894Y-36490566D01*
X178080647Y-36543159D01*
X178077032Y-36545742D01*
X178077026Y-36545746D01*
X177871055Y-36692935D01*
X177871051Y-36692938D01*
X177867434Y-36695523D01*
X177827756Y-36733374D01*
X177748186Y-36809280D01*
X177677816Y-36876409D01*
X177551260Y-37036946D01*
X177541943Y-37048764D01*
X177484062Y-37089877D01*
X177413142Y-37093171D01*
X177364901Y-37069640D01*
X177268139Y-36993222D01*
X177259552Y-36987517D01*
X177073117Y-36884599D01*
X177063705Y-36880369D01*
X176862959Y-36809280D01*
X176852988Y-36806646D01*
X176781837Y-36793972D01*
X176768540Y-36795432D01*
X176764000Y-36809989D01*
X176764000Y-39443517D01*
X176256000Y-39443517D01*
X176256000Y-36808102D01*
X176252082Y-36794758D01*
X176237806Y-36792771D01*
X176199324Y-36798660D01*
X176189288Y-36801051D01*
X175986868Y-36867212D01*
X175977359Y-36871209D01*
X175788463Y-36969542D01*
X175779738Y-36975036D01*
X175650711Y-37071913D01*
X175584226Y-37096819D01*
X175514831Y-37081827D01*
X175473706Y-37046012D01*
X175455492Y-37021351D01*
X175380726Y-36920126D01*
X175196884Y-36733374D01*
X175128336Y-36681060D01*
X174992107Y-36577093D01*
X174992103Y-36577090D01*
X174988562Y-36574388D01*
X174759917Y-36446340D01*
X174755768Y-36444735D01*
X174755764Y-36444733D01*
X174608196Y-36387644D01*
X174515512Y-36351787D01*
X174511191Y-36350785D01*
X174511183Y-36350783D01*
X174343069Y-36311817D01*
X174260221Y-36292614D01*
X173999141Y-36270002D01*
X173994706Y-36270246D01*
X173994702Y-36270246D01*
X173741921Y-36284157D01*
X173741914Y-36284158D01*
X173737478Y-36284402D01*
X173480456Y-36335527D01*
X173476246Y-36337005D01*
X173476244Y-36337006D01*
X173331497Y-36387838D01*
X173233201Y-36422357D01*
X173229250Y-36424410D01*
X173229244Y-36424412D01*
X173101894Y-36490566D01*
X173000647Y-36543159D01*
X172997032Y-36545742D01*
X172997026Y-36545746D01*
X172791055Y-36692935D01*
X172791051Y-36692938D01*
X172787434Y-36695523D01*
X172747756Y-36733374D01*
X172668186Y-36809280D01*
X172597816Y-36876409D01*
X172595060Y-36879905D01*
X172483554Y-37021351D01*
X172435578Y-37082208D01*
X172433346Y-37086050D01*
X172433343Y-37086055D01*
X172391905Y-37157396D01*
X172303955Y-37308813D01*
X172205574Y-37551703D01*
X172142399Y-37806032D01*
X172115688Y-38066726D01*
X167370500Y-38066726D01*
X167370500Y-34146500D01*
X167390502Y-34078379D01*
X167444158Y-34031886D01*
X167496500Y-34020500D01*
X221123500Y-34020500D01*
X221191621Y-34040502D01*
G37*
%TD.AperFunction*%
%TD*%
M02*
